Hack-Italic-TT.ufo
<glyph name="dollar" format="1">
  <advance width="1233"/>
  <unicode hex="0024"/>
  <outline>
    <contour>
      <point x="413" y="0" type="line" name="ab01"/>
      <point x="320" y="3"/>
      <point x="222" y="26" type="qcurve"/>
      <point x="171" y="38"/>
      <point x="77" y="71"/>
      <point x="31" y="92" type="qcurve"/>
      <point x="66" y="272" type="line" name="iv01"/>
      <point x="147" y="212"/>
      <point x="242" y="179" type="qcurve"/>
      <point x="338" y="145"/>
      <point x="440" y="141" type="qcurve" name="sv01"/>
      <point x="530" y="606" type="line"/>
      <point x="445" y="623"/>
      <point x="318" y="675"/>
      <point x="275" y="714" type="qcurve"/>
      <point x="237" y="749"/>
      <point x="195" y="844"/>
      <point x="195" y="912" type="qcurve" name="sh01"/>
      <point x="195" y="995"/>
      <point x="261" y="1142"/>
      <point x="328" y="1200" type="qcurve"/>
      <point x="395" y="1258"/>
      <point x="570" y="1318"/>
      <point x="669" y="1321" type="qcurve"/>
      <point x="717" y="1556" type="line" name="at01"/>
      <point x="817" y="1556" type="line" name="sh02"/>
      <point x="770" y="1321" type="line"/>
      <point x="815" y="1318"/>
      <point x="903" y="1306"/>
      <point x="933" y="1300" type="qcurve"/>
      <point x="948" y="1297"/>
      <point x="986" y="1288"/>
      <point x="1027" y="1277"/>
      <point x="1066" y="1266"/>
      <point x="1083" y="1260" type="qcurve"/>
      <point x="1051" y="1087" type="line" name="iv02"/>
      <point x="1019" y="1107"/>
      <point x="941" y="1141"/>
      <point x="909" y="1151" type="qcurve"/>
      <point x="877" y="1161"/>
      <point x="789" y="1178"/>
      <point x="743" y="1182" type="qcurve"/>
      <point x="662" y="756" type="line"/>
      <point x="837" y="721"/>
      <point x="925" y="639" type="qcurve"/>
      <point x="970" y="597"/>
      <point x="1014" y="492"/>
      <point x="1014" y="421" type="qcurve" name="sh03"/>
      <point x="1014" y="333"/>
      <point x="946" y="182"/>
      <point x="877" y="122" type="qcurve"/>
      <point x="740" y="2"/>
      <point x="524" y="2" type="qcurve" name="ab02"/>
      <point x="514" y="2" type="line"/>
      <point x="455" y="-301" type="line" name="av01"/>
      <point x="354" y="-301" type="line"/>
    </contour>
    <contour>
      <point x="643" y="1184" type="line"/>
      <point x="525" y="1177"/>
      <point x="449" y="1108" type="qcurve"/>
      <point x="373" y="1039"/>
      <point x="373" y="941" type="qcurve" name="sh04"/>
      <point x="373" y="871"/>
      <point x="415" y="834" type="qcurve"/>
      <point x="435" y="816"/>
      <point x="506" y="786"/>
      <point x="563" y="774" type="qcurve"/>
    </contour>
    <contour>
      <point x="543" y="145" type="line" name="sv02"/>
      <point x="673" y="145"/>
      <point x="752" y="218" type="qcurve"/>
      <point x="790" y="253"/>
      <point x="831" y="345"/>
      <point x="831" y="402" type="qcurve" name="ah01"/>
      <point x="831" y="446"/>
      <point x="807" y="507"/>
      <point x="784" y="527" type="qcurve"/>
      <point x="738" y="568"/>
      <point x="629" y="588" type="qcurve"/>
    </contour>
  </outline>
</glyph>
<glyph name="ampersand" format="1">
  <advance width="1233"/>
  <unicode hex="0026"/>
  <outline>
    <contour>
      <point x="408" y="-29" type="qcurve" name="dv01"/>
      <point x="314" y="-29"/>
      <point x="154" y="25"/>
      <point x="96" y="78" type="qcurve"/>
      <point x="39" y="129"/>
      <point x="-20" y="272"/>
      <point x="-20" y="362" type="qcurve" name="sh01"/>
      <point x="-20" y="443"/>
      <point x="30" y="602"/>
      <point x="79" y="673" type="qcurve"/>
      <point x="128" y="744"/>
      <point x="273" y="868"/>
      <point x="367" y="920" type="qcurve"/>
      <point x="350" y="952"/>
      <point x="332" y="998"/>
      <point x="324" y="1026" type="qcurve"/>
      <point x="317" y="1052"/>
      <point x="309" y="1103"/>
      <point x="309" y="1135" type="qcurve" name="ah01"/>
      <point x="309" y="1219"/>
      <point x="370" y="1363"/>
      <point x="432" y="1416" type="qcurve"/>
      <point x="492" y="1467"/>
      <point x="660" y="1520"/>
      <point x="761" y="1520" type="qcurve" name="at01"/>
      <point x="827" y="1520"/>
      <point x="889" y="1508" type="qcurve" name="at02"/>
      <point x="949" y="1496"/>
      <point x="1008" y="1473" type="qcurve"/>
      <point x="973" y="1290" type="line" name="iv01"/>
      <point x="931" y="1328"/>
      <point x="870" y="1347" type="qcurve"/>
      <point x="839" y="1357"/>
      <point x="771" y="1366"/>
      <point x="738" y="1366" type="qcurve" name="sv01"/>
      <point x="618" y="1366"/>
      <point x="551" y="1309" type="qcurve"/>
      <point x="517" y="1280"/>
      <point x="483" y="1202"/>
      <point x="483" y="1157" type="qcurve" name="sh02"/>
      <point x="483" y="1134"/>
      <point x="493" y="1080"/>
      <point x="505" y="1045" type="qcurve"/>
      <point x="516" y="1013"/>
      <point x="544" y="948"/>
      <point x="567" y="907" type="qcurve"/>
      <point x="874" y="350" type="line" name="iv02"/>
      <point x="936" y="416"/>
      <point x="973" y="519" type="qcurve"/>
      <point x="992" y="571"/>
      <point x="1016" y="689"/>
      <point x="1022" y="760" type="qcurve"/>
      <point x="1190" y="760" type="line"/>
      <point x="1182" y="675"/>
      <point x="1144" y="527"/>
      <point x="1112" y="458" type="qcurve"/>
      <point x="1050" y="323"/>
      <point x="944" y="221" type="qcurve"/>
      <point x="1067" y="0" type="line" name="ab01"/>
      <point x="868" y="0" type="line"/>
      <point x="809" y="113" type="line"/>
      <point x="760" y="77"/>
      <point x="668" y="26"/>
      <point x="614" y="7" type="qcurve" name="ab02"/>
      <point x="513" y="-29"/>
    </contour>
    <contour>
      <point x="456" y="129" type="qcurve" name="dv02"/>
      <point x="492" y="129"/>
      <point x="560" y="144"/>
      <point x="597" y="158" type="qcurve"/>
      <point x="632" y="172"/>
      <point x="703" y="211"/>
      <point x="741" y="240" type="qcurve"/>
      <point x="432" y="795" type="line"/>
      <point x="297" y="721"/>
      <point x="228" y="624" type="qcurve"/>
      <point x="193" y="574"/>
      <point x="158" y="465"/>
      <point x="158" y="411" type="qcurve" name="sh03"/>
      <point x="158" y="346"/>
      <point x="204" y="245"/>
      <point x="243" y="209" type="qcurve"/>
      <point x="284" y="171"/>
      <point x="393" y="129"/>
    </contour>
  </outline>
</glyph>
<glyph name="parenleft" format="1">
  <advance width="1233"/>
  <unicode hex="0028"/>
  <outline>
    <contour>
      <point x="426" y="-270" type="line" name="av01"/>
      <point x="386" y="-175"/>
      <point x="329" y="-3"/>
      <point x="310" y="76" type="qcurve"/>
      <point x="291" y="155"/>
      <point x="273" y="303"/>
      <point x="273" y="381" type="qcurve" name="dh01"/>
      <point x="273" y="527"/>
      <point x="337" y="827"/>
      <point x="402" y="978" type="qcurve"/>
      <point x="465" y="1125"/>
      <point x="655" y="1413"/>
      <point x="783" y="1554" type="qcurve" name="at01"/>
      <point x="942" y="1554" type="line"/>
      <point x="824" y="1402"/>
      <point x="648" y="1104"/>
      <point x="587" y="948" type="qcurve"/>
      <point x="467" y="642"/>
      <point x="467" y="340" type="qcurve" name="dh02"/>
      <point x="467" y="261"/>
      <point x="483" y="117"/>
      <point x="497" y="43" type="qcurve"/>
      <point x="513" y="-38"/>
      <point x="556" y="-189"/>
      <point x="586" y="-270" type="qcurve" name="av02"/>
    </contour>
  </outline>
</glyph>
<glyph name="parenright" format="1">
  <advance width="1233"/>
  <unicode hex="0029"/>
  <outline>
    <contour>
      <point x="320" y="-270" type="line" name="av01"/>
      <point x="557" y="32"/>
      <point x="676" y="336" type="qcurve"/>
      <point x="736" y="489"/>
      <point x="795" y="792"/>
      <point x="795" y="940" type="qcurve" name="dh01"/>
      <point x="795" y="1014"/>
      <point x="780" y="1167"/>
      <point x="766" y="1241" type="qcurve"/>
      <point x="752" y="1314"/>
      <point x="706" y="1473"/>
      <point x="676" y="1554" type="qcurve" name="at01"/>
      <point x="836" y="1554" type="line"/>
      <point x="915" y="1364"/>
      <point x="952" y="1209" type="qcurve"/>
      <point x="971" y="1130"/>
      <point x="989" y="982"/>
      <point x="989" y="904" type="qcurve" name="dh02"/>
      <point x="989" y="758"/>
      <point x="925" y="457"/>
      <point x="860" y="307" type="qcurve"/>
      <point x="794" y="155"/>
      <point x="605" y="-131"/>
      <point x="479" y="-270" type="qcurve" name="av02"/>
    </contour>
  </outline>
</glyph>
<glyph name="zero" format="1">
  <advance width="1233"/>
  <unicode hex="0030"/>
  <outline>
    <contour>
      <point x="480" y="-29" type="qcurve" name="dv01"/>
      <point x="286" y="-29"/>
      <point x="192" y="95" type="qcurve"/>
      <point x="98" y="219"/>
      <point x="98" y="464" type="qcurve" name="sh01"/>
      <point x="98" y="563"/>
      <point x="127" y="779"/>
      <point x="154" y="885" type="qcurve"/>
      <point x="181" y="991"/>
      <point x="255" y="1175"/>
      <point x="297" y="1244" type="qcurve" name="sh03"/>
      <point x="339" y="1315"/>
      <point x="435" y="1418"/>
      <point x="493" y="1453" type="qcurve"/>
      <point x="545" y="1485"/>
      <point x="671" y="1520"/>
      <point x="749" y="1520" type="qcurve" name="at01"/>
      <point x="850" y="1520"/>
      <point x="992" y="1459"/>
      <point x="1040" y="1396" type="qcurve"/>
      <point x="1085" y="1336"/>
      <point x="1135" y="1156"/>
      <point x="1135" y="1028" type="qcurve" name="sh04"/>
      <point x="1135" y="927"/>
      <point x="1105" y="707"/>
      <point x="1079" y="608" type="qcurve"/>
      <point x="1053" y="505"/>
      <point x="979" y="322"/>
      <point x="936" y="249" type="qcurve" name="sh05"/>
      <point x="894" y="177"/>
      <point x="798" y="73"/>
      <point x="741" y="39" type="qcurve"/>
      <point x="687" y="7"/>
      <point x="558" y="-29"/>
    </contour>
    <contour>
      <point x="502" y="135" type="qcurve" name="dv02"/>
      <point x="587" y="135"/>
      <point x="655" y="186" type="qcurve"/>
      <point x="694" y="215"/>
      <point x="750" y="296"/>
      <point x="770" y="334" type="qcurve"/>
      <point x="803" y="400"/>
      <point x="863" y="581"/>
      <point x="886" y="681" type="qcurve"/>
      <point x="909" y="784"/>
      <point x="932" y="976"/>
      <point x="932" y="1057" type="qcurve" name="ah01"/>
      <point x="932" y="1141"/>
      <point x="908" y="1252"/>
      <point x="883" y="1287" type="qcurve"/>
      <point x="858" y="1322"/>
      <point x="780" y="1356"/>
      <point x="732" y="1356" type="qcurve" name="sv01"/>
      <point x="690" y="1356"/>
      <point x="612" y="1331"/>
      <point x="578" y="1306" type="qcurve"/>
      <point x="542" y="1280"/>
      <point x="484" y="1203"/>
      <point x="461" y="1158" type="qcurve"/>
      <point x="427" y="1092"/>
      <point x="368" y="918"/>
      <point x="345" y="812" type="qcurve"/>
      <point x="321" y="702"/>
      <point x="299" y="506"/>
      <point x="299" y="429" type="qcurve" name="sh02"/>
      <point x="299" y="342"/>
      <point x="325" y="236"/>
      <point x="351" y="203" type="qcurve"/>
      <point x="375" y="172"/>
      <point x="451" y="135"/>
    </contour>
    <contour>
      <point x="550" y="401" type="qcurve"/>
      <point x="542" y="401"/>
      <point x="538" y="403" type="qcurve"/>
      <point x="515" y="411"/>
      <point x="497" y="477"/>
      <point x="497" y="526" type="qcurve"/>
      <point x="497" y="540"/>
      <point x="498" y="563"/>
      <point x="499" y="578" type="qcurve"/>
      <point x="501" y="616"/>
      <point x="507" y="678"/>
      <point x="514" y="730"/>
      <point x="523" y="775"/>
      <point x="528" y="798" type="qcurve"/>
      <point x="531" y="809"/>
      <point x="540" y="848"/>
      <point x="555" y="897"/>
      <point x="575" y="952"/>
      <point x="587" y="979" type="qcurve"/>
      <point x="613" y="1036"/>
      <point x="664" y="1089"/>
      <point x="686" y="1089" type="qcurve"/>
      <point x="688" y="1089"/>
      <point x="692" y="1089"/>
      <point x="697" y="1087" type="qcurve"/>
      <point x="716" y="1082"/>
      <point x="741" y="1030"/>
      <point x="741" y="969" type="qcurve"/>
      <point x="740" y="963"/>
      <point x="740" y="949"/>
      <point x="740" y="941" type="qcurve"/>
      <point x="738" y="903"/>
      <point x="734" y="845"/>
      <point x="728" y="800"/>
      <point x="722" y="765"/>
      <point x="718" y="750" type="qcurve"/>
      <point x="713" y="729"/>
      <point x="699" y="678"/>
      <point x="682" y="623"/>
      <point x="662" y="566"/>
      <point x="652" y="541" type="qcurve"/>
      <point x="626" y="474"/>
      <point x="576" y="401"/>
    </contour>
  </outline>
</glyph>
<glyph name="five" format="1">
  <advance width="1233"/>
  <unicode hex="0035"/>
  <outline>
    <contour>
      <point x="366" y="-29" type="qcurve" name="dv01"/>
      <point x="318" y="-29"/>
      <point x="217" y="-21"/>
      <point x="170" y="-13" type="qcurve"/>
      <point x="76" y="3"/>
      <point x="4" y="35" type="qcurve"/>
      <point x="45" y="240" type="line"/>
      <point x="91" y="212"/>
      <point x="177" y="175"/>
      <point x="217" y="164" type="qcurve"/>
      <point x="262" y="151"/>
      <point x="353" y="139"/>
      <point x="395" y="139" type="qcurve" name="dv02"/>
      <point x="488" y="139"/>
      <point x="648" y="197"/>
      <point x="708" y="255" type="qcurve"/>
      <point x="763" y="308"/>
      <point x="829" y="458"/>
      <point x="829" y="545" type="qcurve" name="dh01"/>
      <point x="829" y="675"/>
      <point x="749" y="748" type="qcurve"/>
      <point x="669" y="821"/>
      <point x="525" y="821" type="qcurve" name="dv03"/>
      <point x="486" y="821"/>
      <point x="407" y="811"/>
      <point x="365" y="801" type="qcurve"/>
      <point x="323" y="791"/>
      <point x="245" y="762"/>
      <point x="207" y="743" type="qcurve"/>
      <point x="352" y="1493" type="line" name="at01"/>
      <point x="1108" y="1493" type="line"/>
      <point x="1075" y="1323" type="line" name="sv01"/>
      <point x="504" y="1323" type="line"/>
      <point x="432" y="956" type="line" name="iv01"/>
      <point x="478" y="972"/>
      <point x="524" y="980" type="qcurve"/>
      <point x="546" y="984"/>
      <point x="591" y="987"/>
      <point x="612" y="987" type="qcurve" name="dv04"/>
      <point x="708" y="987"/>
      <point x="860" y="929"/>
      <point x="915" y="875" type="qcurve"/>
      <point x="972" y="820"/>
      <point x="1030" y="667"/>
      <point x="1030" y="574" type="qcurve" name="dh02"/>
      <point x="1030" y="450"/>
      <point x="978" y="334" type="qcurve"/>
      <point x="925" y="217"/>
      <point x="829" y="131" type="qcurve"/>
      <point x="786" y="93"/>
      <point x="687" y="32"/>
      <point x="628" y="11" type="qcurve"/>
      <point x="571" y="-9"/>
      <point x="444" y="-29"/>
    </contour>
  </outline>
</glyph>
<glyph name="eight" format="1">
  <advance width="1233"/>
  <unicode hex="0038"/>
  <outline>
    <contour>
      <point x="483" y="-29" type="qcurve" name="dv01"/>
      <point x="383" y="-29"/>
      <point x="219" y="22"/>
      <point x="159" y="73" type="qcurve"/>
      <point x="105" y="120"/>
      <point x="41" y="260"/>
      <point x="41" y="354" type="qcurve" name="dh01"/>
      <point x="41" y="441"/>
      <point x="97" y="584"/>
      <point x="146" y="639" type="qcurve"/>
      <point x="195" y="694"/>
      <point x="337" y="774"/>
      <point x="430" y="793" type="qcurve" name="ih02"/>
      <point x="373" y="813"/>
      <point x="295" y="869"/>
      <point x="269" y="904" type="qcurve"/>
      <point x="240" y="942"/>
      <point x="215" y="1031"/>
      <point x="215" y="1081" type="qcurve" name="ih03"/>
      <point x="215" y="1171"/>
      <point x="291" y="1332"/>
      <point x="362" y="1393" type="qcurve"/>
      <point x="437" y="1457"/>
      <point x="625" y="1520"/>
      <point x="726" y="1520" type="qcurve" name="at01"/>
      <point x="813" y="1520"/>
      <point x="960" y="1475"/>
      <point x="1015" y="1430" type="qcurve"/>
      <point x="1067" y="1388"/>
      <point x="1126" y="1268"/>
      <point x="1126" y="1191" type="qcurve" name="sh01"/>
      <point x="1126" y="1121"/>
      <point x="1076" y="990"/>
      <point x="1029" y="936" type="qcurve"/>
      <point x="982" y="882"/>
      <point x="850" y="801"/>
      <point x="772" y="782" type="qcurve" name="ih04"/>
      <point x="897" y="752"/>
      <point x="962" y="669" type="qcurve"/>
      <point x="994" y="627"/>
      <point x="1026" y="520"/>
      <point x="1026" y="455" type="qcurve" name="dh04"/>
      <point x="1026" y="352"/>
      <point x="949" y="173"/>
      <point x="875" y="107" type="qcurve"/>
      <point x="803" y="42"/>
      <point x="604" y="-29"/>
    </contour>
    <contour>
      <point x="634" y="866" type="qcurve" name="dv04"/>
      <point x="758" y="866"/>
      <point x="842" y="953" type="qcurve"/>
      <point x="884" y="997"/>
      <point x="926" y="1103"/>
      <point x="926" y="1162" type="qcurve" name="ih01"/>
      <point x="926" y="1212"/>
      <point x="896" y="1283"/>
      <point x="866" y="1310" type="qcurve"/>
      <point x="806" y="1364"/>
      <point x="706" y="1364" type="qcurve" name="sv01"/>
      <point x="640" y="1364"/>
      <point x="536" y="1322"/>
      <point x="498" y="1284" type="qcurve"/>
      <point x="416" y="1203"/>
      <point x="416" y="1081" type="qcurve" name="sh02"/>
      <point x="416" y="980"/>
      <point x="475" y="923" type="qcurve"/>
      <point x="533" y="866"/>
    </contour>
    <contour>
      <point x="494" y="127" type="qcurve" name="dv02"/>
      <point x="566" y="127"/>
      <point x="686" y="174"/>
      <point x="731" y="219" type="qcurve"/>
      <point x="776" y="265"/>
      <point x="821" y="386"/>
      <point x="821" y="458" type="qcurve" name="dh03"/>
      <point x="821" y="520"/>
      <point x="788" y="610"/>
      <point x="755" y="643" type="qcurve"/>
      <point x="689" y="709"/>
      <point x="572" y="709" type="qcurve" name="dv03"/>
      <point x="428" y="709"/>
      <point x="338" y="611" type="qcurve"/>
      <point x="292" y="561"/>
      <point x="246" y="435"/>
      <point x="246" y="364" type="qcurve" name="dh02"/>
      <point x="246" y="304"/>
      <point x="279" y="222"/>
      <point x="313" y="190" type="qcurve"/>
      <point x="347" y="158"/>
      <point x="435" y="127"/>
    </contour>
  </outline>
</glyph>
<glyph name="colon" format="1">
  <advance width="1233"/>
  <unicode hex="003A"/>
  <outline>
    <contour>
      <point x="728" y="776" type="qcurve" name="dv01"/>
      <point x="700" y="776"/>
      <point x="651" y="795"/>
      <point x="631" y="817" type="qcurve"/>
      <point x="610" y="840"/>
      <point x="595" y="894"/>
      <point x="595" y="923" type="qcurve" name="ih01"/>
      <point x="595" y="962"/>
      <point x="626" y="1032"/>
      <point x="657" y="1060" type="qcurve"/>
      <point x="684" y="1085"/>
      <point x="752" y="1114"/>
      <point x="790" y="1114" type="qcurve" name="dv02"/>
      <point x="825" y="1114"/>
      <point x="873" y="1091"/>
      <point x="890" y="1073" type="qcurve"/>
      <point x="906" y="1056"/>
      <point x="925" y="1005"/>
      <point x="925" y="973" type="qcurve" name="sh01"/>
      <point x="925" y="935"/>
      <point x="896" y="859"/>
      <point x="864" y="830" type="qcurve"/>
      <point x="834" y="802"/>
      <point x="761" y="776"/>
    </contour>
    <contour>
      <point x="617" y="60" type="qcurve" name="ab01"/>
      <point x="585" y="60"/>
      <point x="533" y="82"/>
      <point x="516" y="102" type="qcurve"/>
      <point x="498" y="122"/>
      <point x="482" y="175"/>
      <point x="482" y="203" type="qcurve" name="dh01"/>
      <point x="482" y="242"/>
      <point x="512" y="316"/>
      <point x="544" y="345" type="qcurve"/>
      <point x="570" y="369"/>
      <point x="639" y="398"/>
      <point x="677" y="398" type="qcurve" name="sv01"/>
      <point x="705" y="398"/>
      <point x="757" y="380"/>
      <point x="777" y="357" type="qcurve"/>
      <point x="793" y="340"/>
      <point x="812" y="289"/>
      <point x="812" y="254" type="qcurve" name="dh02"/>
      <point x="812" y="171"/>
      <point x="750" y="114" type="qcurve"/>
      <point x="722" y="88"/>
      <point x="654" y="60"/>
    </contour>
  </outline>
</glyph>
<glyph name="semicolon" format="1">
  <advance width="1233"/>
  <unicode hex="003B"/>
  <outline>
    <contour>
      <point x="723" y="713" type="qcurve" name="dv01"/>
      <point x="652" y="713"/>
      <point x="611" y="763" type="qcurve"/>
      <point x="579" y="801"/>
      <point x="579" y="856" type="qcurve"/>
      <point x="579" y="865"/>
      <point x="581" y="883"/>
      <point x="583" y="892" type="qcurve"/>
      <point x="590" y="934"/>
      <point x="626" y="997"/>
      <point x="652" y="1019" type="qcurve"/>
      <point x="678" y="1042"/>
      <point x="744" y="1068"/>
      <point x="779" y="1068" type="qcurve" name="dv02"/>
      <point x="814" y="1068"/>
      <point x="873" y="1043"/>
      <point x="893" y="1020" type="qcurve"/>
      <point x="926" y="982"/>
      <point x="926" y="926" type="qcurve"/>
      <point x="926" y="910"/>
      <point x="923" y="892" type="qcurve"/>
      <point x="908" y="812"/>
      <point x="852" y="763" type="qcurve"/>
      <point x="826" y="740"/>
      <point x="761" y="713"/>
    </contour>
    <contour>
      <point x="339" y="-351" type="line"/>
      <point x="614" y="-237"/>
      <point x="659" y="0" type="qcurve" name="ab01"/>
      <point x="645" y="-3"/>
      <point x="627" y="-5"/>
      <point x="617" y="-5" type="qcurve" name="ab02"/>
      <point x="584" y="-5"/>
      <point x="528" y="16"/>
      <point x="508" y="36" type="qcurve"/>
      <point x="478" y="67"/>
      <point x="478" y="120" type="qcurve"/>
      <point x="478" y="129" type="line"/>
      <point x="478" y="134"/>
      <point x="479" y="146"/>
      <point x="480" y="153" type="qcurve"/>
      <point x="486" y="188"/>
      <point x="518" y="246"/>
      <point x="547" y="269" type="qcurve"/>
      <point x="576" y="292"/>
      <point x="640" y="312"/>
      <point x="672" y="312" type="qcurve" name="sv01"/>
      <point x="763" y="312"/>
      <point x="802" y="241" type="qcurve"/>
      <point x="815" y="218"/>
      <point x="827" y="160"/>
      <point x="827" y="132" type="qcurve"/>
      <point x="827" y="115"/>
      <point x="823" y="65"/>
      <point x="820" y="44" type="qcurve"/>
      <point x="806" y="-48"/>
      <point x="731" y="-205"/>
      <point x="674" y="-267" type="qcurve"/>
      <point x="618" y="-328"/>
      <point x="462" y="-429"/>
      <point x="371" y="-460" type="qcurve" name="av01"/>
    </contour>
  </outline>
</glyph>
<glyph name="less" format="1">
  <advance width="1233"/>
  <unicode hex="003C"/>
  <outline>
    <contour>
      <point x="88" y="559" type="line" name="hr00"/>
      <point x="88" y="725" type="line"/>
      <point x="1145" y="1143" type="line" name="at01"/>
      <point x="1145" y="961" type="line"/>
      <point x="295" y="641" type="line" name="iv01"/>
      <point x="1145" y="324" type="line"/>
      <point x="1145" y="141" type="line" name="av01"/>
    </contour>
  </outline>
</glyph>
<glyph name="at" format="1">
  <advance width="1233"/>
  <unicode hex="0040"/>
  <outline>
    <contour>
      <point x="607" y="-317" type="qcurve" name="dv01"/>
      <point x="456" y="-317"/>
      <point x="224" y="-217"/>
      <point x="144" y="-129" type="qcurve"/>
      <point x="57" y="-34"/>
      <point x="-29" y="226"/>
      <point x="-29" y="379" type="qcurve" name="dh01"/>
      <point x="-29" y="476"/>
      <point x="6" y="678"/>
      <point x="43" y="781" type="qcurve"/>
      <point x="77" y="875"/>
      <point x="175" y="1052"/>
      <point x="238" y="1125" type="qcurve"/>
      <point x="290" y="1186"/>
      <point x="420" y="1290"/>
      <point x="495" y="1326" type="qcurve"/>
      <point x="567" y="1361"/>
      <point x="721" y="1397"/>
      <point x="800" y="1397" type="qcurve" name="dv04"/>
      <point x="895" y="1397"/>
      <point x="1047" y="1345"/>
      <point x="1102" y="1294" type="qcurve"/>
      <point x="1159" y="1241"/>
      <point x="1214" y="1099"/>
      <point x="1214" y="1015" type="qcurve" name="dh06"/>
      <point x="1214" y="1001"/>
      <point x="1212" y="963"/>
      <point x="1210" y="944" type="qcurve" name="sh01"/>
      <point x="1208" y="925"/>
      <point x="1201" y="881"/>
      <point x="1196" y="858" type="qcurve"/>
      <point x="1059" y="135" type="line"/>
      <point x="915" y="135" type="line"/>
      <point x="936" y="246" type="line" name="ih01"/>
      <point x="910" y="214"/>
      <point x="847" y="165"/>
      <point x="814" y="149" type="qcurve"/>
      <point x="779" y="132"/>
      <point x="702" y="115"/>
      <point x="662" y="115" type="qcurve" name="dv05"/>
      <point x="591" y="115"/>
      <point x="487" y="164"/>
      <point x="448" y="207" type="qcurve"/>
      <point x="406" y="253"/>
      <point x="365" y="370"/>
      <point x="365" y="451" type="qcurve" name="dh03"/>
      <point x="365" y="554"/>
      <point x="431" y="742"/>
      <point x="497" y="821" type="qcurve"/>
      <point x="560" y="896"/>
      <point x="716" y="977"/>
      <point x="810" y="977" type="qcurve" name="dv08"/>
      <point x="895" y="977"/>
      <point x="960" y="941" type="qcurve"/>
      <point x="1025" y="905"/>
      <point x="1053" y="844" type="qcurve" name="ih02"/>
      <point x="1061" y="887" type="line"/>
      <point x="1063" y="899"/>
      <point x="1068" y="935"/>
      <point x="1070" y="948" type="qcurve"/>
      <point x="1072" y="961"/>
      <point x="1073" y="981"/>
      <point x="1073" y="993" type="qcurve" name="dh05"/>
      <point x="1073" y="1052"/>
      <point x="1037" y="1150"/>
      <point x="1000" y="1185" type="qcurve"/>
      <point x="927" y="1255"/>
      <point x="796" y="1255" type="qcurve" name="dv03"/>
      <point x="724" y="1255"/>
      <point x="589" y="1215"/>
      <point x="524" y="1177" type="qcurve"/>
      <point x="461" y="1139"/>
      <point x="347" y="1031"/>
      <point x="297" y="957" type="qcurve"/>
      <point x="257" y="897"/>
      <point x="192" y="758"/>
      <point x="169" y="682" type="qcurve"/>
      <point x="148" y="610"/>
      <point x="125" y="455"/>
      <point x="125" y="377" type="qcurve" name="dh02"/>
      <point x="125" y="249"/>
      <point x="189" y="44"/>
      <point x="253" y="-29" type="qcurve"/>
      <point x="316" y="-101"/>
      <point x="495" y="-176"/>
      <point x="603" y="-176" type="qcurve" name="dv02"/>
      <point x="633" y="-176"/>
      <point x="697" y="-170"/>
      <point x="725" y="-164" type="qcurve"/>
      <point x="746" y="-159"/>
      <point x="810" y="-141"/>
      <point x="852" y="-125" type="qcurve"/>
      <point x="897" y="-256" type="line"/>
      <point x="859" y="-274"/>
      <point x="791" y="-295"/>
      <point x="760" y="-302" type="qcurve"/>
      <point x="689" y="-317"/>
    </contour>
    <contour>
      <point x="710" y="260" type="qcurve" name="dv06"/>
      <point x="773" y="260"/>
      <point x="881" y="316"/>
      <point x="922" y="366" type="qcurve"/>
      <point x="962" y="415"/>
      <point x="1008" y="545"/>
      <point x="1008" y="618" type="qcurve"/>
      <point x="1008" y="667"/>
      <point x="984" y="745"/>
      <point x="958" y="774" type="qcurve"/>
      <point x="908" y="829"/>
      <point x="820" y="829" type="qcurve" name="dv07"/>
      <point x="760" y="829"/>
      <point x="652" y="777"/>
      <point x="610" y="726" type="qcurve"/>
      <point x="568" y="675"/>
      <point x="524" y="544"/>
      <point x="524" y="474" type="qcurve" name="dh04"/>
      <point x="524" y="426"/>
      <point x="548" y="344"/>
      <point x="574" y="315" type="qcurve"/>
      <point x="624" y="260"/>
    </contour>
  </outline>
</glyph>
<glyph name="B" format="1">
  <advance width="1233"/>
  <unicode hex="0042"/>
  <outline>
    <contour>
      <point x="313" y="1493" type="line" name="at01"/>
      <point x="756" y="1493" type="line"/>
      <point x="960" y="1493"/>
      <point x="1063" y="1414" type="qcurve"/>
      <point x="1115" y="1374"/>
      <point x="1167" y="1258"/>
      <point x="1167" y="1178" type="qcurve" name="sh01"/>
      <point x="1167" y="1027"/>
      <point x="1075" y="923" type="qcurve"/>
      <point x="983" y="818"/>
      <point x="827" y="799" type="qcurve" name="iv01"/>
      <point x="951" y="776"/>
      <point x="1019" y="697" type="qcurve" name="hr01"/>
      <point x="1053" y="657"/>
      <point x="1085" y="555"/>
      <point x="1085" y="486" type="qcurve" name="dh02"/>
      <point x="1085" y="377"/>
      <point x="1006" y="196"/>
      <point x="926" y="130" type="qcurve"/>
      <point x="767" y="0"/>
      <point x="475" y="0" type="qcurve" name="ab01"/>
      <point x="23" y="0" type="line"/>
    </contour>
    <contour>
      <point x="639" y="877" type="line" name="dv02"/>
      <point x="791" y="877"/>
      <point x="877" y="950" type="qcurve"/>
      <point x="963" y="1022"/>
      <point x="963" y="1148" type="qcurve" name="ih01"/>
      <point x="963" y="1243"/>
      <point x="908" y="1285" type="qcurve"/>
      <point x="852" y="1327"/>
      <point x="727" y="1327" type="qcurve" name="sv01"/>
      <point x="483" y="1327" type="line"/>
      <point x="395" y="877" type="line"/>
    </contour>
    <contour>
      <point x="506" y="166" type="line" name="sv02"/>
      <point x="690" y="166"/>
      <point x="788" y="253" type="qcurve"/>
      <point x="837" y="297"/>
      <point x="885" y="423"/>
      <point x="885" y="496" type="qcurve" name="dh01"/>
      <point x="885" y="559"/>
      <point x="851" y="636"/>
      <point x="817" y="662" type="qcurve"/>
      <point x="749" y="713"/>
      <point x="606" y="713" type="qcurve" name="dv01"/>
      <point x="365" y="713" type="line"/>
      <point x="258" y="166" type="line"/>
    </contour>
  </outline>
</glyph>
<glyph name="P" format="1">
  <advance width="1233"/>
  <unicode hex="0050"/>
  <outline>
    <contour>
      <point x="321" y="1493" type="line" name="at01"/>
      <point x="761" y="1493" type="line"/>
      <point x="864" y="1493"/>
      <point x="1022" y="1446"/>
      <point x="1076" y="1401" type="qcurve"/>
      <point x="1130" y="1356"/>
      <point x="1183" y="1221"/>
      <point x="1183" y="1126" type="qcurve" name="dh02"/>
      <point x="1183" y="1006"/>
      <point x="1101" y="812"/>
      <point x="1023" y="743" type="qcurve"/>
      <point x="945" y="674"/>
      <point x="728" y="600"/>
      <point x="583" y="600" type="qcurve" name="dv01"/>
      <point x="350" y="600" type="line"/>
      <point x="233" y="0" type="line" name="ab01"/>
      <point x="30" y="0" type="line"/>
    </contour>
    <contour>
      <point x="616" y="766" type="line" name="dv02"/>
      <point x="781" y="766"/>
      <point x="880" y="862" type="qcurve"/>
      <point x="929" y="910"/>
      <point x="978" y="1037"/>
      <point x="978" y="1111" type="qcurve" name="dh01"/>
      <point x="978" y="1164"/>
      <point x="950" y="1248"/>
      <point x="916" y="1276" type="qcurve"/>
      <point x="854" y="1327"/>
      <point x="724" y="1327" type="qcurve" name="sv01"/>
      <point x="491" y="1327" type="line"/>
      <point x="382" y="766" type="line"/>
    </contour>
  </outline>
</glyph>
<glyph name="Q" format="1">
  <advance width="1233"/>
  <unicode hex="0051"/>
  <outline>
    <contour>
      <point x="504" y="-27" type="line" name="ab01"/>
      <point x="494" y="-27" type="line"/>
      <point x="383" y="-27"/>
      <point x="231" y="33"/>
      <point x="181" y="93" type="qcurve"/>
      <point x="131" y="153"/>
      <point x="82" y="338"/>
      <point x="82" y="472" type="qcurve" name="sh01"/>
      <point x="82" y="538"/>
      <point x="93" y="649"/>
      <point x="104" y="712" type="qcurve"/>
      <point x="109" y="743"/>
      <point x="121" y="802"/>
      <point x="136" y="865"/>
      <point x="155" y="934"/>
      <point x="168" y="975" type="qcurve"/>
      <point x="184" y="1025"/>
      <point x="214" y="1103"/>
      <point x="231" y="1141" type="qcurve"/>
      <point x="238" y="1156"/>
      <point x="255" y="1190"/>
      <point x="274" y="1226"/>
      <point x="294" y="1259"/>
      <point x="303" y="1272" type="qcurve"/>
      <point x="341" y="1329"/>
      <point x="442" y="1428"/>
      <point x="501" y="1460" type="qcurve"/>
      <point x="557" y="1491"/>
      <point x="681" y="1520"/>
      <point x="753" y="1520" type="qcurve" name="at01"/>
      <point x="855" y="1520"/>
      <point x="1004" y="1460"/>
      <point x="1054" y="1397" type="qcurve"/>
      <point x="1102" y="1337"/>
      <point x="1151" y="1154"/>
      <point x="1151" y="1029" type="qcurve" name="sh02"/>
      <point x="1151" y="981"/>
      <point x="1144" y="886"/>
      <point x="1137" y="839" type="qcurve" name="sh03"/>
      <point x="1130" y="792"/>
      <point x="1108" y="685"/>
      <point x="1094" y="629" type="qcurve"/>
      <point x="1080" y="576"/>
      <point x="1047" y="468"/>
      <point x="1032" y="427" type="qcurve"/>
      <point x="1016" y="384"/>
      <point x="980" y="305"/>
      <point x="963" y="274" type="qcurve"/>
      <point x="941" y="235"/>
      <point x="880" y="150"/>
      <point x="839" y="111" type="qcurve"/>
      <point x="808" y="81"/>
      <point x="733" y="27"/>
      <point x="690" y="10" type="qcurve" name="ih01"/>
      <point x="926" y="-270" type="line" name="ih02"/>
      <point x="690" y="-270" type="line"/>
    </contour>
    <contour>
      <point x="498" y="135" type="qcurve" name="sv01"/>
      <point x="541" y="135"/>
      <point x="623" y="160"/>
      <point x="660" y="186" type="qcurve"/>
      <point x="700" y="215"/>
      <point x="757" y="291"/>
      <point x="778" y="331" type="qcurve"/>
      <point x="797" y="367"/>
      <point x="832" y="453"/>
      <point x="862" y="545"/>
      <point x="888" y="639"/>
      <point x="898" y="684" type="qcurve"/>
      <point x="921" y="787"/>
      <point x="944" y="986"/>
      <point x="944" y="1067" type="qcurve" name="ah01"/>
      <point x="944" y="1153"/>
      <point x="918" y="1256"/>
      <point x="892" y="1289" type="qcurve"/>
      <point x="866" y="1321"/>
      <point x="787" y="1356"/>
      <point x="734" y="1356" type="qcurve" name="sv02"/>
      <point x="690" y="1356"/>
      <point x="608" y="1331"/>
      <point x="572" y="1305" type="qcurve"/>
      <point x="537" y="1279"/>
      <point x="478" y="1205"/>
      <point x="455" y="1160" type="qcurve"/>
      <point x="420" y="1094"/>
      <point x="356" y="911"/>
      <point x="333" y="808" type="qcurve"/>
      <point x="310" y="708"/>
      <point x="287" y="513"/>
      <point x="287" y="429" type="qcurve" name="sh04"/>
      <point x="287" y="385"/>
      <point x="294" y="316"/>
      <point x="307" y="262"/>
      <point x="327" y="220"/>
      <point x="340" y="203" type="qcurve"/>
      <point x="369" y="167"/>
      <point x="450" y="135"/>
    </contour>
  </outline>
</glyph>
<glyph name="R" format="1">
  <advance width="1233"/>
  <unicode hex="0052"/>
  <outline>
    <contour>
      <point x="281" y="1493" type="line" name="at01"/>
      <point x="697" y="1493" type="line"/>
      <point x="903" y="1493"/>
      <point x="1018" y="1404" type="qcurve"/>
      <point x="1077" y="1358"/>
      <point x="1131" y="1229"/>
      <point x="1131" y="1144" type="qcurve" name="dh02"/>
      <point x="1131" y="1060"/>
      <point x="1080" y="908"/>
      <point x="1028" y="848" type="qcurve"/>
      <point x="977" y="789"/>
      <point x="837" y="716"/>
      <point x="746" y="705" type="qcurve" name="iv01"/>
      <point x="780" y="699"/>
      <point x="841" y="664"/>
      <point x="862" y="638" type="qcurve"/>
      <point x="882" y="613"/>
      <point x="931" y="502"/>
      <point x="959" y="408" type="qcurve"/>
      <point x="1080" y="0" type="line" name="ih01"/>
      <point x="879" y="0" type="line"/>
      <point x="773" y="377" type="line"/>
      <point x="729" y="532"/>
      <point x="675" y="582" type="qcurve"/>
      <point x="647" y="608"/>
      <point x="562" y="631"/>
      <point x="510" y="631" type="qcurve" name="dv01"/>
      <point x="318" y="631" type="line"/>
      <point x="195" y="0" type="line" name="ab01"/>
      <point x="-8" y="0" type="line"/>
    </contour>
    <contour>
      <point x="570" y="797" type="line" name="dv02"/>
      <point x="733" y="797"/>
      <point x="831" y="883" type="qcurve"/>
      <point x="928" y="968"/>
      <point x="928" y="1109" type="qcurve" name="dh01"/>
      <point x="928" y="1222"/>
      <point x="865" y="1275" type="qcurve"/>
      <point x="803" y="1327"/>
      <point x="666" y="1327" type="qcurve" name="sv01"/>
      <point x="453" y="1327" type="line"/>
      <point x="351" y="797" type="line"/>
    </contour>
  </outline>
</glyph>
<glyph name="S" format="1">
  <advance width="1233"/>
  <unicode hex="0053"/>
  <outline>
    <contour>
      <point x="435" y="-29" type="qcurve" name="dv01"/>
      <point x="377" y="-29"/>
      <point x="277" y="-17"/>
      <point x="226" y="-6" type="qcurve"/>
      <point x="123" y="17"/>
      <point x="25" y="61" type="qcurve"/>
      <point x="66" y="270" type="line"/>
      <point x="163" y="202"/>
      <point x="265" y="168" type="qcurve"/>
      <point x="316" y="151"/>
      <point x="421" y="135"/>
      <point x="475" y="135" type="qcurve" name="dv02"/>
      <point x="561" y="135"/>
      <point x="693" y="178"/>
      <point x="745" y="223" type="qcurve"/>
      <point x="848" y="311"/>
      <point x="848" y="444" type="qcurve" name="ah01"/>
      <point x="848" y="488"/>
      <point x="826" y="550"/>
      <point x="804" y="573" type="qcurve"/>
      <point x="778" y="599"/>
      <point x="693" y="638"/>
      <point x="627" y="659" type="qcurve"/>
      <point x="526" y="692" type="line"/>
      <point x="445" y="718"/>
      <point x="313" y="780"/>
      <point x="269" y="824" type="qcurve"/>
      <point x="232" y="861"/>
      <point x="195" y="956"/>
      <point x="195" y="1025" type="qcurve" name="sh01"/>
      <point x="195" y="1126"/>
      <point x="276" y="1309"/>
      <point x="360" y="1380" type="qcurve"/>
      <point x="443" y="1450"/>
      <point x="659" y="1520"/>
      <point x="783" y="1520" type="qcurve" name="at01"/>
      <point x="831" y="1520"/>
      <point x="917" y="1510"/>
      <point x="962" y="1500" type="qcurve"/>
      <point x="1008" y="1490"/>
      <point x="1097" y="1462"/>
      <point x="1147" y="1442" type="qcurve"/>
      <point x="1108" y="1237" type="line"/>
      <point x="1026" y="1296"/>
      <point x="940" y="1326" type="qcurve"/>
      <point x="853" y="1356"/>
      <point x="759" y="1356" type="qcurve" name="sv01"/>
      <point x="674" y="1356"/>
      <point x="538" y="1312"/>
      <point x="490" y="1274" type="qcurve"/>
      <point x="442" y="1236"/>
      <point x="387" y="1130"/>
      <point x="387" y="1068" type="qcurve" name="sh02"/>
      <point x="387" y="1029"/>
      <point x="411" y="972"/>
      <point x="436" y="950" type="qcurve"/>
      <point x="461" y="928"/>
      <point x="548" y="887"/>
      <point x="614" y="866" type="qcurve"/>
      <point x="735" y="827" type="line"/>
      <point x="820" y="800"/>
      <point x="934" y="738"/>
      <point x="974" y="694" type="qcurve"/>
      <point x="1012" y="652"/>
      <point x="1049" y="547"/>
      <point x="1049" y="473" type="qcurve" name="sh03"/>
      <point x="1049" y="363"/>
      <point x="967" y="178"/>
      <point x="883" y="109" type="qcurve"/>
      <point x="799" y="40"/>
      <point x="573" y="-29"/>
    </contour>
  </outline>
</glyph>
<glyph name="Y" format="1">
  <advance width="1233"/>
  <unicode hex="0059"/>
  <outline>
    <contour>
      <point x="508" y="670" type="line" name="hr00"/>
      <point x="195" y="1493" type="line" name="at01"/>
      <point x="397" y="1493" type="line"/>
      <point x="633" y="842" type="line" name="iv01"/>
      <point x="1130" y="1493" type="line" name="at02"/>
      <point x="1348" y="1493" type="line"/>
      <point x="713" y="670" type="line"/>
      <point x="584" y="0" type="line" name="ab01"/>
      <point x="377" y="0" type="line"/>
    </contour>
  </outline>
</glyph>
<glyph name="bracketright" format="1">
  <advance width="1233"/>
  <unicode hex="005D"/>
  <outline>
    <contour>
      <point x="366" y="-127" type="line" name="hr00"/>
      <point x="606" y="-127" type="line" name="dv02"/>
      <point x="862" y="1492" type="line" name="dv03"/>
      <point x="622" y="1492" type="line"/>
      <point x="645" y="1635" type="line"/>
      <point x="1069" y="1635" type="line" name="dv04"/>
      <point x="767" y="-270" type="line" name="dv01"/>
      <point x="343" y="-270" type="line"/>
    </contour>
  </outline>
</glyph>
<glyph name="b" format="1">
  <advance width="1233"/>
  <unicode hex="0062"/>
  <outline>
    <contour>
      <point x="535" y="-29" type="qcurve" name="dv01"/>
      <point x="438" y="-29"/>
      <point x="371" y="14" type="qcurve" name="ab01"/>
      <point x="305" y="57"/>
      <point x="270" y="141" type="qcurve" name="iv01"/>
      <point x="224" y="0" type="line" name="ab02"/>
      <point x="59" y="0" type="line"/>
      <point x="362" y="1556" type="line" name="at01"/>
      <point x="547" y="1556" type="line" name="hr01"/>
      <point x="434" y="977" type="line" name="iv02"/>
      <point x="495" y="1060"/>
      <point x="578" y="1104" type="qcurve"/>
      <point x="660" y="1147"/>
      <point x="763" y="1147" type="qcurve" name="at02"/>
      <point x="842" y="1147"/>
      <point x="972" y="1096"/>
      <point x="1018" y="1044" type="qcurve"/>
      <point x="1108" y="942"/>
      <point x="1108" y="748" type="qcurve" name="dh02"/>
      <point x="1108" y="682"/>
      <point x="1087" y="537"/>
      <point x="1067" y="465" type="qcurve"/>
      <point x="1048" y="398"/>
      <point x="993" y="272"/>
      <point x="954" y="213" type="qcurve"/>
      <point x="876" y="97"/>
      <point x="770" y="35" type="qcurve"/>
      <point x="714" y="3"/>
      <point x="596" y="-29"/>
    </contour>
    <contour>
      <point x="540" y="127" type="qcurve" name="dv02"/>
      <point x="623" y="127"/>
      <point x="691" y="172" type="qcurve"/>
      <point x="726" y="195"/>
      <point x="781" y="259"/>
      <point x="805" y="304" type="qcurve"/>
      <point x="830" y="350"/>
      <point x="870" y="459"/>
      <point x="883" y="513" type="qcurve"/>
      <point x="897" y="571"/>
      <point x="911" y="683"/>
      <point x="911" y="733" type="qcurve" name="dh01"/>
      <point x="911" y="795"/>
      <point x="888" y="894"/>
      <point x="861" y="929" type="qcurve"/>
      <point x="810" y="993"/>
      <point x="710" y="993" type="qcurve" name="sv01"/>
      <point x="666" y="993"/>
      <point x="589" y="969"/>
      <point x="557" y="947" type="qcurve"/>
      <point x="525" y="925"/>
      <point x="464" y="857"/>
      <point x="438" y="812" type="qcurve"/>
      <point x="412" y="766"/>
      <point x="375" y="666"/>
      <point x="361" y="611" type="qcurve"/>
      <point x="347" y="552"/>
      <point x="332" y="438"/>
      <point x="332" y="389" type="qcurve"/>
      <point x="332" y="326"/>
      <point x="357" y="229"/>
      <point x="385" y="194" type="qcurve"/>
      <point x="415" y="156"/>
      <point x="496" y="127"/>
    </contour>
  </outline>
</glyph>
<glyph name="c" format="1">
  <advance width="1233"/>
  <unicode hex="0063"/>
  <outline>
    <contour>
      <point x="597" y="-29" type="qcurve" name="dv01"/>
      <point x="482" y="-29"/>
      <point x="316" y="30"/>
      <point x="261" y="84" type="qcurve"/>
      <point x="203" y="141"/>
      <point x="146" y="306"/>
      <point x="146" y="412" type="qcurve" name="dh01"/>
      <point x="146" y="487"/>
      <point x="173" y="640"/>
      <point x="199" y="709" type="qcurve"/>
      <point x="225" y="778"/>
      <point x="299" y="900"/>
      <point x="344" y="950" type="qcurve"/>
      <point x="392" y="1003"/>
      <point x="501" y="1077"/>
      <point x="549" y="1098" type="qcurve"/>
      <point x="659" y="1147"/>
      <point x="794" y="1147" type="qcurve" name="at01"/>
      <point x="882" y="1147"/>
      <point x="965" y="1126" type="qcurve"/>
      <point x="1003" y="1116"/>
      <point x="1087" y="1083"/>
      <point x="1127" y="1061" type="qcurve"/>
      <point x="1090" y="879" type="line"/>
      <point x="1025" y="937"/>
      <point x="954" y="964" type="qcurve"/>
      <point x="883" y="991"/>
      <point x="800" y="991" type="qcurve" name="sv01"/>
      <point x="689" y="991"/>
      <point x="604" y="947" type="qcurve"/>
      <point x="562" y="925"/>
      <point x="489" y="858"/>
      <point x="459" y="813" type="qcurve"/>
      <point x="433" y="775"/>
      <point x="388" y="680"/>
      <point x="372" y="626" type="qcurve"/>
      <point x="340" y="518"/>
      <point x="340" y="418" type="qcurve" name="dh02"/>
      <point x="340" y="349"/>
      <point x="373" y="238"/>
      <point x="408" y="200" type="qcurve"/>
      <point x="440" y="165"/>
      <point x="541" y="127"/>
      <point x="615" y="127" type="qcurve" name="dv02"/>
      <point x="660" y="127"/>
      <point x="753" y="142"/>
      <point x="798" y="158" type="qcurve"/>
      <point x="845" y="175"/>
      <point x="931" y="223"/>
      <point x="969" y="252" type="qcurve"/>
      <point x="930" y="51" type="line"/>
      <point x="887" y="28"/>
      <point x="812" y="1"/>
      <point x="774" y="-8" type="qcurve"/>
      <point x="730" y="-19"/>
      <point x="645" y="-29"/>
    </contour>
  </outline>
</glyph>
<glyph name="d" format="1">
  <advance width="1233"/>
  <unicode hex="0064"/>
  <outline>
    <contour>
      <point x="462" y="-29" type="qcurve" name="dv01"/>
      <point x="377" y="-29"/>
      <point x="254" y="25"/>
      <point x="210" y="76" type="qcurve"/>
      <point x="164" y="129"/>
      <point x="119" y="274"/>
      <point x="119" y="374" type="qcurve" name="dh01"/>
      <point x="119" y="440"/>
      <point x="139" y="584"/>
      <point x="159" y="657" type="qcurve"/>
      <point x="180" y="733"/>
      <point x="236" y="858"/>
      <point x="268" y="909" type="qcurve"/>
      <point x="307" y="971"/>
      <point x="395" y="1058"/>
      <point x="445" y="1087" type="qcurve"/>
      <point x="495" y="1116"/>
      <point x="605" y="1147"/>
      <point x="668" y="1147" type="qcurve" name="at02"/>
      <point x="719" y="1147"/>
      <point x="803" y="1126"/>
      <point x="840" y="1104" type="qcurve"/>
      <point x="913" y="1060"/>
      <point x="954" y="977" type="qcurve" name="iv01"/>
      <point x="1069" y="1556" type="line" name="at01"/>
      <point x="1253" y="1556" type="line"/>
      <point x="950" y="0" type="line" name="ab01"/>
      <point x="786" y="0" type="line"/>
      <point x="793" y="141" type="line" name="iv02"/>
      <point x="729" y="58"/>
      <point x="646" y="14" type="qcurve" name="ab02"/>
      <point x="564" y="-29"/>
    </contour>
    <contour>
      <point x="518" y="127" type="qcurve" name="dv02"/>
      <point x="603" y="127"/>
      <point x="672" y="172" type="qcurve"/>
      <point x="707" y="195"/>
      <point x="763" y="260"/>
      <point x="788" y="305" type="qcurve"/>
      <point x="837" y="392"/>
      <point x="865" y="508" type="qcurve"/>
      <point x="879" y="564"/>
      <point x="893" y="677"/>
      <point x="893" y="727" type="qcurve"/>
      <point x="893" y="859"/>
      <point x="840" y="924" type="qcurve"/>
      <point x="815" y="955"/>
      <point x="736" y="991"/>
      <point x="682" y="991" type="qcurve" name="sv01"/>
      <point x="640" y="991"/>
      <point x="562" y="968"/>
      <point x="531" y="948" type="qcurve"/>
      <point x="499" y="927"/>
      <point x="440" y="859"/>
      <point x="417" y="817" type="qcurve"/>
      <point x="395" y="777"/>
      <point x="356" y="670"/>
      <point x="342" y="613" type="qcurve"/>
      <point x="328" y="556"/>
      <point x="315" y="439"/>
      <point x="315" y="388" type="qcurve" name="dh02"/>
      <point x="315" y="319"/>
      <point x="340" y="223"/>
      <point x="366" y="191" type="qcurve"/>
      <point x="417" y="127"/>
    </contour>
  </outline>
</glyph>
<glyph name="e" format="1">
  <advance width="1233"/>
  <unicode hex="0065"/>
  <outline>
    <contour>
      <point x="558" y="-29" type="qcurve" name="dv01"/>
      <point x="438" y="-29"/>
      <point x="269" y="29"/>
      <point x="213" y="83" type="qcurve"/>
      <point x="98" y="195"/>
      <point x="98" y="410" type="qcurve" name="sh01"/>
      <point x="98" y="564"/>
      <point x="158" y="714" type="qcurve"/>
      <point x="218" y="864"/>
      <point x="324" y="973" type="qcurve"/>
      <point x="369" y="1020"/>
      <point x="459" y="1082"/>
      <point x="508" y="1104" type="qcurve"/>
      <point x="559" y="1127"/>
      <point x="662" y="1149"/>
      <point x="719" y="1149" type="qcurve" name="dv04"/>
      <point x="814" y="1149"/>
      <point x="962" y="1089"/>
      <point x="1015" y="1035" type="qcurve"/>
      <point x="1070" y="978"/>
      <point x="1126" y="821"/>
      <point x="1126" y="729" type="qcurve" name="sh02"/>
      <point x="1126" y="708"/>
      <point x="1123" y="670"/>
      <point x="1121" y="645" type="qcurve" name="sh03"/>
      <point x="1119" y="629"/>
      <point x="1112" y="564"/>
      <point x="1104" y="516" type="qcurve" name="dv05"/>
      <point x="297" y="516" type="line" name="sh05"/>
      <point x="291" y="486"/>
      <point x="288" y="458" type="qcurve" name="sh06"/>
      <point x="285" y="432"/>
      <point x="285" y="409" type="qcurve" name="sh04"/>
      <point x="285" y="274"/>
      <point x="362" y="200" type="qcurve"/>
      <point x="400" y="163"/>
      <point x="512" y="127"/>
      <point x="584" y="127" type="qcurve" name="dv02"/>
      <point x="631" y="127"/>
      <point x="726" y="142"/>
      <point x="779" y="156" type="qcurve"/>
      <point x="884" y="185"/>
      <point x="997" y="240" type="qcurve" name="ih01"/>
      <point x="961" y="57" type="line" name="sh07"/>
      <point x="904" y="34"/>
      <point x="808" y="4"/>
      <point x="756" y="-7" type="qcurve"/>
      <point x="706" y="-18"/>
      <point x="612" y="-29"/>
    </contour>
    <contour>
      <point x="938" y="659" type="line" name="sh08"/>
      <point x="941" y="673"/>
      <point x="945" y="695"/>
      <point x="946" y="704" type="qcurve" name="sh09"/>
      <point x="947" y="712"/>
      <point x="948" y="729"/>
      <point x="948" y="741" type="qcurve" name="ah01"/>
      <point x="948" y="856"/>
      <point x="883" y="924" type="qcurve"/>
      <point x="851" y="958"/>
      <point x="760" y="991"/>
      <point x="706" y="991" type="qcurve" name="dv03"/>
      <point x="646" y="991"/>
      <point x="530" y="949"/>
      <point x="477" y="901" type="qcurve"/>
      <point x="431" y="859"/>
      <point x="354" y="737"/>
      <point x="332" y="659" type="qcurve"/>
    </contour>
  </outline>
</glyph>
<glyph name="g" format="1">
  <advance width="1233"/>
  <unicode hex="0067"/>
  <outline>
    <contour>
      <point x="376" y="-440" type="qcurve" name="dv01"/>
      <point x="333" y="-440"/>
      <point x="254" y="-433"/>
      <point x="214" y="-426" type="qcurve"/>
      <point x="136" y="-413"/>
      <point x="59" y="-385" type="qcurve"/>
      <point x="96" y="-203" type="line"/>
      <point x="136" y="-226"/>
      <point x="208" y="-259"/>
      <point x="248" y="-270" type="qcurve"/>
      <point x="328" y="-293"/>
      <point x="406" y="-293" type="qcurve" name="dv02"/>
      <point x="554" y="-293"/>
      <point x="637" y="-213" type="qcurve"/>
      <point x="679" y="-173"/>
      <point x="736" y="-43"/>
      <point x="756" y="53" type="qcurve"/>
      <point x="780" y="170" type="line" name="iv01"/>
      <point x="721" y="83"/>
      <point x="635" y="38" type="qcurve"/>
      <point x="590" y="15"/>
      <point x="494" y="-8"/>
      <point x="443" y="-8" type="qcurve" name="ab01"/>
      <point x="364" y="-8"/>
      <point x="237" y="46"/>
      <point x="192" y="99" type="qcurve"/>
      <point x="146" y="153"/>
      <point x="102" y="304"/>
      <point x="102" y="398" type="qcurve" name="dh01"/>
      <point x="102" y="461"/>
      <point x="122" y="599"/>
      <point x="142" y="668" type="qcurve"/>
      <point x="181" y="803"/>
      <point x="254" y="911" type="qcurve"/>
      <point x="294" y="971"/>
      <point x="380" y="1054"/>
      <point x="432" y="1085" type="qcurve"/>
      <point x="536" y="1147"/>
      <point x="648" y="1147" type="qcurve" name="at01"/>
      <point x="747" y="1147"/>
      <point x="824" y="1099" type="qcurve"/>
      <point x="859" y="1076"/>
      <point x="916" y="1010"/>
      <point x="934" y="965" type="qcurve" name="iv02"/>
      <point x="981" y="1116" type="line"/>
      <point x="1145" y="1116" type="line"/>
      <point x="942" y="72" type="line"/>
      <point x="889" y="-200"/>
      <point x="756" y="-320" type="qcurve"/>
      <point x="622" y="-440"/>
    </contour>
    <contour>
      <point x="513" y="145" type="qcurve" name="sv01"/>
      <point x="551" y="145"/>
      <point x="623" y="167"/>
      <point x="658" y="190" type="qcurve"/>
      <point x="723" y="234"/>
      <point x="770" y="319" type="qcurve"/>
      <point x="796" y="365"/>
      <point x="836" y="474"/>
      <point x="847" y="521" type="qcurve"/>
      <point x="861" y="576"/>
      <point x="874" y="688"/>
      <point x="874" y="733" type="qcurve"/>
      <point x="874" y="859"/>
      <point x="818" y="925" type="qcurve"/>
      <point x="790" y="958"/>
      <point x="712" y="991"/>
      <point x="664" y="991" type="qcurve" name="sv02"/>
      <point x="580" y="991"/>
      <point x="449" y="899"/>
      <point x="402" y="823" type="qcurve"/>
      <point x="352" y="742"/>
      <point x="297" y="529"/>
      <point x="297" y="421" type="qcurve" name="dh02"/>
      <point x="297" y="338"/>
      <point x="328" y="241"/>
      <point x="353" y="212" type="qcurve"/>
      <point x="382" y="180"/>
      <point x="464" y="145"/>
    </contour>
  </outline>
</glyph>
<glyph name="h" format="1">
  <advance width="1233"/>
  <unicode hex="0068"/>
  <outline>
    <contour>
      <point x="387" y="1556" type="line" name="at01"/>
      <point x="571" y="1556" type="line"/>
      <point x="455" y="952" type="line" name="iv01"/>
      <point x="529" y="1048"/>
      <point x="618" y="1098" type="qcurve"/>
      <point x="661" y="1122"/>
      <point x="751" y="1147"/>
      <point x="807" y="1147" type="qcurve" name="at02"/>
      <point x="873" y="1147"/>
      <point x="981" y="1111"/>
      <point x="1019" y="1075" type="qcurve"/>
      <point x="1057" y="1040"/>
      <point x="1096" y="937"/>
      <point x="1096" y="877" type="qcurve" name="dh02"/>
      <point x="1096" y="860"/>
      <point x="1093" y="813"/>
      <point x="1091" y="793" type="qcurve" name="sh01"/>
      <point x="1089" y="773"/>
      <point x="1082" y="729"/>
      <point x="1075" y="694" type="qcurve"/>
      <point x="940" y="0" type="line" name="ab01"/>
      <point x="756" y="0" type="line"/>
      <point x="891" y="695" type="line"/>
      <point x="894" y="704"/>
      <point x="892" y="703"/>
      <point x="894" y="709" type="qcurve"/>
      <point x="898" y="730"/>
      <point x="903" y="759"/>
      <point x="907" y="783"/>
      <point x="909" y="804"/>
      <point x="909" y="817" type="qcurve" name="dh01"/>
      <point x="909" y="861"/>
      <point x="886" y="922"/>
      <point x="863" y="944" type="qcurve"/>
      <point x="817" y="987"/>
      <point x="730" y="987" type="qcurve" name="sv01"/>
      <point x="601" y="987"/>
      <point x="513" y="894" type="qcurve"/>
      <point x="424" y="800"/>
      <point x="391" y="633" type="qcurve"/>
      <point x="268" y="0" type="line" name="ab02"/>
      <point x="84" y="0" type="line"/>
    </contour>
  </outline>
</glyph>
<glyph name="i" format="1">
  <advance width="1233"/>
  <unicode hex="0069"/>
  <outline>
    <contour>
      <point x="627" y="1323" type="line" name="sv01"/>
      <point x="612" y="1323"/>
      <point x="597" y="1341"/>
      <point x="600" y="1356" type="qcurve"/>
      <point x="634" y="1529" type="line"/>
      <point x="638" y="1556"/>
      <point x="666" y="1556" type="qcurve" name="at01"/>
      <point x="790" y="1556" type="line"/>
      <point x="805" y="1556"/>
      <point x="820" y="1538"/>
      <point x="817" y="1523" type="qcurve"/>
      <point x="783" y="1350" type="line"/>
      <point x="778" y="1323"/>
      <point x="751" y="1323" type="qcurve"/>
    </contour>
    <contour>
      <point x="749" y="-4" type="line" name="ab01"/>
      <point x="575" y="-4"/>
      <point x="492" y="60" type="qcurve"/>
      <point x="407" y="124"/>
      <point x="407" y="252" type="qcurve" name="dh01"/>
      <point x="407" y="269"/>
      <point x="410" y="302"/>
      <point x="412" y="322" type="qcurve" name="sh01"/>
      <point x="414" y="342"/>
      <point x="421" y="386"/>
      <point x="426" y="408" type="qcurve"/>
      <point x="559" y="976" type="line" name="sv02"/>
      <point x="313" y="976" type="line"/>
      <point x="342" y="1120" type="line" name="at02"/>
      <point x="772" y="1120" type="line"/>
      <point x="610" y="404" type="line"/>
      <point x="606" y="388"/>
      <point x="601" y="350"/>
      <point x="600" y="342" type="qcurve"/>
      <point x="598" y="326"/>
      <point x="596" y="307"/>
      <point x="596" y="297" type="qcurve" name="dh02"/>
      <point x="596" y="223"/>
      <point x="640" y="188" type="qcurve"/>
      <point x="685" y="152"/>
      <point x="776" y="152" type="qcurve" name="sv03"/>
      <point x="987" y="152" type="line"/>
      <point x="956" y="-4" type="line"/>
    </contour>
  </outline>
</glyph>
<glyph name="j" format="1">
  <advance width="1233"/>
  <unicode hex="006A"/>
  <outline>
    <contour>
      <point x="811" y="1323" type="line" name="sv01"/>
      <point x="796" y="1323"/>
      <point x="781" y="1341"/>
      <point x="784" y="1356" type="qcurve"/>
      <point x="818" y="1529" type="line"/>
      <point x="822" y="1556"/>
      <point x="850" y="1556" type="qcurve" name="at01"/>
      <point x="974" y="1556" type="line"/>
      <point x="989" y="1556"/>
      <point x="1004" y="1538"/>
      <point x="1001" y="1523" type="qcurve"/>
      <point x="967" y="1350" type="line"/>
      <point x="962" y="1323"/>
      <point x="935" y="1323" type="qcurve"/>
    </contour>
    <contour>
      <point x="55" y="-270" type="line"/>
      <point x="288" y="-270" type="line" name="dv02"/>
      <point x="333" y="-270"/>
      <point x="410" y="-241"/>
      <point x="438" y="-211" type="qcurve"/>
      <point x="492" y="-153"/>
      <point x="518" y="-20" type="qcurve"/>
      <point x="710" y="977" type="line" name="sv02"/>
      <point x="393" y="977" type="line"/>
      <point x="421" y="1120" type="line" name="at02"/>
      <point x="923" y="1120" type="line"/>
      <point x="702" y="-20" type="line"/>
      <point x="683" y="-117"/>
      <point x="615" y="-277"/>
      <point x="560" y="-330" type="qcurve"/>
      <point x="459" y="-426"/>
      <point x="278" y="-426" type="qcurve" name="dv01"/>
      <point x="24" y="-426" type="line"/>
    </contour>
  </outline>
</glyph>
<glyph name="l" format="1">
  <advance width="1233"/>
  <unicode hex="006C"/>
  <outline>
    <contour>
      <point x="739" y="-8" type="line" name="ab01"/>
      <point x="565" y="-8"/>
      <point x="482" y="56" type="qcurve"/>
      <point x="441" y="87"/>
      <point x="397" y="182"/>
      <point x="397" y="248" type="qcurve" name="dh01"/>
      <point x="397" y="265"/>
      <point x="400" y="299"/>
      <point x="402" y="318" type="qcurve" name="sh01"/>
      <point x="404" y="337"/>
      <point x="411" y="378"/>
      <point x="416" y="404" type="qcurve"/>
      <point x="627" y="1412" type="line" name="sv01"/>
      <point x="311" y="1412" type="line"/>
      <point x="340" y="1556" type="line" name="at01"/>
      <point x="840" y="1556" type="line"/>
      <point x="600" y="400" type="line"/>
      <point x="596" y="382"/>
      <point x="593" y="360"/>
      <point x="592" y="347"/>
      <point x="592" y="342"/>
      <point x="592" y="340" type="qcurve" name="sh02"/>
      <point x="592" y="335"/>
      <point x="586" y="320"/>
      <point x="586" y="295" type="qcurve" name="dh02"/>
      <point x="586" y="219"/>
      <point x="630" y="184" type="qcurve"/>
      <point x="675" y="148"/>
      <point x="766" y="148" type="qcurve" name="sv02"/>
      <point x="977" y="148" type="line" name="sv03"/>
      <point x="946" y="-8" type="line" name="ab02"/>
    </contour>
  </outline>
</glyph>
<glyph name="n" format="1">
  <advance width="1233"/>
  <unicode hex="006E"/>
  <outline>
    <contour>
      <point x="303" y="1120" type="line" name="at01"/>
      <point x="467" y="1120" type="line" name="hr01"/>
      <point x="455" y="952" type="line" name="iv01"/>
      <point x="529" y="1048"/>
      <point x="618" y="1098" type="qcurve"/>
      <point x="661" y="1122"/>
      <point x="751" y="1147"/>
      <point x="807" y="1147" type="qcurve" name="at02"/>
      <point x="873" y="1147"/>
      <point x="981" y="1111"/>
      <point x="1019" y="1075" type="qcurve"/>
      <point x="1057" y="1040"/>
      <point x="1096" y="937"/>
      <point x="1096" y="877" type="qcurve" name="dh02"/>
      <point x="1096" y="860"/>
      <point x="1093" y="813"/>
      <point x="1091" y="793" type="qcurve" name="sh01"/>
      <point x="1089" y="773"/>
      <point x="1082" y="729"/>
      <point x="1075" y="694" type="qcurve"/>
      <point x="940" y="0" type="line" name="ab01"/>
      <point x="756" y="0" type="line"/>
      <point x="891" y="695" type="line"/>
      <point x="894" y="704"/>
      <point x="892" y="703"/>
      <point x="894" y="709" type="qcurve"/>
      <point x="898" y="730"/>
      <point x="903" y="759"/>
      <point x="907" y="783"/>
      <point x="909" y="804"/>
      <point x="909" y="817" type="qcurve" name="dh01"/>
      <point x="909" y="861"/>
      <point x="886" y="922"/>
      <point x="863" y="944" type="qcurve"/>
      <point x="817" y="987"/>
      <point x="730" y="987" type="qcurve" name="sv01"/>
      <point x="601" y="987"/>
      <point x="513" y="894" type="qcurve"/>
      <point x="424" y="800"/>
      <point x="391" y="633" type="qcurve"/>
      <point x="268" y="0" type="line" name="ab02"/>
      <point x="84" y="0" type="line"/>
    </contour>
  </outline>
</glyph>
<glyph name="p" format="1">
  <advance width="1233"/>
  <unicode hex="0070"/>
  <outline>
    <contour>
      <point x="299" y="1120" type="line" name="at01"/>
      <point x="463" y="1120" type="line" name="hr01"/>
      <point x="455" y="977" type="line" name="iv01"/>
      <point x="516" y="1059"/>
      <point x="602" y="1103" type="qcurve"/>
      <point x="688" y="1147"/>
      <point x="788" y="1147" type="qcurve" name="at02"/>
      <point x="864" y="1147"/>
      <point x="994" y="1097"/>
      <point x="1040" y="1043" type="qcurve"/>
      <point x="1085" y="991"/>
      <point x="1128" y="841"/>
      <point x="1128" y="744" type="qcurve" name="dh02"/>
      <point x="1128" y="680"/>
      <point x="1109" y="537"/>
      <point x="1089" y="465" type="qcurve"/>
      <point x="1068" y="388"/>
      <point x="1010" y="259"/>
      <point x="979" y="211" type="qcurve"/>
      <point x="941" y="151"/>
      <point x="853" y="63"/>
      <point x="802" y="32" type="qcurve"/>
      <point x="701" y="-29"/>
      <point x="578" y="-29" type="qcurve" name="dv01"/>
      <point x="478" y="-29"/>
      <point x="408" y="13" type="qcurve"/>
      <point x="336" y="56"/>
      <point x="293" y="141" type="qcurve" name="iv02"/>
      <point x="182" y="-426" type="line" name="av01"/>
      <point x="-2" y="-426" type="line"/>
    </contour>
    <contour>
      <point x="567" y="127" type="qcurve" name="dv02"/>
      <point x="610" y="127"/>
      <point x="686" y="151"/>
      <point x="718" y="172" type="qcurve"/>
      <point x="752" y="195"/>
      <point x="806" y="258"/>
      <point x="829" y="301" type="qcurve"/>
      <point x="853" y="346"/>
      <point x="893" y="455"/>
      <point x="906" y="509" type="qcurve"/>
      <point x="920" y="567"/>
      <point x="934" y="681"/>
      <point x="934" y="731" type="qcurve" name="dh01"/>
      <point x="934" y="804"/>
      <point x="907" y="899"/>
      <point x="883" y="928" type="qcurve"/>
      <point x="856" y="961"/>
      <point x="777" y="991"/>
      <point x="728" y="991" type="qcurve" name="sv01"/>
      <point x="645" y="991"/>
      <point x="576" y="946" type="qcurve"/>
      <point x="539" y="922"/>
      <point x="484" y="858"/>
      <point x="459" y="813" type="qcurve"/>
      <point x="433" y="767"/>
      <point x="395" y="664"/>
      <point x="382" y="611" type="qcurve"/>
      <point x="368" y="554"/>
      <point x="354" y="439"/>
      <point x="354" y="392" type="qcurve"/>
      <point x="354" y="323"/>
      <point x="382" y="226"/>
      <point x="409" y="194" type="qcurve"/>
      <point x="437" y="161"/>
      <point x="517" y="127"/>
    </contour>
  </outline>
</glyph>
<glyph name="q" format="1">
  <advance width="1233"/>
  <unicode hex="0071"/>
  <outline>
    <contour>
      <point x="774" y="141" type="line" name="iv01"/>
      <point x="712" y="57"/>
      <point x="631" y="14" type="qcurve"/>
      <point x="549" y="-29"/>
      <point x="446" y="-29" type="qcurve" name="dv01"/>
      <point x="365" y="-29"/>
      <point x="236" y="22"/>
      <point x="190" y="73" type="qcurve"/>
      <point x="146" y="122"/>
      <point x="98" y="270"/>
      <point x="98" y="372" type="qcurve" name="dh01"/>
      <point x="98" y="437"/>
      <point x="119" y="579"/>
      <point x="139" y="652" type="qcurve"/>
      <point x="159" y="722"/>
      <point x="215" y="852"/>
      <point x="252" y="909" type="qcurve"/>
      <point x="291" y="970"/>
      <point x="379" y="1057"/>
      <point x="432" y="1087" type="qcurve"/>
      <point x="537" y="1147"/>
      <point x="663" y="1147" type="qcurve" name="at02"/>
      <point x="720" y="1147"/>
      <point x="803" y="1125"/>
      <point x="834" y="1105" type="qcurve"/>
      <point x="902" y="1062"/>
      <point x="936" y="977" type="qcurve" name="iv02"/>
      <point x="983" y="1120" type="line" name="at01"/>
      <point x="1147" y="1120" type="line"/>
      <point x="848" y="-426" type="line" name="av01"/>
      <point x="664" y="-426" type="line"/>
    </contour>
    <contour>
      <point x="496" y="127" type="qcurve" name="dv02"/>
      <point x="581" y="127"/>
      <point x="650" y="173" type="qcurve"/>
      <point x="686" y="197"/>
      <point x="746" y="267"/>
      <point x="768" y="305" type="qcurve"/>
      <point x="816" y="389"/>
      <point x="845" y="508" type="qcurve"/>
      <point x="859" y="567"/>
      <point x="874" y="681"/>
      <point x="874" y="731" type="qcurve"/>
      <point x="874" y="794"/>
      <point x="849" y="892"/>
      <point x="821" y="926" type="qcurve"/>
      <point x="768" y="991"/>
      <point x="667" y="991" type="qcurve" name="sv01"/>
      <point x="583" y="991"/>
      <point x="515" y="947" type="qcurve"/>
      <point x="480" y="924"/>
      <point x="424" y="860"/>
      <point x="401" y="816" type="qcurve"/>
      <point x="376" y="770"/>
      <point x="338" y="663"/>
      <point x="324" y="607" type="qcurve"/>
      <point x="295" y="489"/>
      <point x="295" y="386" type="qcurve" name="dh02"/>
      <point x="295" y="255"/>
      <point x="346" y="191" type="qcurve"/>
      <point x="397" y="127"/>
    </contour>
  </outline>
</glyph>
<glyph name="r" format="1">
  <advance width="1233"/>
  <unicode hex="0072"/>
  <outline>
    <contour>
      <point x="404" y="1120" type="line" name="at01"/>
      <point x="568" y="1120" type="line" name="hr01"/>
      <point x="548" y="901" type="line" name="iv01"/>
      <point x="615" y="1021"/>
      <point x="722" y="1084" type="qcurve"/>
      <point x="828" y="1147"/>
      <point x="961" y="1147" type="qcurve" name="at03"/>
      <point x="996" y="1147"/>
      <point x="1064" y="1138"/>
      <point x="1092" y="1129" type="qcurve" name="at02"/>
      <point x="1117" y="1121"/>
      <point x="1168" y="1093"/>
      <point x="1189" y="1075" type="qcurve"/>
      <point x="1154" y="889" type="line" name="iv02"/>
      <point x="1131" y="911"/>
      <point x="1078" y="944"/>
      <point x="1050" y="955" type="qcurve"/>
      <point x="1020" y="966"/>
      <point x="952" y="977"/>
      <point x="917" y="977" type="qcurve" name="sv01"/>
      <point x="835" y="977"/>
      <point x="691" y="921"/>
      <point x="633" y="864" type="qcurve"/>
      <point x="575" y="807"/>
      <point x="497" y="647"/>
      <point x="478" y="549" type="qcurve"/>
      <point x="371" y="0" type="line" name="ab01"/>
      <point x="187" y="0" type="line"/>
    </contour>
  </outline>
</glyph>
<glyph name="s" format="1">
  <advance width="1233"/>
  <unicode hex="0073"/>
  <outline>
    <contour>
      <point x="477" y="-29" type="qcurve" name="dv01"/>
      <point x="429" y="-29"/>
      <point x="340" y="-20"/>
      <point x="302" y="-12" type="qcurve"/>
      <point x="257" y="-3"/>
      <point x="163" y="24"/>
      <point x="115" y="41" type="qcurve"/>
      <point x="152" y="231" type="line"/>
      <point x="200" y="205"/>
      <point x="290" y="165"/>
      <point x="335" y="152" type="qcurve"/>
      <point x="380" y="138"/>
      <point x="463" y="125"/>
      <point x="507" y="125" type="qcurve" name="dv02"/>
      <point x="639" y="125"/>
      <point x="723" y="185" type="qcurve"/>
      <point x="765" y="215"/>
      <point x="807" y="290"/>
      <point x="807" y="329" type="qcurve" name="ah01"/>
      <point x="807" y="355"/>
      <point x="787" y="400"/>
      <point x="741" y="439"/>
      <point x="666" y="472"/>
      <point x="611" y="487" type="qcurve"/>
      <point x="583" y="494" type="line"/>
      <point x="516" y="512" type="line"/>
      <point x="451" y="529"/>
      <point x="358" y="576"/>
      <point x="327" y="608" type="qcurve"/>
      <point x="266" y="672"/>
      <point x="266" y="780" type="qcurve" name="sh01"/>
      <point x="266" y="859"/>
      <point x="331" y="996"/>
      <point x="397" y="1047" type="qcurve"/>
      <point x="459" y="1095"/>
      <point x="638" y="1147"/>
      <point x="755" y="1147" type="qcurve" name="at01"/>
      <point x="798" y="1147"/>
      <point x="882" y="1139"/>
      <point x="923" y="1131" type="qcurve"/>
      <point x="964" y="1123"/>
      <point x="1040" y="1098"/>
      <point x="1077" y="1081" type="qcurve"/>
      <point x="1042" y="901" type="line"/>
      <point x="1007" y="924"/>
      <point x="928" y="959"/>
      <point x="893" y="970" type="qcurve"/>
      <point x="816" y="993"/>
      <point x="731" y="993" type="qcurve" name="sv01"/>
      <point x="669" y="993"/>
      <point x="563" y="968"/>
      <point x="525" y="942" type="qcurve"/>
      <point x="485" y="915"/>
      <point x="449" y="843"/>
      <point x="449" y="808" type="qcurve" name="sh02"/>
      <point x="449" y="772"/>
      <point x="484" y="722"/>
      <point x="544" y="686"/>
      <point x="624" y="658"/>
      <point x="670" y="645" type="qcurve"/>
      <point x="685" y="640"/>
      <point x="687" y="641"/>
      <point x="692" y="639" type="qcurve"/>
      <point x="764" y="621" type="line"/>
      <point x="815" y="608"/>
      <point x="907" y="562"/>
      <point x="939" y="529" type="qcurve"/>
      <point x="968" y="498"/>
      <point x="997" y="422"/>
      <point x="997" y="369" type="qcurve" name="sh03"/>
      <point x="997" y="284"/>
      <point x="923" y="136"/>
      <point x="853" y="82" type="qcurve"/>
      <point x="781" y="26"/>
      <point x="587" y="-29"/>
    </contour>
  </outline>
</glyph>
<glyph name="t" format="1">
  <advance width="1233"/>
  <unicode hex="0074"/>
  <outline>
    <contour>
      <point x="682" y="-4" type="line" name="ab01"/>
      <point x="593" y="-4"/>
      <point x="475" y="26"/>
      <point x="437" y="52" type="qcurve"/>
      <point x="397" y="80"/>
      <point x="358" y="162"/>
      <point x="358" y="222" type="qcurve" name="dh01"/>
      <point x="358" y="234"/>
      <point x="360" y="267"/>
      <point x="362" y="284" type="qcurve"/>
      <point x="364" y="297"/>
      <point x="370" y="339"/>
      <point x="375" y="365" type="qcurve"/>
      <point x="494" y="977" type="line" name="sv01"/>
      <point x="195" y="977" type="line" name="sv02"/>
      <point x="223" y="1120" type="line" name="at01"/>
      <point x="522" y="1120" type="line"/>
      <point x="584" y="1438" type="line" name="sv03"/>
      <point x="768" y="1438" type="line"/>
      <point x="707" y="1120" type="line" name="at02"/>
      <point x="1124" y="1120" type="line"/>
      <point x="1096" y="977" type="line" name="sv04"/>
      <point x="678" y="977" type="line" name="sv05"/>
      <point x="559" y="365" type="line"/>
      <point x="556" y="348"/>
      <point x="553" y="330"/>
      <point x="551" y="320"/>
      <point x="551" y="315"/>
      <point x="550" y="310" type="qcurve" name="sh01"/>
      <point x="547" y="284"/>
      <point x="547" y="263" type="qcurve" name="dh02"/>
      <point x="547" y="196"/>
      <point x="586" y="170" type="qcurve" name="hr01"/>
      <point x="625" y="143"/>
      <point x="727" y="143" type="qcurve" name="sv06"/>
      <point x="934" y="143" type="line" name="sv07"/>
      <point x="905" y="-4" type="line" name="ab02"/>
    </contour>
  </outline>
</glyph>
<glyph name="u" format="1">
  <advance width="1233"/>
  <unicode hex="0075"/>
  <outline>
    <contour>
      <point x="409" y="-27" type="qcurve" name="ab02"/>
      <point x="344" y="-27"/>
      <point x="239" y="9"/>
      <point x="201" y="46" type="qcurve"/>
      <point x="162" y="84"/>
      <point x="125" y="187"/>
      <point x="125" y="248" type="qcurve" name="dh01"/>
      <point x="125" y="266"/>
      <point x="128" y="309"/>
      <point x="130" y="332" type="qcurve" name="sh01"/>
      <point x="133" y="362"/>
      <point x="138" y="401"/>
      <point x="143" y="426" type="qcurve"/>
      <point x="276" y="1120" type="line" name="at01"/>
      <point x="461" y="1120" type="line"/>
      <point x="326" y="426" type="line"/>
      <point x="325" y="420"/>
      <point x="322" y="400"/>
      <point x="319" y="379"/>
      <point x="316" y="361"/>
      <point x="315" y="355" type="qcurve"/>
      <point x="313" y="338"/>
      <point x="311" y="308"/>
      <point x="311" y="298" type="qcurve" name="dh02"/>
      <point x="311" y="261"/>
      <point x="333" y="198"/>
      <point x="358" y="175" type="qcurve"/>
      <point x="381" y="154"/>
      <point x="448" y="133"/>
      <point x="489" y="133" type="qcurve" name="sv01"/>
      <point x="549" y="133"/>
      <point x="659" y="178"/>
      <point x="704" y="225" type="qcurve"/>
      <point x="749" y="273"/>
      <point x="809" y="406"/>
      <point x="825" y="487" type="qcurve"/>
      <point x="948" y="1120" type="line" name="at02"/>
      <point x="1133" y="1120" type="line"/>
      <point x="915" y="0" type="line" name="ab01"/>
      <point x="751" y="0" type="line"/>
      <point x="764" y="168" type="line" name="iv01"/>
      <point x="690" y="70"/>
      <point x="602" y="22" type="qcurve"/>
      <point x="555" y="-4"/>
      <point x="460" y="-27"/>
    </contour>
  </outline>
</glyph>
<glyph name="y" format="1">
  <advance width="1233"/>
  <unicode hex="0079"/>
  <outline>
    <contour>
      <point x="20" y="-272" type="line" name="hr00"/>
      <point x="128" y="-272" type="line" name="dv02"/>
      <point x="211" y="-272"/>
      <point x="268" y="-225" type="qcurve"/>
      <point x="330" y="-175"/>
      <point x="386" y="-66" type="qcurve"/>
      <point x="429" y="18" type="line"/>
      <point x="212" y="1120" type="line" name="at01"/>
      <point x="395" y="1120" type="line"/>
      <point x="567" y="258" type="line"/>
      <point x="1050" y="1120" type="line" name="at02"/>
      <point x="1255" y="1120" type="line"/>
      <point x="816" y="360" type="line"/>
      <point x="783" y="302"/>
      <point x="745" y="238"/>
      <point x="724" y="201"/>
      <point x="713" y="181"/>
      <point x="699" y="156"/>
      <point x="674" y="113"/>
      <point x="651" y="72" type="qcurve"/>
      <point x="600" y="-18"/>
      <point x="533" y="-134"/>
      <point x="488" y="-209"/>
      <point x="457" y="-255"/>
      <point x="442" y="-275" type="qcurve"/>
      <point x="415" y="-310"/>
      <point x="352" y="-369"/>
      <point x="310" y="-389" type="qcurve"/>
      <point x="236" y="-426"/>
      <point x="139" y="-426" type="qcurve" name="dv01"/>
      <point x="-9" y="-426" type="line"/>
    </contour>
  </outline>
</glyph>
<glyph name="braceright" format="1">
  <advance width="1233"/>
  <unicode hex="007D"/>
  <outline>
    <contour>
      <point x="64" y="-190" type="line"/>
      <point x="142" y="-190" type="line" name="dv02"/>
      <point x="279" y="-190"/>
      <point x="325" y="-150" type="qcurve"/>
      <point x="347" y="-131"/>
      <point x="385" y="-43"/>
      <point x="402" y="39" type="qcurve"/>
      <point x="453" y="291" type="line"/>
      <point x="468" y="366"/>
      <point x="512" y="483"/>
      <point x="546" y="524" type="qcurve"/>
      <point x="607" y="597"/>
      <point x="718" y="616" type="qcurve" name="ih01"/>
      <point x="644" y="636"/>
      <point x="604" y="686" type="qcurve"/>
      <point x="584" y="712"/>
      <point x="564" y="771"/>
      <point x="564" y="813" type="qcurve" name="dh01"/>
      <point x="564" y="825"/>
      <point x="566" y="852"/>
      <point x="568" y="870" type="qcurve" name="sh01"/>
      <point x="570" y="891"/>
      <point x="573" y="917"/>
      <point x="578" y="940" type="qcurve"/>
      <point x="625" y="1183" type="line" name="sh02"/>
      <point x="625" y="1185"/>
      <point x="628" y="1203"/>
      <point x="631" y="1224"/>
      <point x="634" y="1241"/>
      <point x="634" y="1243" type="qcurve" name="sh03"/>
      <point x="635" y="1255"/>
      <point x="636" y="1281"/>
      <point x="636" y="1290" type="qcurve" name="ih02"/>
      <point x="636" y="1356"/>
      <point x="594" y="1385" type="qcurve"/>
      <point x="551" y="1413"/>
      <point x="453" y="1413" type="qcurve" name="sv01"/>
      <point x="376" y="1413" type="line"/>
      <point x="402" y="1556" type="line" name="at01"/>
      <point x="476" y="1556" type="line"/>
      <point x="576" y="1556"/>
      <point x="706" y="1528"/>
      <point x="745" y="1502" type="qcurve"/>
      <point x="784" y="1476"/>
      <point x="826" y="1393"/>
      <point x="826" y="1320" type="qcurve" name="sh04"/>
      <point x="826" y="1306"/>
      <point x="824" y="1281"/>
      <point x="822" y="1259" type="qcurve" name="sh05"/>
      <point x="820" y="1240"/>
      <point x="817" y="1214"/>
      <point x="812" y="1188" type="qcurve"/>
      <point x="767" y="952" type="line"/>
      <point x="765" y="940" type="line"/>
      <point x="760" y="915"/>
      <point x="755" y="869"/>
      <point x="755" y="849" type="qcurve" name="dh02"/>
      <point x="755" y="760"/>
      <point x="804" y="723" type="qcurve"/>
      <point x="853" y="686"/>
      <point x="965" y="686" type="qcurve"/>
      <point x="1057" y="686" type="line" name="dv04"/>
      <point x="1028" y="539" type="line" name="dv03"/>
      <point x="937" y="539" type="line"/>
      <point x="794" y="539"/>
      <point x="730" y="484" type="qcurve"/>
      <point x="698" y="457"/>
      <point x="649" y="357"/>
      <point x="634" y="279" type="qcurve"/>
      <point x="587" y="35" type="line"/>
      <point x="575" y="-28"/>
      <point x="543" y="-125"/>
      <point x="525" y="-160" type="qcurve"/>
      <point x="489" y="-231"/>
      <point x="435" y="-270" type="qcurve"/>
      <point x="410" y="-288"/>
      <point x="354" y="-311"/>
      <point x="319" y="-319" type="qcurve"/>
      <point x="250" y="-334"/>
      <point x="118" y="-334" type="qcurve" name="dv01"/>
      <point x="36" y="-334" type="line"/>
    </contour>
  </outline>
</glyph>
<glyph name="cent" format="1">
  <advance width="1233"/>
  <unicode hex="00A2"/>
  <outline>
    <contour>
      <point x="510" y="-27" type="line" name="hr00"/>
      <point x="422" y="-18"/>
      <point x="276" y="53"/>
      <point x="225" y="113" type="qcurve"/>
      <point x="174" y="173"/>
      <point x="123" y="334"/>
      <point x="123" y="434" type="qcurve" name="dh01"/>
      <point x="123" y="522"/>
      <point x="163" y="697"/>
      <point x="204" y="778" type="qcurve"/>
      <point x="248" y="866"/>
      <point x="362" y="993"/>
      <point x="425" y="1036" type="qcurve"/>
      <point x="463" y="1062"/>
      <point x="538" y="1099"/>
      <point x="574" y="1112" type="qcurve"/>
      <point x="650" y="1139"/>
      <point x="737" y="1145" type="qcurve"/>
      <point x="793" y="1432" type="line" name="av01"/>
      <point x="895" y="1432" type="line"/>
      <point x="840" y="1145" type="line"/>
      <point x="898" y="1142"/>
      <point x="963" y="1125" type="qcurve"/>
      <point x="1027" y="1108"/>
      <point x="1087" y="1077" type="qcurve"/>
      <point x="1055" y="905" type="line" name="iv01"/>
      <point x="1005" y="943"/>
      <point x="945" y="965" type="qcurve"/>
      <point x="885" y="987"/>
      <point x="811" y="993" type="qcurve"/>
      <point x="641" y="123" type="line" name="iv02"/>
      <point x="673" y="125"/>
      <point x="741" y="140"/>
      <point x="776" y="151" type="qcurve"/>
      <point x="811" y="162"/>
      <point x="882" y="193"/>
      <point x="920" y="213" type="qcurve" name="iv03"/>
      <point x="887" y="41" type="line"/>
      <point x="867" y="32"/>
      <point x="825" y="17"/>
      <point x="786" y="5"/>
      <point x="754" y="-4"/>
      <point x="744" y="-7" type="qcurve"/>
      <point x="714" y="-15"/>
      <point x="644" y="-25"/>
      <point x="612" y="-27" type="qcurve"/>
      <point x="557" y="-313" type="line" name="av02"/>
      <point x="455" y="-313" type="line"/>
    </contour>
    <contour>
      <point x="709" y="991" type="line" name="iv04"/>
      <point x="544" y="976"/>
      <point x="430" y="812" type="qcurve"/>
      <point x="372" y="728"/>
      <point x="315" y="535"/>
      <point x="315" y="431" type="qcurve" name="dh02"/>
      <point x="315" y="356"/>
      <point x="345" y="254"/>
      <point x="374" y="216" type="qcurve"/>
      <point x="402" y="180"/>
      <point x="481" y="134"/>
      <point x="541" y="127" type="qcurve"/>
    </contour>
  </outline>
</glyph>
<glyph name="yen" format="1">
  <advance width="1233"/>
  <unicode hex="00A5"/>
  <outline>
    <contour>
      <point x="444" y="524" type="line" name="dv01"/>
      <point x="47" y="524" type="line"/>
      <point x="70" y="635" type="line"/>
      <point x="467" y="635" type="line" name="dv02"/>
      <point x="473" y="670" type="line"/>
      <point x="418" y="821" type="line" name="dv03"/>
      <point x="109" y="821" type="line"/>
      <point x="131" y="932" type="line"/>
      <point x="377" y="932" type="line" name="dv04"/>
      <point x="172" y="1493" type="line" name="at01"/>
      <point x="379" y="1493" type="line"/>
      <point x="602" y="829" type="line" name="iv01"/>
      <point x="1061" y="1493" type="line" name="at02"/>
      <point x="1272" y="1493" type="line"/>
      <point x="868" y="932" type="line" name="sv01"/>
      <point x="1120" y="932" type="line"/>
      <point x="1098" y="821" type="line" name="sv02"/>
      <point x="786" y="821" type="line"/>
      <point x="676" y="670" type="line"/>
      <point x="666" y="635" type="line" name="sv03"/>
      <point x="1059" y="635" type="line"/>
      <point x="1036" y="524" type="line" name="sv04"/>
      <point x="643" y="524" type="line"/>
      <point x="545" y="0" type="line" name="ab01"/>
      <point x="346" y="0" type="line"/>
    </contour>
  </outline>
</glyph>
<glyph name="section" format="1">
  <advance width="1233"/>
  <unicode hex="00A7"/>
  <outline>
    <contour>
      <point x="411" y="-201" type="qcurve" name="dv01"/>
      <point x="371" y="-201"/>
      <point x="292" y="-193"/>
      <point x="260" y="-187" type="qcurve"/>
      <point x="224" y="-180"/>
      <point x="139" y="-157"/>
      <point x="100" y="-143" type="qcurve"/>
      <point x="133" y="18" type="line"/>
      <point x="170" y="0"/>
      <point x="243" y="-27"/>
      <point x="279" y="-37" type="qcurve"/>
      <point x="315" y="-47"/>
      <point x="380" y="-57"/>
      <point x="415" y="-57" type="qcurve" name="dv02"/>
      <point x="467" y="-57"/>
      <point x="558" y="-33"/>
      <point x="591" y="-10" type="qcurve"/>
      <point x="624" y="13"/>
      <point x="657" y="76"/>
      <point x="657" y="110" type="qcurve" name="dh03"/>
      <point x="657" y="164"/>
      <point x="570" y="271"/>
      <point x="474" y="337" type="qcurve"/>
      <point x="387" y="397" type="line"/>
      <point x="262" y="483"/>
      <point x="222" y="538" type="qcurve"/>
      <point x="201" y="567"/>
      <point x="182" y="631"/>
      <point x="182" y="667" type="qcurve" name="dh01"/>
      <point x="182" y="712"/>
      <point x="212" y="803"/>
      <point x="246" y="848" type="qcurve"/>
      <point x="278" y="890"/>
      <point x="368" y="965"/>
      <point x="428" y="997" type="qcurve" name="ih01"/>
      <point x="386" y="1036"/>
      <point x="369" y="1074" type="qcurve"/>
      <point x="359" y="1095"/>
      <point x="350" y="1139"/>
      <point x="350" y="1167" type="qcurve" name="sh02"/>
      <point x="350" y="1241"/>
      <point x="411" y="1367"/>
      <point x="470" y="1415" type="qcurve"/>
      <point x="530" y="1463"/>
      <point x="688" y="1511"/>
      <point x="779" y="1511" type="qcurve" name="at01"/>
      <point x="814" y="1511"/>
      <point x="884" y="1504"/>
      <point x="921" y="1497" type="qcurve" name="at02"/>
      <point x="960" y="1489"/>
      <point x="1031" y="1468"/>
      <point x="1069" y="1454" type="qcurve"/>
      <point x="1036" y="1290" type="line"/>
      <point x="1002" y="1308"/>
      <point x="933" y="1337"/>
      <point x="897" y="1348" type="qcurve"/>
      <point x="861" y="1359"/>
      <point x="796" y="1368"/>
      <point x="767" y="1368" type="qcurve" name="sv01"/>
      <point x="719" y="1368"/>
      <point x="634" y="1344"/>
      <point x="601" y="1319" type="qcurve"/>
      <point x="568" y="1294"/>
      <point x="535" y="1234"/>
      <point x="535" y="1203" type="qcurve" name="sh01"/>
      <point x="535" y="1160"/>
      <point x="600" y="1074"/>
      <point x="669" y="1029" type="qcurve"/>
      <point x="717" y="997" type="line"/>
      <point x="803" y="938" type="line"/>
      <point x="866" y="895"/>
      <point x="948" y="823"/>
      <point x="970" y="794" type="qcurve"/>
      <point x="992" y="765"/>
      <point x="1012" y="698"/>
      <point x="1012" y="663" type="qcurve" name="sh03"/>
      <point x="1012" y="616"/>
      <point x="979" y="520"/>
      <point x="946" y="475" type="qcurve"/>
      <point x="911" y="427"/>
      <point x="820" y="357"/>
      <point x="766" y="332" type="qcurve" name="ih02"/>
      <point x="807" y="297"/>
      <point x="828" y="252" type="qcurve"/>
      <point x="837" y="232"/>
      <point x="848" y="180"/>
      <point x="848" y="148" type="qcurve" name="dh04"/>
      <point x="848" y="75"/>
      <point x="788" y="-54"/>
      <point x="728" y="-103" type="qcurve"/>
      <point x="667" y="-152"/>
      <point x="504" y="-201"/>
    </contour>
    <contour>
      <point x="678" y="401" type="line"/>
      <point x="762" y="452"/>
      <point x="806" y="508" type="qcurve"/>
      <point x="850" y="564"/>
      <point x="850" y="616" type="qcurve" name="sh04"/>
      <point x="850" y="646"/>
      <point x="821" y="702"/>
      <point x="797" y="727" type="qcurve"/>
      <point x="770" y="755"/>
      <point x="665" y="833"/>
      <point x="596" y="877" type="qcurve"/>
      <point x="516" y="928" type="line"/>
      <point x="435" y="876"/>
      <point x="391" y="820" type="qcurve"/>
      <point x="348" y="765"/>
      <point x="348" y="711" type="qcurve" name="dh02"/>
      <point x="348" y="657"/>
      <point x="391" y="610" type="qcurve"/>
      <point x="411" y="588"/>
      <point x="490" y="524"/>
      <point x="559" y="479" type="qcurve"/>
    </contour>
  </outline>
</glyph>
<glyph name="ordfeminine" format="1">
  <advance width="1233"/>
  <unicode hex="00AA"/>
  <outline>
    <contour>
      <point x="534" y="698" type="qcurve" name="hr00"/>
      <point x="473" y="698"/>
      <point x="386" y="732"/>
      <point x="358" y="758" type="qcurve"/>
      <point x="295" y="818"/>
      <point x="295" y="921" type="qcurve" name="dh01"/>
      <point x="295" y="992"/>
      <point x="353" y="1102"/>
      <point x="406" y="1140" type="qcurve"/>
      <point x="518" y="1219"/>
      <point x="717" y="1219" type="qcurve"/>
      <point x="891" y="1219" type="line" name="dv06"/>
      <point x="891" y="1223"/>
      <point x="892" y="1228" type="qcurve"/>
      <point x="894" y="1239"/>
      <point x="895" y="1265"/>
      <point x="895" y="1273" type="qcurve"/>
      <point x="895" y="1301"/>
      <point x="876" y="1352"/>
      <point x="850" y="1372" type="qcurve"/>
      <point x="828" y="1389"/>
      <point x="762" y="1405"/>
      <point x="711" y="1405" type="qcurve" name="sv01"/>
      <point x="676" y="1405"/>
      <point x="608" y="1397"/>
      <point x="574" y="1389" type="qcurve"/>
      <point x="540" y="1381"/>
      <point x="470" y="1354"/>
      <point x="434" y="1337" type="qcurve" name="sh01"/>
      <point x="457" y="1464" type="line"/>
      <point x="532" y="1493"/>
      <point x="605" y="1506" type="qcurve" name="at01"/>
      <point x="642" y="1513"/>
      <point x="710" y="1520"/>
      <point x="745" y="1520" type="qcurve" name="at02"/>
      <point x="890" y="1520"/>
      <point x="963" y="1458" type="qcurve"/>
      <point x="1036" y="1396"/>
      <point x="1036" y="1272" type="qcurve"/>
      <point x="1036" y="1259"/>
      <point x="1035" y="1230"/>
      <point x="1034" y="1220" type="qcurve"/>
      <point x="1033" y="1213"/>
      <point x="1028" y="1175"/>
      <point x="1026" y="1165" type="qcurve"/>
      <point x="940" y="717" type="line"/>
      <point x="797" y="717" type="line" name="dv03"/>
      <point x="819" y="829" type="line"/>
      <point x="793" y="797"/>
      <point x="727" y="748"/>
      <point x="692" y="732" type="qcurve"/>
      <point x="653" y="714"/>
      <point x="573" y="698"/>
    </contour>
    <contour>
      <point x="581" y="817" type="qcurve" name="dv04"/>
      <point x="630" y="817"/>
      <point x="724" y="850"/>
      <point x="762" y="884" type="qcurve"/>
      <point x="803" y="920"/>
      <point x="853" y="1021"/>
      <point x="864" y="1075" type="qcurve"/>
      <point x="870" y="1104" type="line" name="dv05"/>
      <point x="729" y="1104" type="line"/>
      <point x="580" y="1104"/>
      <point x="512" y="1064" type="qcurve"/>
      <point x="477" y="1044"/>
      <point x="442" y="980"/>
      <point x="442" y="941" type="qcurve" name="dh02"/>
      <point x="442" y="882"/>
      <point x="479" y="849" type="qcurve"/>
      <point x="497" y="833"/>
      <point x="546" y="817"/>
    </contour>
    <contour>
      <point x="246" y="592" type="line"/>
      <point x="922" y="592" type="line" name="dv02"/>
      <point x="899" y="469" type="line" name="dv01"/>
      <point x="223" y="469" type="line"/>
    </contour>
  </outline>
</glyph>
<glyph name="guillemotleft" format="1">
  <advance width="1233"/>
  <unicode hex="00AB"/>
  <outline>
    <contour>
      <point x="74" y="559" type="line" name="hr00"/>
      <point x="90" y="641" type="line"/>
      <point x="639" y="1059" type="line" name="av03"/>
      <point x="596" y="848" type="line"/>
      <point x="246" y="584" type="line"/>
      <point x="496" y="317" type="line"/>
      <point x="461" y="141" type="line" name="av01"/>
    </contour>
    <contour>
      <point x="541" y="559" type="line"/>
      <point x="557" y="641" type="line"/>
      <point x="1106" y="1059" type="line" name="av04"/>
      <point x="1063" y="848" type="line"/>
      <point x="713" y="584" type="line"/>
      <point x="963" y="317" type="line"/>
      <point x="928" y="141" type="line" name="av02"/>
    </contour>
  </outline>
</glyph>
<glyph name="twosuperior" format="1">
  <advance width="1233"/>
  <unicode hex="00B2"/>
  <outline>
    <contour>
      <point x="328" y="1230" type="line" name="hr00"/>
      <point x="531" y="1397" type="line"/>
      <point x="688" y="1525"/>
      <point x="844" y="1699"/>
      <point x="844" y="1760" type="qcurve" name="dh01"/>
      <point x="844" y="1778"/>
      <point x="829" y="1816"/>
      <point x="795" y="1847"/>
      <point x="742" y="1867"/>
      <point x="704" y="1867" type="qcurve" name="dv03"/>
      <point x="656" y="1867"/>
      <point x="534" y="1830"/>
      <point x="451" y="1789" type="qcurve"/>
      <point x="475" y="1916" type="line"/>
      <point x="560" y="1945"/>
      <point x="683" y="1972"/>
      <point x="737" y="1972" type="qcurve" name="dv04"/>
      <point x="800" y="1972"/>
      <point x="895" y="1939"/>
      <point x="959" y="1885"/>
      <point x="991" y="1817"/>
      <point x="991" y="1781" type="qcurve" name="dh02"/>
      <point x="991" y="1701"/>
      <point x="834" y="1499"/>
      <point x="682" y="1385" type="qcurve"/>
      <point x="662" y="1370" type="line"/>
      <point x="492" y="1234" type="line"/>
      <point x="887" y="1234" type="line" name="dv02"/>
      <point x="864" y="1120" type="line" name="dv01"/>
      <point x="307" y="1120" type="line"/>
    </contour>
  </outline>
</glyph>
<glyph name="threesuperior" format="1">
  <advance width="1233"/>
  <unicode hex="00B3"/>
  <outline>
    <contour>
      <point x="536" y="1103" type="qcurve" name="dv01"/>
      <point x="473" y="1103"/>
      <point x="347" y="1124"/>
      <point x="287" y="1144" type="qcurve"/>
      <point x="311" y="1265" type="line"/>
      <point x="378" y="1236"/>
      <point x="482" y="1210"/>
      <point x="536" y="1210" type="qcurve" name="dv02"/>
      <point x="590" y="1210"/>
      <point x="678" y="1234"/>
      <point x="740" y="1279"/>
      <point x="774" y="1343"/>
      <point x="774" y="1384" type="qcurve" name="dh01"/>
      <point x="774" y="1511"/>
      <point x="600" y="1511" type="qcurve" name="dv05"/>
      <point x="528" y="1511" type="line"/>
      <point x="549" y="1617" type="line"/>
      <point x="621" y="1617" type="line" name="dv06"/>
      <point x="670" y="1617"/>
      <point x="749" y="1638"/>
      <point x="805" y="1676"/>
      <point x="836" y="1729"/>
      <point x="836" y="1760" type="qcurve" name="sh01"/>
      <point x="836" y="1812"/>
      <point x="751" y="1863"/>
      <point x="671" y="1863" type="qcurve" name="dv03"/>
      <point x="621" y="1863"/>
      <point x="524" y="1843"/>
      <point x="461" y="1820" type="qcurve"/>
      <point x="483" y="1935" type="line" name="hr01"/>
      <point x="628" y="1970"/>
      <point x="728" y="1970" type="qcurve" name="dv04"/>
      <point x="853" y="1970"/>
      <point x="983" y="1871"/>
      <point x="983" y="1783" type="qcurve" name="sh02"/>
      <point x="983" y="1700"/>
      <point x="871" y="1585"/>
      <point x="772" y="1566" type="qcurve" name="iv01"/>
      <point x="846" y="1553"/>
      <point x="922" y="1463"/>
      <point x="922" y="1388" type="qcurve" name="dh02"/>
      <point x="922" y="1324"/>
      <point x="868" y="1219"/>
      <point x="767" y="1144"/>
      <point x="624" y="1103"/>
    </contour>
  </outline>
</glyph>
<glyph name="paragraph" format="1">
  <advance width="1233"/>
  <unicode hex="00B6"/>
  <outline>
    <contour>
      <point x="506" y="649" type="line" name="hr00"/>
      <point x="329" y="653"/>
      <point x="227" y="748" type="qcurve"/>
      <point x="125" y="842"/>
      <point x="125" y="1004" type="qcurve"/>
      <point x="125" y="1213"/>
      <point x="298" y="1353" type="qcurve"/>
      <point x="471" y="1493"/>
      <point x="735" y="1493" type="qcurve" name="at01"/>
      <point x="1141" y="1493" type="line"/>
      <point x="813" y="-197" type="line" name="av01"/>
      <point x="674" y="-197" type="line"/>
      <point x="977" y="1370" type="line" name="sv01"/>
      <point x="786" y="1370" type="line"/>
      <point x="483" y="-197" type="line" name="av02"/>
      <point x="342" y="-197" type="line"/>
    </contour>
  </outline>
</glyph>
<glyph name="periodcentered" format="1">
  <advance width="1233"/>
  <unicode hex="00B7"/>
  <outline>
    <contour>
      <point x="616" y="576" type="qcurve"/>
      <point x="548" y="576"/>
      <point x="501" y="623" type="qcurve"/>
      <point x="454" y="670"/>
      <point x="454" y="745" type="qcurve"/>
      <point x="454" y="820"/>
      <point x="501" y="867" type="qcurve"/>
      <point x="548" y="914"/>
      <point x="616" y="914" type="qcurve"/>
      <point x="684" y="914"/>
      <point x="731" y="867" type="qcurve"/>
      <point x="778" y="820"/>
      <point x="778" y="745" type="qcurve"/>
      <point x="778" y="670"/>
      <point x="731" y="623" type="qcurve"/>
      <point x="684" y="576"/>
    </contour>
  </outline>
</glyph>
<glyph name="guillemotright" format="1">
  <advance width="1233"/>
  <unicode hex="00BB"/>
  <outline>
    <contour>
      <point x="145" y="352" type="line" name="hr00"/>
      <point x="495" y="614" type="line"/>
      <point x="245" y="883" type="line"/>
      <point x="280" y="1059" type="line" name="av03"/>
      <point x="667" y="641" type="line"/>
      <point x="653" y="559" type="line"/>
      <point x="102" y="141" type="line" name="av01"/>
    </contour>
    <contour>
      <point x="612" y="352" type="line"/>
      <point x="962" y="614" type="line"/>
      <point x="712" y="883" type="line"/>
      <point x="747" y="1059" type="line" name="av04"/>
      <point x="1134" y="641" type="line"/>
      <point x="1120" y="559" type="line"/>
      <point x="569" y="141" type="line" name="av02"/>
    </contour>
  </outline>
</glyph>
<glyph name="onequarter" format="1">
  <advance width="1233"/>
  <unicode hex="00BC"/>
  <outline>
    <contour>
      <point x="111" y="934" type="line" name="sv01"/>
      <point x="317" y="934" type="line"/>
      <point x="434" y="1545" type="line"/>
      <point x="203" y="1504" type="line"/>
      <point x="225" y="1620" type="line"/>
      <point x="463" y="1659" type="line" name="av01"/>
      <point x="600" y="1659" type="line"/>
      <point x="459" y="934" type="line"/>
      <point x="664" y="934" type="line" name="dv04"/>
      <point x="643" y="824" type="line" name="dv03"/>
      <point x="90" y="824" type="line"/>
    </contour>
    <contour>
      <point x="47" y="612" type="line"/>
      <point x="1106" y="870" type="line" name="hr02"/>
      <point x="1133" y="762" type="line"/>
      <point x="70" y="504" type="line"/>
    </contour>
    <contour>
      <point x="799" y="-86" type="line" name="sv03"/>
      <point x="413" y="-86" type="line"/>
      <point x="436" y="35" type="line"/>
      <point x="901" y="565" type="line"/>
      <point x="1063" y="565" type="line"/>
      <point x="958" y="25" type="line" name="dv02"/>
      <point x="1075" y="25" type="line"/>
      <point x="1055" y="-86" type="line" name="sv04"/>
      <point x="936" y="-86" type="line"/>
      <point x="903" y="-270" type="line" name="dv01"/>
      <point x="764" y="-270" type="line"/>
    </contour>
    <contour>
      <point x="821" y="25" type="line" name="sv02"/>
      <point x="897" y="416" type="line"/>
      <point x="555" y="25" type="line"/>
    </contour>
  </outline>
</glyph>
<glyph name="onehalf" format="1">
  <advance width="1233"/>
  <unicode hex="00BD"/>
  <outline>
    <contour>
      <point x="111" y="934" type="line" name="sv01"/>
      <point x="317" y="934" type="line"/>
      <point x="434" y="1545" type="line"/>
      <point x="203" y="1504" type="line"/>
      <point x="225" y="1620" type="line"/>
      <point x="463" y="1659" type="line" name="av01"/>
      <point x="600" y="1659" type="line"/>
      <point x="459" y="934" type="line"/>
      <point x="664" y="934" type="line" name="dv06"/>
      <point x="643" y="824" type="line" name="dv05"/>
      <point x="90" y="824" type="line"/>
    </contour>
    <contour>
      <point x="47" y="612" type="line"/>
      <point x="1106" y="870" type="line"/>
      <point x="1133" y="762" type="line"/>
      <point x="70" y="504" type="line"/>
    </contour>
    <contour>
      <point x="482" y="-160" type="line"/>
      <point x="685" y="7" type="line"/>
      <point x="838" y="132"/>
      <point x="998" y="308"/>
      <point x="998" y="370" type="qcurve" name="dh01"/>
      <point x="998" y="390"/>
      <point x="980" y="431"/>
      <point x="961" y="447" type="qcurve"/>
      <point x="925" y="477"/>
      <point x="861" y="477" type="qcurve" name="dv03"/>
      <point x="838" y="477"/>
      <point x="778" y="468"/>
      <point x="749" y="459" type="qcurve"/>
      <point x="722" y="451"/>
      <point x="647" y="419"/>
      <point x="605" y="399" type="qcurve"/>
      <point x="629" y="526" type="line"/>
      <point x="671" y="540"/>
      <point x="744" y="562"/>
      <point x="776" y="569" type="qcurve"/>
      <point x="807" y="576"/>
      <point x="865" y="582"/>
      <point x="892" y="582" type="qcurve" name="dv04"/>
      <point x="954" y="582"/>
      <point x="1045" y="553"/>
      <point x="1077" y="527" type="qcurve"/>
      <point x="1111" y="499"/>
      <point x="1145" y="422"/>
      <point x="1145" y="387" type="qcurve" name="dh02"/>
      <point x="1145" y="348"/>
      <point x="1102" y="256"/>
      <point x="1023" y="155"/>
      <point x="908" y="49"/>
      <point x="836" y="-5" type="qcurve"/>
      <point x="816" y="-20" type="line"/>
      <point x="646" y="-156" type="line"/>
      <point x="1041" y="-156" type="line" name="dv02"/>
      <point x="1018" y="-270" type="line" name="dv01"/>
      <point x="461" y="-270" type="line"/>
    </contour>
  </outline>
</glyph>
<glyph name="threequarters" format="1">
  <advance width="1233"/>
  <unicode hex="00BE"/>
  <outline>
    <contour>
      <point x="313" y="809" type="qcurve" name="dv07"/>
      <point x="279" y="809"/>
      <point x="215" y="815"/>
      <point x="183" y="820" type="qcurve"/>
      <point x="151" y="825"/>
      <point x="92" y="839"/>
      <point x="60" y="850" type="qcurve"/>
      <point x="84" y="971" type="line"/>
      <point x="153" y="942"/>
      <point x="203" y="929" type="qcurve"/>
      <point x="254" y="916"/>
      <point x="308" y="916" type="qcurve" name="dv08"/>
      <point x="362" y="916"/>
      <point x="450" y="939"/>
      <point x="482" y="962" type="qcurve"/>
      <point x="516" y="986"/>
      <point x="547" y="1049"/>
      <point x="547" y="1087" type="qcurve" name="dh01"/>
      <point x="547" y="1153"/>
      <point x="505" y="1185" type="qcurve"/>
      <point x="461" y="1217"/>
      <point x="373" y="1217" type="qcurve" name="dv05"/>
      <point x="301" y="1217" type="line"/>
      <point x="322" y="1323" type="line"/>
      <point x="394" y="1323" type="line" name="dv06"/>
      <point x="492" y="1323"/>
      <point x="550" y="1363" type="qcurve"/>
      <point x="609" y="1404"/>
      <point x="609" y="1466" type="qcurve" name="ih01"/>
      <point x="609" y="1519"/>
      <point x="566" y="1544" type="qcurve"/>
      <point x="544" y="1557"/>
      <point x="480" y="1569"/>
      <point x="440" y="1569" type="qcurve" name="dv03"/>
      <point x="392" y="1569"/>
      <point x="345" y="1559" type="qcurve" name="hr01"/>
      <point x="294" y="1548"/>
      <point x="234" y="1526" type="qcurve"/>
      <point x="256" y="1641" type="line"/>
      <point x="291" y="1649"/>
      <point x="357" y="1662"/>
      <point x="388" y="1667" type="qcurve" name="sv01"/>
      <point x="449" y="1676"/>
      <point x="503" y="1676" type="qcurve" name="dv04"/>
      <point x="561" y="1676"/>
      <point x="656" y="1652"/>
      <point x="691" y="1626" type="qcurve"/>
      <point x="756" y="1576"/>
      <point x="756" y="1486" type="qcurve" name="sh01"/>
      <point x="756" y="1406"/>
      <point x="699" y="1348" type="qcurve"/>
      <point x="672" y="1320"/>
      <point x="596" y="1281"/>
      <point x="545" y="1272" type="qcurve" name="iv01"/>
      <point x="617" y="1260"/>
      <point x="656" y="1215" type="qcurve"/>
      <point x="675" y="1193"/>
      <point x="695" y="1134"/>
      <point x="695" y="1095" type="qcurve" name="dh02"/>
      <point x="695" y="968"/>
      <point x="591" y="888" type="qcurve"/>
      <point x="488" y="809"/>
    </contour>
    <contour>
      <point x="47" y="612" type="line"/>
      <point x="1106" y="870" type="line"/>
      <point x="1133" y="762" type="line"/>
      <point x="70" y="504" type="line"/>
    </contour>
    <contour>
      <point x="799" y="-86" type="line" name="sv03"/>
      <point x="413" y="-86" type="line"/>
      <point x="436" y="35" type="line"/>
      <point x="901" y="565" type="line"/>
      <point x="1063" y="565" type="line"/>
      <point x="958" y="25" type="line" name="dv02"/>
      <point x="1075" y="25" type="line"/>
      <point x="1055" y="-86" type="line" name="sv04"/>
      <point x="936" y="-86" type="line"/>
      <point x="903" y="-270" type="line" name="dv01"/>
      <point x="764" y="-270" type="line" name="sh02"/>
    </contour>
    <contour>
      <point x="821" y="25" type="line" name="sv02"/>
      <point x="897" y="416" type="line"/>
      <point x="555" y="25" type="line" name="ih02"/>
    </contour>
  </outline>
</glyph>
<glyph name="questiondown" format="1">
  <advance width="1233"/>
  <unicode hex="00BF"/>
  <outline>
    <contour>
      <point x="752" y="1252" type="qcurve" name="sv01"/>
      <point x="726" y="1252"/>
      <point x="682" y="1269"/>
      <point x="664" y="1289" type="qcurve"/>
      <point x="645" y="1311"/>
      <point x="631" y="1359"/>
      <point x="631" y="1385" type="qcurve" name="ah01"/>
      <point x="631" y="1425"/>
      <point x="662" y="1486"/>
      <point x="686" y="1508" type="qcurve"/>
      <point x="710" y="1530"/>
      <point x="773" y="1556"/>
      <point x="806" y="1556" type="qcurve" name="at01"/>
      <point x="829" y="1556"/>
      <point x="879" y="1539"/>
      <point x="897" y="1519" type="qcurve"/>
      <point x="912" y="1502"/>
      <point x="928" y="1454"/>
      <point x="928" y="1426" type="qcurve" name="sh01"/>
      <point x="928" y="1392"/>
      <point x="902" y="1327"/>
      <point x="874" y="1301" type="qcurve"/>
      <point x="851" y="1280"/>
      <point x="788" y="1252"/>
    </contour>
    <contour>
      <point x="495" y="-27" type="qcurve" name="ab01"/>
      <point x="423" y="-27"/>
      <point x="290" y="11"/>
      <point x="239" y="54" type="qcurve"/>
      <point x="191" y="95"/>
      <point x="143" y="203"/>
      <point x="143" y="267" type="qcurve" name="sh02"/>
      <point x="143" y="356"/>
      <point x="192" y="436" type="qcurve"/>
      <point x="218" y="479"/>
      <point x="305" y="571"/>
      <point x="371" y="625" type="qcurve"/>
      <point x="475" y="711" type="line"/>
      <point x="514" y="743"/>
      <point x="574" y="806"/>
      <point x="590" y="832" type="qcurve"/>
      <point x="605" y="857"/>
      <point x="629" y="932"/>
      <point x="635" y="969" type="qcurve" name="sh03"/>
      <point x="655" y="1092" type="line"/>
      <point x="846" y="1092" type="line"/>
      <point x="817" y="938" type="line"/>
      <point x="808" y="890"/>
      <point x="777" y="809"/>
      <point x="759" y="780" type="qcurve"/>
      <point x="738" y="746"/>
      <point x="664" y="668"/>
      <point x="608" y="621" type="qcurve"/>
      <point x="502" y="532" type="line"/>
      <point x="417" y="461"/>
      <point x="382" y="405" type="qcurve"/>
      <point x="346" y="349"/>
      <point x="346" y="292" type="qcurve" name="sh04"/>
      <point x="346" y="219"/>
      <point x="402" y="178" type="qcurve"/>
      <point x="458" y="137"/>
      <point x="555" y="137" type="qcurve" name="sv02"/>
      <point x="597" y="137"/>
      <point x="682" y="154"/>
      <point x="734" y="173" type="qcurve"/>
      <point x="784" y="191"/>
      <point x="881" y="239"/>
      <point x="938" y="274" type="qcurve" name="sh05"/>
      <point x="901" y="86" type="line"/>
      <point x="842" y="55"/>
      <point x="735" y="13"/>
      <point x="692" y="1" type="qcurve"/>
      <point x="641" y="-13"/>
      <point x="539" y="-27"/>
    </contour>
  </outline>
</glyph>
<glyph name="Acircumflex" format="1">
  <advance width="1233"/>
  <unicode hex="00C2"/>
  <outline>
    <contour>
      <point x="704" y="1854" type="line" name="av01"/>
      <point x="917" y="1854" type="line"/>
      <point x="1075" y="1588" type="line" name="iv01"/>
      <point x="942" y="1588" type="line"/>
      <point x="803" y="1766" type="line"/>
      <point x="594" y="1588" type="line"/>
      <point x="442" y="1588" type="line" name="iv02"/>
    </contour>
    <contour>
      <point x="639" y="1493" type="line" name="at01"/>
      <point x="885" y="1493" type="line"/>
      <point x="1051" y="0" type="line" name="ab01"/>
      <point x="850" y="0" type="line"/>
      <point x="815" y="389" type="line" name="dv01"/>
      <point x="295" y="389" type="line"/>
      <point x="111" y="0" type="line" name="ab02"/>
      <point x="-106" y="0" type="line"/>
    </contour>
    <contour>
      <point x="801" y="551" type="line" name="dv02"/>
      <point x="735" y="1325" type="line"/>
      <point x="371" y="551" type="line"/>
    </contour>
  </outline>
</glyph>
<glyph name="Adieresis" format="1">
  <advance width="1233"/>
  <unicode hex="00C4"/>
  <outline>
    <contour>
      <point x="500" y="1620" type="line" name="dv01"/>
      <point x="485" y="1620"/>
      <point x="470" y="1638"/>
      <point x="473" y="1653" type="qcurve"/>
      <point x="501" y="1796" type="line"/>
      <point x="505" y="1823"/>
      <point x="533" y="1823" type="qcurve" name="dv02"/>
      <point x="677" y="1823" type="line"/>
      <point x="704" y="1823"/>
      <point x="704" y="1799" type="qcurve"/>
      <point x="704" y="1793"/>
      <point x="703" y="1790" type="qcurve"/>
      <point x="674" y="1647" type="line"/>
      <point x="668" y="1620"/>
      <point x="642" y="1620" type="qcurve"/>
    </contour>
    <contour>
      <point x="891" y="1620" type="line" name="sv01"/>
      <point x="876" y="1620"/>
      <point x="861" y="1638"/>
      <point x="864" y="1653" type="qcurve"/>
      <point x="892" y="1796" type="line"/>
      <point x="896" y="1823"/>
      <point x="924" y="1823" type="qcurve" name="sv02"/>
      <point x="1067" y="1823" type="line"/>
      <point x="1082" y="1823"/>
      <point x="1097" y="1805"/>
      <point x="1094" y="1790" type="qcurve"/>
      <point x="1066" y="1647" type="line"/>
      <point x="1061" y="1620"/>
      <point x="1034" y="1620" type="qcurve"/>
    </contour>
    <contour>
      <point x="639" y="1493" type="line" name="at01"/>
      <point x="885" y="1493" type="line"/>
      <point x="1051" y="0" type="line" name="ab01"/>
      <point x="850" y="0" type="line"/>
      <point x="815" y="389" type="line" name="dv03"/>
      <point x="295" y="389" type="line"/>
      <point x="111" y="0" type="line" name="ab02"/>
      <point x="-106" y="0" type="line"/>
    </contour>
    <contour>
      <point x="801" y="551" type="line" name="dv04"/>
      <point x="735" y="1325" type="line"/>
      <point x="371" y="551" type="line"/>
    </contour>
  </outline>
</glyph>
<glyph name="Aring" format="1">
  <advance width="1233"/>
  <unicode hex="00C5"/>
  <outline>
    <contour>
      <point x="600" y="1415" type="line" name="hr00"/>
      <point x="550" y="1449"/>
      <point x="524" y="1504" type="qcurve"/>
      <point x="498" y="1559"/>
      <point x="498" y="1624" type="qcurve" name="sh01"/>
      <point x="498" y="1683"/>
      <point x="539" y="1783"/>
      <point x="577" y="1821" type="qcurve"/>
      <point x="614" y="1859"/>
      <point x="714" y="1901"/>
      <point x="773" y="1901" type="qcurve" name="dv02"/>
      <point x="831" y="1901"/>
      <point x="929" y="1859"/>
      <point x="967" y="1821" type="qcurve"/>
      <point x="1004" y="1784"/>
      <point x="1047" y="1687"/>
      <point x="1047" y="1624" type="qcurve" name="sh02"/>
      <point x="1047" y="1581"/>
      <point x="1026" y="1512"/>
      <point x="1007" y="1482" type="qcurve"/>
      <point x="966" y="1417"/>
      <point x="897" y="1386" type="qcurve"/>
      <point x="1051" y="0" type="line" name="sh03"/>
      <point x="850" y="0" type="line"/>
      <point x="815" y="389" type="line" name="dv03"/>
      <point x="295" y="389" type="line"/>
      <point x="111" y="0" type="line" name="ab01"/>
      <point x="-106" y="0" type="line"/>
    </contour>
    <contour>
      <point x="772" y="1475" type="qcurve"/>
      <point x="805" y="1475"/>
      <point x="860" y="1499"/>
      <point x="880" y="1519" type="qcurve"/>
      <point x="924" y="1563"/>
      <point x="924" y="1626" type="qcurve" name="ah01"/>
      <point x="924" y="1660"/>
      <point x="900" y="1714"/>
      <point x="880" y="1734" type="qcurve"/>
      <point x="857" y="1757"/>
      <point x="800" y="1778"/>
      <point x="771" y="1778" type="qcurve" name="dv01"/>
      <point x="708" y="1778"/>
      <point x="665" y="1735" type="qcurve"/>
      <point x="621" y="1691"/>
      <point x="621" y="1627" type="qcurve" name="sh04"/>
      <point x="621" y="1562"/>
      <point x="665" y="1518" type="qcurve"/>
      <point x="684" y="1499"/>
      <point x="739" y="1475"/>
    </contour>
    <contour>
      <point x="801" y="551" type="line" name="dv04"/>
      <point x="735" y="1325" type="line" name="ih01"/>
      <point x="371" y="551" type="line"/>
    </contour>
  </outline>
</glyph>
<glyph name="Edieresis" format="1">
  <advance width="1233"/>
  <unicode hex="00CB"/>
  <outline>
    <contour>
      <point x="545" y="1627" type="line" name="dv01"/>
      <point x="530" y="1627"/>
      <point x="515" y="1645"/>
      <point x="518" y="1660" type="qcurve"/>
      <point x="546" y="1803" type="line"/>
      <point x="550" y="1830"/>
      <point x="578" y="1830" type="qcurve" name="dv02"/>
      <point x="722" y="1830" type="line"/>
      <point x="749" y="1830"/>
      <point x="749" y="1806" type="qcurve"/>
      <point x="749" y="1800"/>
      <point x="748" y="1797" type="qcurve"/>
      <point x="719" y="1654" type="line"/>
      <point x="713" y="1627"/>
      <point x="687" y="1627" type="qcurve"/>
    </contour>
    <contour>
      <point x="936" y="1627" type="line" name="sv01"/>
      <point x="921" y="1627"/>
      <point x="906" y="1645"/>
      <point x="909" y="1660" type="qcurve"/>
      <point x="937" y="1803" type="line"/>
      <point x="941" y="1830"/>
      <point x="969" y="1830" type="qcurve" name="sv02"/>
      <point x="1112" y="1830" type="line"/>
      <point x="1127" y="1830"/>
      <point x="1142" y="1812"/>
      <point x="1139" y="1797" type="qcurve"/>
      <point x="1111" y="1654" type="line"/>
      <point x="1106" y="1627"/>
      <point x="1079" y="1627" type="qcurve"/>
    </contour>
    <contour>
      <point x="344" y="1493" type="line" name="at01"/>
      <point x="1229" y="1493" type="line"/>
      <point x="1196" y="1323" type="line" name="sv03"/>
      <point x="512" y="1323" type="line"/>
      <point x="426" y="881" type="line"/>
      <point x="1079" y="881" type="line" name="dv04"/>
      <point x="1047" y="711" type="line" name="dv03"/>
      <point x="393" y="711" type="line"/>
      <point x="289" y="170" type="line" name="sv04"/>
      <point x="991" y="170" type="line"/>
      <point x="958" y="0" type="line" name="ab01"/>
      <point x="53" y="0" type="line"/>
    </contour>
  </outline>
</glyph>
<glyph name="Icircumflex" format="1">
  <advance width="1233"/>
  <unicode hex="00CE"/>
  <outline>
    <contour>
      <point x="710" y="1861" type="line" name="av01"/>
      <point x="923" y="1861" type="line"/>
      <point x="1081" y="1595" type="line" name="iv01"/>
      <point x="948" y="1595" type="line"/>
      <point x="809" y="1773" type="line"/>
      <point x="600" y="1595" type="line"/>
      <point x="448" y="1595" type="line" name="iv02"/>
    </contour>
    <contour>
      <point x="90" y="170" type="line" name="sv01"/>
      <point x="403" y="170" type="line"/>
      <point x="627" y="1323" type="line" name="sv02"/>
      <point x="313" y="1323" type="line"/>
      <point x="346" y="1493" type="line" name="at01"/>
      <point x="1176" y="1493" type="line"/>
      <point x="1143" y="1323" type="line" name="sv03"/>
      <point x="829" y="1323" type="line" name="sv04"/>
      <point x="606" y="170" type="line" name="sv05"/>
      <point x="920" y="170" type="line" name="sv06"/>
      <point x="887" y="0" type="line" name="ab01"/>
      <point x="57" y="0" type="line"/>
    </contour>
  </outline>
</glyph>
<glyph name="Idieresis" format="1">
  <advance width="1233"/>
  <unicode hex="00CF"/>
  <outline>
    <contour>
      <point x="506" y="1627" type="line" name="dv01"/>
      <point x="491" y="1627"/>
      <point x="476" y="1645"/>
      <point x="479" y="1660" type="qcurve"/>
      <point x="507" y="1803" type="line"/>
      <point x="511" y="1830"/>
      <point x="539" y="1830" type="qcurve" name="dv02"/>
      <point x="683" y="1830" type="line"/>
      <point x="710" y="1830"/>
      <point x="710" y="1806" type="qcurve"/>
      <point x="710" y="1800"/>
      <point x="709" y="1797" type="qcurve"/>
      <point x="680" y="1654" type="line"/>
      <point x="674" y="1627"/>
      <point x="648" y="1627" type="qcurve"/>
    </contour>
    <contour>
      <point x="897" y="1627" type="line" name="sv01"/>
      <point x="882" y="1627"/>
      <point x="867" y="1645"/>
      <point x="870" y="1660" type="qcurve"/>
      <point x="898" y="1803" type="line"/>
      <point x="902" y="1830"/>
      <point x="930" y="1830" type="qcurve" name="sv02"/>
      <point x="1073" y="1830" type="line"/>
      <point x="1088" y="1830"/>
      <point x="1103" y="1812"/>
      <point x="1100" y="1797" type="qcurve"/>
      <point x="1072" y="1654" type="line"/>
      <point x="1067" y="1627"/>
      <point x="1040" y="1627" type="qcurve"/>
    </contour>
    <contour>
      <point x="90" y="170" type="line" name="sv03"/>
      <point x="403" y="170" type="line"/>
      <point x="627" y="1323" type="line" name="sv04"/>
      <point x="313" y="1323" type="line"/>
      <point x="346" y="1493" type="line" name="at01"/>
      <point x="1176" y="1493" type="line"/>
      <point x="1143" y="1323" type="line" name="sv05"/>
      <point x="829" y="1323" type="line" name="sv06"/>
      <point x="606" y="170" type="line" name="sv07"/>
      <point x="920" y="170" type="line" name="sv08"/>
      <point x="887" y="0" type="line" name="ab01"/>
      <point x="57" y="0" type="line"/>
    </contour>
  </outline>
</glyph>
<glyph name="Eth" format="1">
  <advance width="1233"/>
  <unicode hex="00D0"/>
  <outline>
    <contour>
      <point x="129" y="709" type="line" name="dv01"/>
      <point x="2" y="709" type="line"/>
      <point x="31" y="858" type="line"/>
      <point x="160" y="858" type="line" name="dv02"/>
      <point x="283" y="1493" type="line" name="at01"/>
      <point x="586" y="1493" type="line"/>
      <point x="859" y="1493"/>
      <point x="995" y="1369" type="qcurve"/>
      <point x="1064" y="1306"/>
      <point x="1130" y="1117"/>
      <point x="1130" y="986" type="qcurve" name="dh02"/>
      <point x="1130" y="912"/>
      <point x="1109" y="746"/>
      <point x="1088" y="659" type="qcurve"/>
      <point x="1066" y="569"/>
      <point x="1007" y="414"/>
      <point x="975" y="354" type="qcurve"/>
      <point x="922" y="256"/>
      <point x="791" y="122"/>
      <point x="716" y="82" type="qcurve"/>
      <point x="561" y="0"/>
      <point x="295" y="0" type="qcurve" name="ab01"/>
      <point x="-8" y="0" type="line"/>
    </contour>
    <contour>
      <point x="324" y="166" type="line" name="sv01"/>
      <point x="423" y="166"/>
      <point x="566" y="199"/>
      <point x="621" y="229" type="qcurve"/>
      <point x="684" y="264"/>
      <point x="767" y="363"/>
      <point x="800" y="432" type="qcurve"/>
      <point x="826" y="485"/>
      <point x="872" y="621"/>
      <point x="890" y="707" type="qcurve"/>
      <point x="907" y="787"/>
      <point x="924" y="933"/>
      <point x="924" y="993" type="qcurve" name="dh01"/>
      <point x="924" y="1088"/>
      <point x="884" y="1213"/>
      <point x="842" y="1251" type="qcurve"/>
      <point x="760" y="1327"/>
      <point x="567" y="1327" type="qcurve" name="sv02"/>
      <point x="453" y="1327" type="line"/>
      <point x="362" y="858" type="line" name="sv03"/>
      <point x="629" y="858" type="line"/>
      <point x="600" y="709" type="line" name="sv04"/>
      <point x="334" y="709" type="line"/>
      <point x="227" y="166" type="line"/>
    </contour>
  </outline>
</glyph>
<glyph name="Ntilde" format="1">
  <advance width="1233"/>
  <unicode hex="00D1"/>
  <outline>
    <contour>
      <point x="438" y="1627" type="line" name="hr00"/>
      <point x="472" y="1734"/>
      <point x="535" y="1791" type="qcurve"/>
      <point x="566" y="1819"/>
      <point x="639" y="1846"/>
      <point x="680" y="1846" type="qcurve" name="dv02"/>
      <point x="700" y="1846"/>
      <point x="731" y="1840"/>
      <point x="747" y="1835" type="qcurve"/>
      <point x="780" y="1824"/>
      <point x="813" y="1799" type="qcurve"/>
      <point x="848" y="1773" type="line"/>
      <point x="867" y="1759"/>
      <point x="884" y="1753" type="qcurve"/>
      <point x="892" y="1750"/>
      <point x="908" y="1746"/>
      <point x="920" y="1746" type="qcurve"/>
      <point x="943" y="1746"/>
      <point x="975" y="1760"/>
      <point x="989" y="1773" type="qcurve"/>
      <point x="1018" y="1800"/>
      <point x="1028" y="1846" type="qcurve" name="sv01"/>
      <point x="1153" y="1846" type="line"/>
      <point x="1122" y="1738"/>
      <point x="1058" y="1682" type="qcurve"/>
      <point x="1029" y="1656"/>
      <point x="953" y="1627"/>
      <point x="907" y="1627" type="qcurve" name="sv02"/>
      <point x="887" y="1627"/>
      <point x="859" y="1633"/>
      <point x="845" y="1638" type="qcurve"/>
      <point x="829" y="1644"/>
      <point x="802" y="1659"/>
      <point x="786" y="1670" type="qcurve"/>
      <point x="752" y="1695" type="line"/>
      <point x="750" y="1696" type="line"/>
      <point x="707" y="1728"/>
      <point x="669" y="1728" type="qcurve"/>
      <point x="635" y="1728"/>
      <point x="609" y="1703" type="qcurve"/>
      <point x="583" y="1679"/>
      <point x="563" y="1627" type="qcurve" name="dv01"/>
    </contour>
    <contour>
      <point x="285" y="1493" type="line" name="at01"/>
      <point x="541" y="1493" type="line"/>
      <point x="805" y="264" type="line" name="iv01"/>
      <point x="1044" y="1493" type="line" name="at02"/>
      <point x="1239" y="1493" type="line"/>
      <point x="948" y="0" type="line" name="ab01"/>
      <point x="692" y="0" type="line"/>
      <point x="428" y="1229" type="line" name="iv02"/>
      <point x="188" y="0" type="line" name="ab02"/>
      <point x="-6" y="0" type="line"/>
    </contour>
  </outline>
</glyph>
<glyph name="Ograve" format="1">
  <advance width="1233"/>
  <unicode hex="00D2"/>
  <outline>
    <contour>
      <point x="543" y="1859" type="line" name="ih01"/>
      <point x="725" y="1859" type="line" name="sv02"/>
      <point x="872" y="1595" type="line" name="ih02"/>
      <point x="733" y="1595" type="line"/>
    </contour>
    <contour>
      <point x="478" y="-29" type="qcurve" name="dv01"/>
      <point x="276" y="-29"/>
      <point x="179" y="94" type="qcurve"/>
      <point x="82" y="216"/>
      <point x="82" y="473" type="qcurve" name="sh01"/>
      <point x="82" y="537"/>
      <point x="93" y="649"/>
      <point x="104" y="712" type="qcurve"/>
      <point x="116" y="782"/>
      <point x="145" y="904"/>
      <point x="168" y="975" type="qcurve"/>
      <point x="184" y="1025"/>
      <point x="214" y="1103"/>
      <point x="231" y="1141" type="qcurve"/>
      <point x="251" y="1184"/>
      <point x="286" y="1245"/>
      <point x="303" y="1271" type="qcurve"/>
      <point x="389" y="1399"/>
      <point x="501" y="1460" type="qcurve"/>
      <point x="552" y="1488"/>
      <point x="674" y="1520"/>
      <point x="753" y="1520" type="qcurve" name="at01"/>
      <point x="853" y="1520"/>
      <point x="1003" y="1462"/>
      <point x="1054" y="1397" type="qcurve"/>
      <point x="1151" y="1275"/>
      <point x="1151" y="1024" type="qcurve" name="sh02"/>
      <point x="1151" y="964"/>
      <point x="1140" y="846"/>
      <point x="1129" y="781" type="qcurve"/>
      <point x="1107" y="653"/>
      <point x="1063" y="516" type="qcurve"/>
      <point x="1047" y="466"/>
      <point x="1018" y="389"/>
      <point x="1001" y="351" type="qcurve"/>
      <point x="987" y="322"/>
      <point x="949" y="251"/>
      <point x="928" y="219" type="qcurve"/>
      <point x="889" y="160"/>
      <point x="788" y="64"/>
      <point x="731" y="32" type="qcurve"/>
      <point x="622" y="-29"/>
    </contour>
    <contour>
      <point x="498" y="135" type="qcurve" name="dv02"/>
      <point x="541" y="135"/>
      <point x="623" y="160"/>
      <point x="660" y="186" type="qcurve"/>
      <point x="700" y="215"/>
      <point x="757" y="291"/>
      <point x="778" y="331" type="qcurve"/>
      <point x="797" y="367"/>
      <point x="832" y="453"/>
      <point x="862" y="545"/>
      <point x="888" y="639"/>
      <point x="898" y="684" type="qcurve"/>
      <point x="921" y="787"/>
      <point x="944" y="986"/>
      <point x="944" y="1067" type="qcurve" name="ah01"/>
      <point x="944" y="1153"/>
      <point x="918" y="1256"/>
      <point x="892" y="1289" type="qcurve" name="hr01"/>
      <point x="866" y="1321"/>
      <point x="787" y="1356"/>
      <point x="734" y="1356" type="qcurve" name="sv01"/>
      <point x="690" y="1356"/>
      <point x="608" y="1331"/>
      <point x="572" y="1305" type="qcurve"/>
      <point x="537" y="1279"/>
      <point x="478" y="1205"/>
      <point x="455" y="1160" type="qcurve"/>
      <point x="420" y="1094"/>
      <point x="356" y="911"/>
      <point x="333" y="808" type="qcurve"/>
      <point x="310" y="708"/>
      <point x="287" y="513"/>
      <point x="287" y="429" type="qcurve" name="sh03"/>
      <point x="287" y="385"/>
      <point x="294" y="316"/>
      <point x="307" y="262"/>
      <point x="327" y="220"/>
      <point x="340" y="203" type="qcurve"/>
      <point x="369" y="167"/>
      <point x="450" y="135"/>
    </contour>
  </outline>
</glyph>
<glyph name="Oacute" format="1">
  <advance width="1233"/>
  <unicode hex="00D3"/>
  <outline>
    <contour>
      <point x="897" y="1859" type="line" name="av01"/>
      <point x="1105" y="1859" type="line" name="ih01"/>
      <point x="798" y="1595" type="line"/>
      <point x="638" y="1595" type="line" name="ih02"/>
    </contour>
    <contour>
      <point x="478" y="-29" type="qcurve" name="dv01"/>
      <point x="276" y="-29"/>
      <point x="179" y="94" type="qcurve"/>
      <point x="82" y="216"/>
      <point x="82" y="473" type="qcurve" name="sh02"/>
      <point x="82" y="537"/>
      <point x="93" y="649"/>
      <point x="104" y="712" type="qcurve"/>
      <point x="116" y="782"/>
      <point x="145" y="904"/>
      <point x="168" y="975" type="qcurve"/>
      <point x="184" y="1025"/>
      <point x="214" y="1103"/>
      <point x="231" y="1141" type="qcurve"/>
      <point x="251" y="1184"/>
      <point x="286" y="1245"/>
      <point x="303" y="1271" type="qcurve"/>
      <point x="389" y="1399"/>
      <point x="501" y="1460" type="qcurve"/>
      <point x="552" y="1488"/>
      <point x="674" y="1520"/>
      <point x="753" y="1520" type="qcurve" name="at01"/>
      <point x="853" y="1520"/>
      <point x="1003" y="1462"/>
      <point x="1054" y="1397" type="qcurve"/>
      <point x="1151" y="1275"/>
      <point x="1151" y="1024" type="qcurve" name="sh01"/>
      <point x="1151" y="964"/>
      <point x="1140" y="846"/>
      <point x="1129" y="781" type="qcurve"/>
      <point x="1107" y="653"/>
      <point x="1063" y="516" type="qcurve"/>
      <point x="1047" y="466"/>
      <point x="1018" y="389"/>
      <point x="1001" y="351" type="qcurve"/>
      <point x="987" y="322"/>
      <point x="949" y="251"/>
      <point x="928" y="219" type="qcurve"/>
      <point x="889" y="160"/>
      <point x="788" y="64"/>
      <point x="731" y="32" type="qcurve"/>
      <point x="622" y="-29"/>
    </contour>
    <contour>
      <point x="498" y="135" type="qcurve" name="dv02"/>
      <point x="541" y="135"/>
      <point x="623" y="160"/>
      <point x="660" y="186" type="qcurve"/>
      <point x="700" y="215"/>
      <point x="757" y="291"/>
      <point x="778" y="331" type="qcurve"/>
      <point x="797" y="367"/>
      <point x="832" y="453"/>
      <point x="862" y="545"/>
      <point x="888" y="639"/>
      <point x="898" y="684" type="qcurve"/>
      <point x="921" y="787"/>
      <point x="944" y="986"/>
      <point x="944" y="1067" type="qcurve" name="ah01"/>
      <point x="944" y="1153"/>
      <point x="918" y="1256"/>
      <point x="892" y="1289" type="qcurve"/>
      <point x="866" y="1321"/>
      <point x="787" y="1356"/>
      <point x="734" y="1356" type="qcurve" name="sv01"/>
      <point x="690" y="1356"/>
      <point x="608" y="1331"/>
      <point x="572" y="1305" type="qcurve"/>
      <point x="537" y="1279"/>
      <point x="478" y="1205"/>
      <point x="455" y="1160" type="qcurve"/>
      <point x="420" y="1094"/>
      <point x="356" y="911"/>
      <point x="333" y="808" type="qcurve"/>
      <point x="310" y="708"/>
      <point x="287" y="513"/>
      <point x="287" y="429" type="qcurve" name="sh03"/>
      <point x="287" y="385"/>
      <point x="294" y="316"/>
      <point x="307" y="262"/>
      <point x="327" y="220"/>
      <point x="340" y="203" type="qcurve"/>
      <point x="369" y="167"/>
      <point x="450" y="135"/>
    </contour>
  </outline>
</glyph>
<glyph name="Ocircumflex" format="1">
  <advance width="1233"/>
  <unicode hex="00D4"/>
  <outline>
    <contour>
      <point x="696" y="1861" type="line" name="sv02"/>
      <point x="909" y="1861" type="line"/>
      <point x="1067" y="1595" type="line" name="ih01"/>
      <point x="934" y="1595" type="line" name="sh02"/>
      <point x="795" y="1773" type="line"/>
      <point x="586" y="1595" type="line"/>
      <point x="434" y="1595" type="line" name="ih02"/>
    </contour>
    <contour>
      <point x="478" y="-29" type="qcurve" name="dv01"/>
      <point x="276" y="-29"/>
      <point x="179" y="94" type="qcurve"/>
      <point x="82" y="216"/>
      <point x="82" y="473" type="qcurve" name="sh03"/>
      <point x="82" y="537"/>
      <point x="93" y="649"/>
      <point x="104" y="712" type="qcurve"/>
      <point x="116" y="782"/>
      <point x="145" y="904"/>
      <point x="168" y="975" type="qcurve"/>
      <point x="184" y="1025"/>
      <point x="214" y="1103"/>
      <point x="231" y="1141" type="qcurve"/>
      <point x="251" y="1184"/>
      <point x="286" y="1245"/>
      <point x="303" y="1271" type="qcurve"/>
      <point x="389" y="1399"/>
      <point x="501" y="1460" type="qcurve"/>
      <point x="552" y="1488"/>
      <point x="674" y="1520"/>
      <point x="753" y="1520" type="qcurve" name="at01"/>
      <point x="853" y="1520"/>
      <point x="1003" y="1462"/>
      <point x="1054" y="1397" type="qcurve"/>
      <point x="1151" y="1275"/>
      <point x="1151" y="1024" type="qcurve" name="sh01"/>
      <point x="1151" y="964"/>
      <point x="1140" y="846"/>
      <point x="1129" y="781" type="qcurve"/>
      <point x="1107" y="653"/>
      <point x="1063" y="516" type="qcurve"/>
      <point x="1047" y="466"/>
      <point x="1018" y="389"/>
      <point x="1001" y="351" type="qcurve"/>
      <point x="987" y="322"/>
      <point x="949" y="251"/>
      <point x="928" y="219" type="qcurve"/>
      <point x="889" y="160"/>
      <point x="788" y="64"/>
      <point x="731" y="32" type="qcurve"/>
      <point x="622" y="-29"/>
    </contour>
    <contour>
      <point x="498" y="135" type="qcurve" name="dv02"/>
      <point x="541" y="135"/>
      <point x="623" y="160"/>
      <point x="660" y="186" type="qcurve"/>
      <point x="700" y="215"/>
      <point x="757" y="291"/>
      <point x="778" y="331" type="qcurve"/>
      <point x="797" y="367"/>
      <point x="832" y="453"/>
      <point x="862" y="545"/>
      <point x="888" y="639"/>
      <point x="898" y="684" type="qcurve"/>
      <point x="921" y="787"/>
      <point x="944" y="986"/>
      <point x="944" y="1067" type="qcurve" name="ah01"/>
      <point x="944" y="1153"/>
      <point x="918" y="1256"/>
      <point x="892" y="1289" type="qcurve" name="hr01"/>
      <point x="866" y="1321"/>
      <point x="787" y="1356"/>
      <point x="734" y="1356" type="qcurve" name="sv01"/>
      <point x="690" y="1356"/>
      <point x="608" y="1331"/>
      <point x="572" y="1305" type="qcurve"/>
      <point x="537" y="1279"/>
      <point x="478" y="1205"/>
      <point x="455" y="1160" type="qcurve"/>
      <point x="420" y="1094"/>
      <point x="356" y="911"/>
      <point x="333" y="808" type="qcurve"/>
      <point x="310" y="708"/>
      <point x="287" y="513"/>
      <point x="287" y="429" type="qcurve" name="sh04"/>
      <point x="287" y="385"/>
      <point x="294" y="316"/>
      <point x="307" y="262"/>
      <point x="327" y="220"/>
      <point x="340" y="203" type="qcurve"/>
      <point x="369" y="167"/>
      <point x="450" y="135"/>
    </contour>
  </outline>
</glyph>
<glyph name="Otilde" format="1">
  <advance width="1233"/>
  <unicode hex="00D5"/>
  <outline>
    <contour>
      <point x="434" y="1627" type="line" name="ih01"/>
      <point x="468" y="1734"/>
      <point x="531" y="1791" type="qcurve"/>
      <point x="562" y="1819"/>
      <point x="635" y="1846"/>
      <point x="676" y="1846" type="qcurve" name="dv04"/>
      <point x="696" y="1846"/>
      <point x="727" y="1840"/>
      <point x="743" y="1835" type="qcurve"/>
      <point x="776" y="1824"/>
      <point x="809" y="1799" type="qcurve"/>
      <point x="844" y="1773" type="line"/>
      <point x="863" y="1759"/>
      <point x="880" y="1753" type="qcurve"/>
      <point x="888" y="1750"/>
      <point x="904" y="1746"/>
      <point x="916" y="1746" type="qcurve"/>
      <point x="939" y="1746"/>
      <point x="971" y="1760"/>
      <point x="985" y="1773" type="qcurve"/>
      <point x="1014" y="1800"/>
      <point x="1024" y="1846" type="qcurve" name="sv01"/>
      <point x="1149" y="1846" type="line" name="sh03"/>
      <point x="1118" y="1738"/>
      <point x="1054" y="1682" type="qcurve"/>
      <point x="1025" y="1656"/>
      <point x="949" y="1627"/>
      <point x="903" y="1627" type="qcurve" name="sv02"/>
      <point x="883" y="1627"/>
      <point x="855" y="1633"/>
      <point x="841" y="1638" type="qcurve"/>
      <point x="825" y="1644"/>
      <point x="798" y="1659"/>
      <point x="782" y="1670" type="qcurve"/>
      <point x="748" y="1695" type="line"/>
      <point x="746" y="1696" type="line"/>
      <point x="703" y="1728"/>
      <point x="665" y="1728" type="qcurve"/>
      <point x="631" y="1728"/>
      <point x="605" y="1703" type="qcurve"/>
      <point x="579" y="1679"/>
      <point x="559" y="1627" type="qcurve" name="dv03"/>
    </contour>
    <contour>
      <point x="478" y="-29" type="qcurve" name="dv01"/>
      <point x="276" y="-29"/>
      <point x="179" y="94" type="qcurve"/>
      <point x="82" y="216"/>
      <point x="82" y="473" type="qcurve" name="sh01"/>
      <point x="82" y="537"/>
      <point x="93" y="649"/>
      <point x="104" y="712" type="qcurve"/>
      <point x="116" y="782"/>
      <point x="145" y="904"/>
      <point x="168" y="975" type="qcurve"/>
      <point x="184" y="1025"/>
      <point x="214" y="1103"/>
      <point x="231" y="1141" type="qcurve"/>
      <point x="251" y="1184"/>
      <point x="286" y="1245"/>
      <point x="303" y="1271" type="qcurve"/>
      <point x="389" y="1399"/>
      <point x="501" y="1460" type="qcurve"/>
      <point x="552" y="1488"/>
      <point x="674" y="1520"/>
      <point x="753" y="1520" type="qcurve" name="at01"/>
      <point x="853" y="1520"/>
      <point x="1003" y="1462"/>
      <point x="1054" y="1397" type="qcurve"/>
      <point x="1151" y="1275"/>
      <point x="1151" y="1024" type="qcurve" name="sh02"/>
      <point x="1151" y="964"/>
      <point x="1140" y="846"/>
      <point x="1129" y="781" type="qcurve"/>
      <point x="1107" y="653"/>
      <point x="1063" y="516" type="qcurve"/>
      <point x="1047" y="466"/>
      <point x="1018" y="389"/>
      <point x="1001" y="351" type="qcurve"/>
      <point x="987" y="322"/>
      <point x="949" y="251"/>
      <point x="928" y="219" type="qcurve"/>
      <point x="889" y="160"/>
      <point x="788" y="64"/>
      <point x="731" y="32" type="qcurve"/>
      <point x="622" y="-29"/>
    </contour>
    <contour>
      <point x="498" y="135" type="qcurve" name="dv02"/>
      <point x="541" y="135"/>
      <point x="623" y="160"/>
      <point x="660" y="186" type="qcurve"/>
      <point x="700" y="215"/>
      <point x="757" y="291"/>
      <point x="778" y="331" type="qcurve"/>
      <point x="797" y="367"/>
      <point x="832" y="453"/>
      <point x="862" y="545"/>
      <point x="888" y="639"/>
      <point x="898" y="684" type="qcurve"/>
      <point x="921" y="787"/>
      <point x="944" y="986"/>
      <point x="944" y="1067" type="qcurve" name="ah01"/>
      <point x="944" y="1153"/>
      <point x="918" y="1256"/>
      <point x="892" y="1289" type="qcurve"/>
      <point x="866" y="1321"/>
      <point x="787" y="1356"/>
      <point x="734" y="1356" type="qcurve" name="sv03"/>
      <point x="690" y="1356"/>
      <point x="608" y="1331"/>
      <point x="572" y="1305" type="qcurve"/>
      <point x="537" y="1279"/>
      <point x="478" y="1205"/>
      <point x="455" y="1160" type="qcurve"/>
      <point x="420" y="1094"/>
      <point x="356" y="911"/>
      <point x="333" y="808" type="qcurve"/>
      <point x="310" y="708"/>
      <point x="287" y="513"/>
      <point x="287" y="429" type="qcurve" name="sh04"/>
      <point x="287" y="385"/>
      <point x="294" y="316"/>
      <point x="307" y="262"/>
      <point x="327" y="220"/>
      <point x="340" y="203" type="qcurve"/>
      <point x="369" y="167"/>
      <point x="450" y="135"/>
    </contour>
  </outline>
</glyph>
<glyph name="Odieresis" format="1">
  <advance width="1233"/>
  <unicode hex="00D6"/>
  <outline>
    <contour>
      <point x="492" y="1627" type="line" name="dv03"/>
      <point x="477" y="1627"/>
      <point x="462" y="1645"/>
      <point x="465" y="1660" type="qcurve"/>
      <point x="493" y="1803" type="line"/>
      <point x="497" y="1830"/>
      <point x="525" y="1830" type="qcurve" name="dv04"/>
      <point x="669" y="1830" type="line"/>
      <point x="696" y="1830"/>
      <point x="696" y="1806" type="qcurve"/>
      <point x="696" y="1800"/>
      <point x="695" y="1797" type="qcurve"/>
      <point x="666" y="1654" type="line"/>
      <point x="660" y="1627"/>
      <point x="634" y="1627" type="qcurve"/>
    </contour>
    <contour>
      <point x="883" y="1627" type="line" name="sv01"/>
      <point x="868" y="1627"/>
      <point x="853" y="1645"/>
      <point x="856" y="1660" type="qcurve"/>
      <point x="884" y="1803" type="line"/>
      <point x="888" y="1830"/>
      <point x="916" y="1830" type="qcurve" name="sv02"/>
      <point x="1059" y="1830" type="line"/>
      <point x="1074" y="1830"/>
      <point x="1089" y="1812"/>
      <point x="1086" y="1797" type="qcurve"/>
      <point x="1058" y="1654" type="line"/>
      <point x="1053" y="1627"/>
      <point x="1026" y="1627" type="qcurve"/>
    </contour>
    <contour>
      <point x="478" y="-29" type="qcurve" name="dv01"/>
      <point x="276" y="-29"/>
      <point x="179" y="94" type="qcurve"/>
      <point x="82" y="216"/>
      <point x="82" y="473" type="qcurve" name="sh01"/>
      <point x="82" y="537"/>
      <point x="93" y="649"/>
      <point x="104" y="712" type="qcurve"/>
      <point x="116" y="782"/>
      <point x="145" y="904"/>
      <point x="168" y="975" type="qcurve"/>
      <point x="184" y="1025"/>
      <point x="214" y="1103"/>
      <point x="231" y="1141" type="qcurve"/>
      <point x="251" y="1184"/>
      <point x="286" y="1245"/>
      <point x="303" y="1271" type="qcurve"/>
      <point x="389" y="1399"/>
      <point x="501" y="1460" type="qcurve"/>
      <point x="552" y="1488"/>
      <point x="674" y="1520"/>
      <point x="753" y="1520" type="qcurve" name="at01"/>
      <point x="853" y="1520"/>
      <point x="1003" y="1462"/>
      <point x="1054" y="1397" type="qcurve"/>
      <point x="1151" y="1275"/>
      <point x="1151" y="1024" type="qcurve" name="sh02"/>
      <point x="1151" y="964"/>
      <point x="1140" y="846"/>
      <point x="1129" y="781" type="qcurve"/>
      <point x="1107" y="653"/>
      <point x="1063" y="516" type="qcurve"/>
      <point x="1047" y="466"/>
      <point x="1018" y="389"/>
      <point x="1001" y="351" type="qcurve"/>
      <point x="987" y="322"/>
      <point x="949" y="251"/>
      <point x="928" y="219" type="qcurve"/>
      <point x="889" y="160"/>
      <point x="788" y="64"/>
      <point x="731" y="32" type="qcurve"/>
      <point x="622" y="-29"/>
    </contour>
    <contour>
      <point x="498" y="135" type="qcurve" name="dv02"/>
      <point x="541" y="135"/>
      <point x="623" y="160"/>
      <point x="660" y="186" type="qcurve"/>
      <point x="700" y="215"/>
      <point x="757" y="291"/>
      <point x="778" y="331" type="qcurve"/>
      <point x="797" y="367"/>
      <point x="832" y="453"/>
      <point x="862" y="545"/>
      <point x="888" y="639"/>
      <point x="898" y="684" type="qcurve"/>
      <point x="921" y="787"/>
      <point x="944" y="986"/>
      <point x="944" y="1067" type="qcurve" name="ah01"/>
      <point x="944" y="1153"/>
      <point x="918" y="1256"/>
      <point x="892" y="1289" type="qcurve"/>
      <point x="866" y="1321"/>
      <point x="787" y="1356"/>
      <point x="734" y="1356" type="qcurve" name="sv03"/>
      <point x="690" y="1356"/>
      <point x="608" y="1331"/>
      <point x="572" y="1305" type="qcurve"/>
      <point x="537" y="1279"/>
      <point x="478" y="1205"/>
      <point x="455" y="1160" type="qcurve"/>
      <point x="420" y="1094"/>
      <point x="356" y="911"/>
      <point x="333" y="808" type="qcurve"/>
      <point x="310" y="708"/>
      <point x="287" y="513"/>
      <point x="287" y="429" type="qcurve" name="sh03"/>
      <point x="287" y="385"/>
      <point x="294" y="316"/>
      <point x="307" y="262"/>
      <point x="327" y="220"/>
      <point x="340" y="203" type="qcurve"/>
      <point x="369" y="167"/>
      <point x="450" y="135"/>
    </contour>
  </outline>
</glyph>
<glyph name="Yacute" format="1">
  <advance width="1233"/>
  <unicode hex="00DD"/>
  <outline>
    <contour>
      <point x="921" y="1859" type="line" name="av01"/>
      <point x="1129" y="1859" type="line"/>
      <point x="822" y="1595" type="line"/>
      <point x="662" y="1595" type="line" name="iv01"/>
    </contour>
    <contour>
      <point x="508" y="670" type="line"/>
      <point x="195" y="1493" type="line" name="at01"/>
      <point x="397" y="1493" type="line"/>
      <point x="633" y="842" type="line" name="iv02"/>
      <point x="1130" y="1493" type="line" name="at02"/>
      <point x="1348" y="1493" type="line" name="iv03"/>
      <point x="713" y="670" type="line"/>
      <point x="584" y="0" type="line" name="ab01"/>
      <point x="377" y="0" type="line"/>
    </contour>
  </outline>
</glyph>
<glyph name="Thorn" format="1">
  <advance width="1233"/>
  <unicode hex="00DE"/>
  <outline>
    <contour>
      <point x="342" y="1493" type="line" name="at01"/>
      <point x="545" y="1491" type="line"/>
      <point x="494" y="1217" type="line"/>
      <point x="735" y="1217" type="line" name="sv02"/>
      <point x="942" y="1217"/>
      <point x="1051" y="1129" type="qcurve"/>
      <point x="1105" y="1085"/>
      <point x="1159" y="958"/>
      <point x="1159" y="867" type="qcurve" name="dh02"/>
      <point x="1159" y="756"/>
      <point x="1079" y="571"/>
      <point x="998" y="502" type="qcurve"/>
      <point x="837" y="365"/>
      <point x="557" y="365" type="qcurve" name="dv01"/>
      <point x="326" y="365" type="line"/>
      <point x="254" y="0" type="line" name="ab01"/>
      <point x="51" y="0" type="line"/>
    </contour>
    <contour>
      <point x="590" y="522" type="line" name="dv02"/>
      <point x="753" y="522"/>
      <point x="853" y="614" type="qcurve"/>
      <point x="903" y="660"/>
      <point x="952" y="782"/>
      <point x="952" y="853" type="qcurve" name="dh01"/>
      <point x="952" y="913"/>
      <point x="919" y="987"/>
      <point x="890" y="1010" type="qcurve"/>
      <point x="829" y="1059"/>
      <point x="698" y="1059" type="qcurve" name="sv01"/>
      <point x="461" y="1059" type="line"/>
      <point x="356" y="522" type="line"/>
    </contour>
  </outline>
</glyph>
<glyph name="germandbls" format="1">
  <advance width="1233"/>
  <unicode hex="00DF"/>
  <outline>
    <contour>
      <point x="599" y="-29" type="qcurve" name="dv01"/>
      <point x="561" y="-29"/>
      <point x="498" y="-23"/>
      <point x="462" y="-16" type="qcurve"/>
      <point x="421" y="-9"/>
      <point x="363" y="8"/>
      <point x="330" y="20" type="qcurve"/>
      <point x="360" y="184" type="line" name="iv01"/>
      <point x="418" y="152"/>
      <point x="486" y="136" type="qcurve"/>
      <point x="554" y="119"/>
      <point x="623" y="119" type="qcurve" name="dv02"/>
      <point x="753" y="119"/>
      <point x="830" y="182" type="qcurve"/>
      <point x="866" y="212"/>
      <point x="905" y="295"/>
      <point x="905" y="348" type="qcurve" name="ah01"/>
      <point x="905" y="379"/>
      <point x="892" y="425"/>
      <point x="878" y="445" type="qcurve"/>
      <point x="861" y="470"/>
      <point x="808" y="517"/>
      <point x="766" y="549" type="qcurve"/>
      <point x="705" y="596" type="line"/>
      <point x="662" y="629"/>
      <point x="605" y="681"/>
      <point x="587" y="710" type="qcurve" name="hr01"/>
      <point x="559" y="756"/>
      <point x="559" y="820" type="qcurve" name="sh01"/>
      <point x="559" y="950"/>
      <point x="661" y="1046" type="qcurve"/>
      <point x="708" y="1091"/>
      <point x="844" y="1159"/>
      <point x="940" y="1178" type="qcurve"/>
      <point x="942" y="1186"/>
      <point x="944" y="1200"/>
      <point x="945" y="1208" type="qcurve"/>
      <point x="946" y="1215"/>
      <point x="946" y="1225"/>
      <point x="946" y="1227" type="qcurve"/>
      <point x="946" y="1267"/>
      <point x="924" y="1336"/>
      <point x="895" y="1361" type="qcurve" name="sh02"/>
      <point x="871" y="1381"/>
      <point x="797" y="1405"/>
      <point x="747" y="1405" type="qcurve" name="sh04"/>
      <point x="690" y="1405"/>
      <point x="593" y="1372"/>
      <point x="558" y="1338" type="qcurve" name="sh05"/>
      <point x="526" y="1307"/>
      <point x="475" y="1207"/>
      <point x="461" y="1133" type="qcurve"/>
      <point x="242" y="0" type="line" name="ab01"/>
      <point x="55" y="0" type="line"/>
      <point x="276" y="1137" type="line"/>
      <point x="296" y="1242"/>
      <point x="378" y="1401"/>
      <point x="438" y="1453" type="qcurve"/>
      <point x="501" y="1507"/>
      <point x="663" y="1556"/>
      <point x="758" y="1556" type="qcurve" name="at01"/>
      <point x="849" y="1556"/>
      <point x="987" y="1514"/>
      <point x="1032" y="1476" type="qcurve"/>
      <point x="1126" y="1396"/>
      <point x="1126" y="1244" type="qcurve"/>
      <point x="1126" y="1230"/>
      <point x="1124" y="1196"/>
      <point x="1122" y="1179" type="qcurve"/>
      <point x="1120" y="1162"/>
      <point x="1113" y="1126"/>
      <point x="1108" y="1108" type="qcurve"/>
      <point x="934" y="1087"/>
      <point x="834" y="1020" type="qcurve"/>
      <point x="733" y="952"/>
      <point x="733" y="857" type="qcurve" name="sh03"/>
      <point x="733" y="836"/>
      <point x="743" y="804"/>
      <point x="754" y="788" type="qcurve"/>
      <point x="768" y="768"/>
      <point x="804" y="736"/>
      <point x="834" y="713" type="qcurve"/>
      <point x="885" y="674" type="line"/>
      <point x="939" y="632"/>
      <point x="1018" y="561"/>
      <point x="1041" y="523" type="qcurve"/>
      <point x="1081" y="458"/>
      <point x="1081" y="364" type="qcurve" name="sh06"/>
      <point x="1081" y="280"/>
      <point x="1019" y="135"/>
      <point x="952" y="79" type="qcurve"/>
      <point x="889" y="26"/>
      <point x="714" y="-29"/>
    </contour>
  </outline>
</glyph>
<glyph name="acircumflex" format="1">
  <advance width="1233"/>
  <unicode hex="00E2"/>
  <outline>
    <contour>
      <point x="721" y="1673" type="line" name="av01"/>
      <point x="868" y="1673" type="line"/>
      <point x="1032" y="1297" type="line" name="iv01"/>
      <point x="899" y="1297" type="line"/>
      <point x="782" y="1538" type="line" name="iv02"/>
      <point x="557" y="1297" type="line"/>
      <point x="401" y="1297" type="line" name="iv03"/>
    </contour>
    <contour>
      <point x="407" y="-29" type="qcurve" name="dv01"/>
      <point x="333" y="-29"/>
      <point x="210" y="12"/>
      <point x="164" y="54" type="qcurve"/>
      <point x="116" y="97"/>
      <point x="72" y="211"/>
      <point x="72" y="280" type="qcurve" name="dh01"/>
      <point x="72" y="372"/>
      <point x="150" y="532"/>
      <point x="226" y="590" type="qcurve"/>
      <point x="302" y="648"/>
      <point x="514" y="707"/>
      <point x="645" y="707" type="qcurve"/>
      <point x="891" y="707" type="line" name="dv04"/>
      <point x="903" y="768" type="line"/>
      <point x="906" y="787" type="line"/>
      <point x="907" y="792"/>
      <point x="907" y="802"/>
      <point x="907" y="804" type="qcurve"/>
      <point x="907" y="861"/>
      <point x="871" y="926"/>
      <point x="844" y="946" type="qcurve"/>
      <point x="815" y="967"/>
      <point x="727" y="991"/>
      <point x="665" y="991" type="qcurve" name="sv01"/>
      <point x="622" y="991"/>
      <point x="529" y="979"/>
      <point x="479" y="966" type="qcurve"/>
      <point x="428" y="953"/>
      <point x="324" y="915"/>
      <point x="268" y="889" type="qcurve" name="sh01"/>
      <point x="303" y="1069" type="line"/>
      <point x="357" y="1089"/>
      <point x="459" y="1118"/>
      <point x="508" y="1128" type="qcurve"/>
      <point x="557" y="1138"/>
      <point x="650" y="1147"/>
      <point x="693" y="1147" type="qcurve" name="at01"/>
      <point x="785" y="1147"/>
      <point x="933" y="1107"/>
      <point x="985" y="1065" type="qcurve"/>
      <point x="1034" y="1026"/>
      <point x="1087" y="911"/>
      <point x="1087" y="839" type="qcurve"/>
      <point x="1087" y="806"/>
      <point x="1081" y="754" type="qcurve"/>
      <point x="1077" y="722"/>
      <point x="1068" y="667"/>
      <point x="1063" y="639" type="qcurve"/>
      <point x="938" y="0" type="line" name="ab01"/>
      <point x="774" y="0" type="line"/>
      <point x="786" y="166" type="line" name="iv04"/>
      <point x="714" y="72"/>
      <point x="616" y="22" type="qcurve"/>
      <point x="566" y="-4"/>
      <point x="464" y="-29"/>
    </contour>
    <contour>
      <point x="461" y="125" type="qcurve" name="dv02"/>
      <point x="533" y="125"/>
      <point x="658" y="179"/>
      <point x="711" y="232" type="qcurve"/>
      <point x="767" y="288"/>
      <point x="839" y="436"/>
      <point x="856" y="522" type="qcurve"/>
      <point x="864" y="563" type="line" name="dv03"/>
      <point x="692" y="563" type="line"/>
      <point x="632" y="563"/>
      <point x="544" y="560"/>
      <point x="515" y="556" type="qcurve"/>
      <point x="486" y="552"/>
      <point x="434" y="538"/>
      <point x="414" y="530" type="qcurve"/>
      <point x="388" y="519"/>
      <point x="330" y="480"/>
      <point x="305" y="442" type="qcurve"/>
      <point x="264" y="380"/>
      <point x="264" y="307" type="qcurve" name="dh02"/>
      <point x="264" y="259"/>
      <point x="295" y="194"/>
      <point x="316" y="174" type="qcurve"/>
      <point x="340" y="151"/>
      <point x="411" y="125"/>
    </contour>
  </outline>
</glyph>
<glyph name="adieresis" format="1">
  <advance width="1233"/>
  <unicode hex="00E4"/>
  <outline>
    <contour>
      <point x="473" y="1350" type="line" name="dv03"/>
      <point x="458" y="1350"/>
      <point x="443" y="1368"/>
      <point x="446" y="1383" type="qcurve"/>
      <point x="474" y="1525" type="line"/>
      <point x="478" y="1552"/>
      <point x="506" y="1552" type="qcurve" name="dv04"/>
      <point x="649" y="1552" type="line"/>
      <point x="664" y="1552"/>
      <point x="679" y="1534"/>
      <point x="676" y="1519" type="qcurve"/>
      <point x="648" y="1377" type="line"/>
      <point x="643" y="1350"/>
      <point x="616" y="1350" type="qcurve"/>
    </contour>
    <contour>
      <point x="864" y="1350" type="line" name="sv01"/>
      <point x="849" y="1350"/>
      <point x="834" y="1368"/>
      <point x="837" y="1383" type="qcurve"/>
      <point x="865" y="1525" type="line"/>
      <point x="869" y="1552"/>
      <point x="897" y="1552" type="qcurve" name="sv02"/>
      <point x="1040" y="1552" type="line"/>
      <point x="1055" y="1552"/>
      <point x="1070" y="1534"/>
      <point x="1067" y="1519" type="qcurve"/>
      <point x="1039" y="1377" type="line"/>
      <point x="1034" y="1350"/>
      <point x="1007" y="1350" type="qcurve"/>
    </contour>
    <contour>
      <point x="407" y="-29" type="qcurve" name="dv01"/>
      <point x="333" y="-29"/>
      <point x="210" y="12"/>
      <point x="164" y="54" type="qcurve"/>
      <point x="116" y="97"/>
      <point x="72" y="211"/>
      <point x="72" y="280" type="qcurve" name="dh01"/>
      <point x="72" y="372"/>
      <point x="150" y="532"/>
      <point x="226" y="590" type="qcurve"/>
      <point x="302" y="648"/>
      <point x="514" y="707"/>
      <point x="645" y="707" type="qcurve"/>
      <point x="891" y="707" type="line" name="dv06"/>
      <point x="903" y="768" type="line"/>
      <point x="906" y="787" type="line"/>
      <point x="907" y="792"/>
      <point x="907" y="804"/>
      <point x="907" y="806" type="qcurve"/>
      <point x="907" y="902"/>
      <point x="845" y="946" type="qcurve"/>
      <point x="816" y="967"/>
      <point x="724" y="991"/>
      <point x="663" y="991" type="qcurve" name="sv03"/>
      <point x="621" y="991"/>
      <point x="529" y="979"/>
      <point x="479" y="966" type="qcurve"/>
      <point x="428" y="953"/>
      <point x="324" y="915"/>
      <point x="268" y="889" type="qcurve" name="sh01"/>
      <point x="303" y="1069" type="line"/>
      <point x="357" y="1089"/>
      <point x="459" y="1118"/>
      <point x="508" y="1128" type="qcurve"/>
      <point x="557" y="1138"/>
      <point x="650" y="1147"/>
      <point x="693" y="1147" type="qcurve" name="at01"/>
      <point x="785" y="1147"/>
      <point x="933" y="1107"/>
      <point x="985" y="1065" type="qcurve"/>
      <point x="1034" y="1026"/>
      <point x="1087" y="911"/>
      <point x="1087" y="839" type="qcurve"/>
      <point x="1087" y="806"/>
      <point x="1081" y="754" type="qcurve"/>
      <point x="1077" y="722"/>
      <point x="1068" y="667"/>
      <point x="1063" y="639" type="qcurve"/>
      <point x="938" y="0" type="line" name="ab01"/>
      <point x="774" y="0" type="line"/>
      <point x="786" y="166" type="line" name="iv01"/>
      <point x="714" y="72"/>
      <point x="616" y="22" type="qcurve"/>
      <point x="566" y="-4"/>
      <point x="464" y="-29"/>
    </contour>
    <contour>
      <point x="461" y="125" type="qcurve" name="dv02"/>
      <point x="533" y="125"/>
      <point x="658" y="179"/>
      <point x="711" y="232" type="qcurve"/>
      <point x="767" y="288"/>
      <point x="839" y="436"/>
      <point x="856" y="522" type="qcurve"/>
      <point x="864" y="563" type="line" name="dv05"/>
      <point x="692" y="563" type="line"/>
      <point x="632" y="563"/>
      <point x="544" y="560"/>
      <point x="515" y="556" type="qcurve"/>
      <point x="486" y="552"/>
      <point x="434" y="538"/>
      <point x="414" y="530" type="qcurve"/>
      <point x="388" y="519"/>
      <point x="330" y="480"/>
      <point x="305" y="442" type="qcurve"/>
      <point x="264" y="380"/>
      <point x="264" y="307" type="qcurve" name="dh02"/>
      <point x="264" y="259"/>
      <point x="295" y="194"/>
      <point x="316" y="174" type="qcurve"/>
      <point x="340" y="151"/>
      <point x="411" y="125"/>
    </contour>
  </outline>
</glyph>
<glyph name="aring" format="1">
  <advance width="1233"/>
  <unicode hex="00E5"/>
  <outline>
    <contour>
      <point x="782" y="1321" type="qcurve" name="dv05"/>
      <point x="668" y="1321"/>
      <point x="588" y="1401" type="qcurve"/>
      <point x="508" y="1481"/>
      <point x="508" y="1595" type="qcurve" name="dh03"/>
      <point x="508" y="1711"/>
      <point x="588" y="1791" type="qcurve"/>
      <point x="667" y="1870"/>
      <point x="782" y="1870" type="qcurve" name="dv04"/>
      <point x="898" y="1870"/>
      <point x="977" y="1791" type="qcurve"/>
      <point x="1057" y="1711"/>
      <point x="1057" y="1595" type="qcurve"/>
      <point x="1057" y="1481"/>
      <point x="977" y="1401" type="qcurve"/>
      <point x="897" y="1321"/>
    </contour>
    <contour>
      <point x="782" y="1444" type="qcurve" name="dv06"/>
      <point x="846" y="1444"/>
      <point x="890" y="1488" type="qcurve"/>
      <point x="934" y="1532"/>
      <point x="934" y="1595" type="qcurve"/>
      <point x="934" y="1659"/>
      <point x="890" y="1703" type="qcurve"/>
      <point x="846" y="1747"/>
      <point x="782" y="1747" type="qcurve" name="dv03"/>
      <point x="718" y="1747"/>
      <point x="675" y="1704" type="qcurve"/>
      <point x="631" y="1660"/>
      <point x="631" y="1595" type="qcurve" name="dh04"/>
      <point x="631" y="1532"/>
      <point x="675" y="1488" type="qcurve"/>
      <point x="719" y="1444"/>
    </contour>
    <contour>
      <point x="407" y="-29" type="qcurve" name="dv01"/>
      <point x="333" y="-29"/>
      <point x="210" y="12"/>
      <point x="164" y="54" type="qcurve"/>
      <point x="116" y="97"/>
      <point x="72" y="211"/>
      <point x="72" y="280" type="qcurve" name="dh01"/>
      <point x="72" y="372"/>
      <point x="150" y="532"/>
      <point x="226" y="590" type="qcurve"/>
      <point x="302" y="648"/>
      <point x="514" y="707"/>
      <point x="645" y="707" type="qcurve"/>
      <point x="891" y="707" type="line" name="dv08"/>
      <point x="903" y="768" type="line"/>
      <point x="906" y="787" type="line"/>
      <point x="907" y="792"/>
      <point x="907" y="802"/>
      <point x="907" y="804" type="qcurve"/>
      <point x="907" y="861"/>
      <point x="871" y="926"/>
      <point x="844" y="946" type="qcurve"/>
      <point x="815" y="967"/>
      <point x="727" y="991"/>
      <point x="665" y="991" type="qcurve" name="sv01"/>
      <point x="622" y="991"/>
      <point x="529" y="979"/>
      <point x="479" y="966" type="qcurve"/>
      <point x="428" y="953"/>
      <point x="324" y="915"/>
      <point x="268" y="889" type="qcurve" name="sh01"/>
      <point x="303" y="1069" type="line"/>
      <point x="357" y="1089"/>
      <point x="459" y="1118"/>
      <point x="508" y="1128" type="qcurve"/>
      <point x="557" y="1138"/>
      <point x="650" y="1147"/>
      <point x="693" y="1147" type="qcurve" name="at01"/>
      <point x="785" y="1147"/>
      <point x="933" y="1107"/>
      <point x="985" y="1065" type="qcurve" name="hr01"/>
      <point x="1034" y="1026"/>
      <point x="1087" y="911"/>
      <point x="1087" y="839" type="qcurve"/>
      <point x="1087" y="806"/>
      <point x="1081" y="754" type="qcurve"/>
      <point x="1077" y="722"/>
      <point x="1068" y="667"/>
      <point x="1063" y="639" type="qcurve"/>
      <point x="938" y="0" type="line" name="ab01"/>
      <point x="774" y="0" type="line"/>
      <point x="786" y="166" type="line" name="iv01"/>
      <point x="714" y="72"/>
      <point x="616" y="22" type="qcurve"/>
      <point x="566" y="-4"/>
      <point x="464" y="-29"/>
    </contour>
    <contour>
      <point x="461" y="125" type="qcurve" name="dv02"/>
      <point x="533" y="125"/>
      <point x="658" y="179"/>
      <point x="711" y="232" type="qcurve"/>
      <point x="767" y="288"/>
      <point x="839" y="436"/>
      <point x="856" y="522" type="qcurve"/>
      <point x="864" y="563" type="line" name="dv07"/>
      <point x="692" y="563" type="line"/>
      <point x="632" y="563"/>
      <point x="544" y="560"/>
      <point x="515" y="556" type="qcurve"/>
      <point x="486" y="552"/>
      <point x="434" y="538"/>
      <point x="414" y="530" type="qcurve"/>
      <point x="388" y="519"/>
      <point x="330" y="480"/>
      <point x="305" y="442" type="qcurve"/>
      <point x="264" y="380"/>
      <point x="264" y="307" type="qcurve" name="dh02"/>
      <point x="264" y="259"/>
      <point x="295" y="194"/>
      <point x="316" y="174" type="qcurve"/>
      <point x="340" y="151"/>
      <point x="411" y="125"/>
    </contour>
  </outline>
</glyph>
<glyph name="ae" format="1">
  <advance width="1233"/>
  <unicode hex="00E6"/>
  <outline>
    <contour>
      <point x="234" y="-29" type="qcurve" name="sv01"/>
      <point x="166" y="-29"/>
      <point x="61" y="11"/>
      <point x="28" y="43" type="qcurve"/>
      <point x="-13" y="81"/>
      <point x="-47" y="189"/>
      <point x="-47" y="252" type="qcurve" name="sh01"/>
      <point x="-47" y="339"/>
      <point x="13" y="494"/>
      <point x="74" y="549" type="qcurve"/>
      <point x="194" y="657"/>
      <point x="418" y="657" type="qcurve" name="sv02"/>
      <point x="535" y="657" type="line"/>
      <point x="553" y="745" type="line"/>
      <point x="556" y="759"/>
      <point x="558" y="774"/>
      <point x="559" y="787" type="qcurve"/>
      <point x="560" y="798"/>
      <point x="561" y="821"/>
      <point x="561" y="832" type="qcurve"/>
      <point x="561" y="874"/>
      <point x="539" y="933"/>
      <point x="519" y="953" type="qcurve"/>
      <point x="500" y="972"/>
      <point x="440" y="995"/>
      <point x="400" y="995" type="qcurve" name="sv03"/>
      <point x="373" y="995"/>
      <point x="314" y="984"/>
      <point x="284" y="974" type="qcurve"/>
      <point x="252" y="963"/>
      <point x="178" y="931"/>
      <point x="141" y="911" type="qcurve" name="ih01"/>
      <point x="176" y="1079" type="line"/>
      <point x="220" y="1098"/>
      <point x="290" y="1122"/>
      <point x="324" y="1130" type="qcurve"/>
      <point x="359" y="1138"/>
      <point x="421" y="1147"/>
      <point x="450" y="1147" type="qcurve" name="at01"/>
      <point x="531" y="1147"/>
      <point x="590" y="1114" type="qcurve"/>
      <point x="648" y="1081"/>
      <point x="680" y="1018" type="qcurve" name="ih02"/>
      <point x="703" y="1047"/>
      <point x="765" y="1097"/>
      <point x="800" y="1114" type="qcurve"/>
      <point x="836" y="1131"/>
      <point x="913" y="1147"/>
      <point x="950" y="1147" type="qcurve" name="at02"/>
      <point x="1009" y="1147"/>
      <point x="1107" y="1109"/>
      <point x="1143" y="1070" type="qcurve"/>
      <point x="1178" y="1032"/>
      <point x="1214" y="927"/>
      <point x="1214" y="867" type="qcurve" name="sh02"/>
      <point x="1214" y="846"/>
      <point x="1210" y="789"/>
      <point x="1206" y="760" type="qcurve" name="sh03"/>
      <point x="1204" y="749"/>
      <point x="1199" y="710"/>
      <point x="1191" y="666"/>
      <point x="1183" y="622"/>
      <point x="1180" y="604" type="qcurve"/>
      <point x="1163" y="514" type="line" name="dv03"/>
      <point x="668" y="514" type="line"/>
      <point x="656" y="457"/>
      <point x="645" y="394"/>
      <point x="641" y="368" type="qcurve"/>
      <point x="637" y="340"/>
      <point x="633" y="302"/>
      <point x="633" y="285" type="qcurve"/>
      <point x="633" y="244"/>
      <point x="659" y="183"/>
      <point x="682" y="163" type="qcurve"/>
      <point x="731" y="119"/>
      <point x="815" y="119" type="qcurve" name="dv02"/>
      <point x="884" y="119"/>
      <point x="957" y="148" type="qcurve"/>
      <point x="1027" y="176"/>
      <point x="1081" y="227" type="qcurve" name="ih03"/>
      <point x="1047" y="55" type="line" name="sh04"/>
      <point x="1019" y="35"/>
      <point x="952" y="2"/>
      <point x="922" y="-8" type="qcurve"/>
      <point x="857" y="-29"/>
      <point x="785" y="-29" type="qcurve" name="dv01"/>
      <point x="732" y="-29"/>
      <point x="642" y="-7"/>
      <point x="608" y="13" type="qcurve"/>
      <point x="574" y="33"/>
      <point x="526" y="93"/>
      <point x="514" y="131" type="qcurve" name="ih04"/>
      <point x="467" y="51"/>
      <point x="397" y="11" type="qcurve"/>
      <point x="362" y="-9"/>
      <point x="279" y="-29"/>
    </contour>
    <contour>
      <point x="1024" y="657" type="line" name="dv04"/>
      <point x="1040" y="731" type="line" name="sh05"/>
      <point x="1044" y="748"/>
      <point x="1048" y="777"/>
      <point x="1049" y="786" type="qcurve" name="sh06"/>
      <point x="1050" y="797"/>
      <point x="1051" y="833"/>
      <point x="1051" y="844" type="qcurve" name="ah01"/>
      <point x="1051" y="883"/>
      <point x="1033" y="938"/>
      <point x="1016" y="957" type="qcurve"/>
      <point x="983" y="995"/>
      <point x="922" y="995" type="qcurve" name="sv04"/>
      <point x="887" y="995"/>
      <point x="817" y="967"/>
      <point x="788" y="932" type="qcurve"/>
      <point x="759" y="897"/>
      <point x="725" y="803"/>
      <point x="711" y="739" type="qcurve"/>
      <point x="694" y="657" type="line"/>
    </contour>
    <contour>
      <point x="267" y="123" type="qcurve" name="sv05"/>
      <point x="350" y="123"/>
      <point x="401" y="191" type="qcurve"/>
      <point x="414" y="209"/>
      <point x="437" y="255"/>
      <point x="458" y="316"/>
      <point x="477" y="393"/>
      <point x="487" y="442" type="qcurve"/>
      <point x="502" y="514" type="line" name="sv06"/>
      <point x="453" y="514" type="line"/>
      <point x="386" y="514"/>
      <point x="306" y="507"/>
      <point x="276" y="498" type="qcurve"/>
      <point x="245" y="489"/>
      <point x="205" y="464"/>
      <point x="188" y="444" type="qcurve"/>
      <point x="170" y="424"/>
      <point x="149" y="385"/>
      <point x="141" y="362" type="qcurve"/>
      <point x="123" y="311"/>
      <point x="123" y="267" type="qcurve" name="sh07"/>
      <point x="123" y="240"/>
      <point x="140" y="184"/>
      <point x="161" y="162" type="qcurve"/>
      <point x="183" y="140"/>
      <point x="239" y="123"/>
    </contour>
  </outline>
</glyph>
<glyph name="ccedilla" format="1">
  <advance width="1233"/>
  <unicode hex="00E7"/>
  <outline>
    <contour>
      <point x="469" y="813" type="qcurve" name="hr00"/>
      <point x="443" y="775"/>
      <point x="398" y="680"/>
      <point x="382" y="626" type="qcurve"/>
      <point x="350" y="518"/>
      <point x="350" y="418" type="qcurve" name="sh02"/>
      <point x="350" y="349"/>
      <point x="383" y="238"/>
      <point x="418" y="200" type="qcurve"/>
      <point x="450" y="165"/>
      <point x="551" y="127"/>
      <point x="625" y="127" type="qcurve" name="sh03"/>
      <point x="670" y="127"/>
      <point x="763" y="142"/>
      <point x="808" y="158" type="qcurve"/>
      <point x="855" y="175"/>
      <point x="941" y="223"/>
      <point x="979" y="252" type="qcurve"/>
      <point x="940" y="51" type="line"/>
      <point x="897" y="28"/>
      <point x="822" y="1"/>
      <point x="784" y="-8" type="qcurve"/>
      <point x="760" y="-14"/>
      <point x="712" y="-22"/>
      <point x="688" y="-25" type="qcurve" name="ih01"/>
      <point x="702" y="-49"/>
      <point x="721" y="-92"/>
      <point x="729" y="-111" type="qcurve"/>
      <point x="746" y="-156"/>
      <point x="746" y="-198" type="qcurve" name="sh04"/>
      <point x="746" y="-240"/>
      <point x="711" y="-313"/>
      <point x="676" y="-341" type="qcurve"/>
      <point x="607" y="-395"/>
      <point x="485" y="-395" type="qcurve" name="dv01"/>
      <point x="465" y="-395"/>
      <point x="418" y="-392"/>
      <point x="395" y="-388" type="qcurve"/>
      <point x="350" y="-381"/>
      <point x="301" y="-365" type="qcurve"/>
      <point x="326" y="-236" type="line" name="ih02"/>
      <point x="346" y="-246"/>
      <point x="389" y="-261"/>
      <point x="403" y="-265" type="qcurve"/>
      <point x="437" y="-274"/>
      <point x="472" y="-274" type="qcurve" name="dv02"/>
      <point x="503" y="-274"/>
      <point x="557" y="-259"/>
      <point x="576" y="-244" type="qcurve"/>
      <point x="595" y="-229"/>
      <point x="613" y="-187"/>
      <point x="613" y="-163" type="qcurve" name="ah01"/>
      <point x="613" y="-146"/>
      <point x="605" y="-109"/>
      <point x="599" y="-93" type="qcurve" name="sh05"/>
      <point x="596" y="-84"/>
      <point x="580" y="-49"/>
      <point x="570" y="-28" type="qcurve" name="dv03"/>
      <point x="469" y="-23"/>
      <point x="322" y="34"/>
      <point x="271" y="84" type="qcurve"/>
      <point x="213" y="141"/>
      <point x="156" y="306"/>
      <point x="156" y="412" type="qcurve" name="sh01"/>
      <point x="156" y="487"/>
      <point x="183" y="640"/>
      <point x="209" y="709" type="qcurve"/>
      <point x="235" y="778"/>
      <point x="309" y="900"/>
      <point x="354" y="950" type="qcurve" name="sh06"/>
      <point x="402" y="1003"/>
      <point x="511" y="1077"/>
      <point x="559" y="1098" type="qcurve"/>
      <point x="669" y="1147"/>
      <point x="804" y="1147" type="qcurve" name="at01"/>
      <point x="892" y="1147"/>
      <point x="975" y="1126" type="qcurve"/>
      <point x="1013" y="1116"/>
      <point x="1097" y="1083"/>
      <point x="1137" y="1061" type="qcurve"/>
      <point x="1100" y="879" type="line"/>
      <point x="1035" y="937"/>
      <point x="964" y="964" type="qcurve"/>
      <point x="893" y="991"/>
      <point x="810" y="991" type="qcurve" name="sv01"/>
      <point x="699" y="991"/>
      <point x="614" y="947" type="qcurve" name="sh07"/>
      <point x="572" y="925"/>
      <point x="499" y="858"/>
    </contour>
  </outline>
</glyph>
<glyph name="egrave" format="1">
  <advance width="1233"/>
  <unicode hex="00E8"/>
  <outline>
    <contour>
      <point x="453" y="1673" type="line" name="ih01"/>
      <point x="651" y="1673" type="line"/>
      <point x="848" y="1297" type="line" name="ih02"/>
      <point x="705" y="1297" type="line"/>
    </contour>
    <contour>
      <point x="558" y="-29" type="qcurve" name="dv01"/>
      <point x="438" y="-29"/>
      <point x="269" y="29"/>
      <point x="213" y="83" type="qcurve"/>
      <point x="98" y="195"/>
      <point x="98" y="410" type="qcurve" name="sh01"/>
      <point x="98" y="564"/>
      <point x="158" y="714" type="qcurve"/>
      <point x="218" y="864"/>
      <point x="324" y="973" type="qcurve"/>
      <point x="369" y="1020"/>
      <point x="459" y="1082"/>
      <point x="508" y="1104" type="qcurve"/>
      <point x="559" y="1127"/>
      <point x="662" y="1149"/>
      <point x="719" y="1149" type="qcurve" name="dv05"/>
      <point x="814" y="1149"/>
      <point x="962" y="1089"/>
      <point x="1015" y="1035" type="qcurve"/>
      <point x="1070" y="978"/>
      <point x="1126" y="821"/>
      <point x="1126" y="729" type="qcurve" name="sh02"/>
      <point x="1126" y="708"/>
      <point x="1123" y="670"/>
      <point x="1121" y="645" type="qcurve" name="sh03"/>
      <point x="1119" y="629"/>
      <point x="1112" y="564"/>
      <point x="1104" y="516" type="qcurve" name="dv03"/>
      <point x="297" y="516" type="line" name="sh05"/>
      <point x="291" y="486"/>
      <point x="288" y="458" type="qcurve" name="sh06"/>
      <point x="285" y="432"/>
      <point x="285" y="409" type="qcurve" name="sh04"/>
      <point x="285" y="274"/>
      <point x="362" y="200" type="qcurve"/>
      <point x="400" y="163"/>
      <point x="512" y="127"/>
      <point x="584" y="127" type="qcurve" name="dv02"/>
      <point x="631" y="127"/>
      <point x="726" y="142"/>
      <point x="779" y="156" type="qcurve"/>
      <point x="884" y="185"/>
      <point x="997" y="240" type="qcurve" name="ih03"/>
      <point x="961" y="57" type="line" name="sh07"/>
      <point x="904" y="34"/>
      <point x="808" y="4"/>
      <point x="756" y="-7" type="qcurve"/>
      <point x="706" y="-18"/>
      <point x="612" y="-29"/>
    </contour>
    <contour>
      <point x="938" y="659" type="line" name="sh08"/>
      <point x="941" y="673"/>
      <point x="945" y="695"/>
      <point x="946" y="704" type="qcurve" name="sh09"/>
      <point x="947" y="712"/>
      <point x="948" y="729"/>
      <point x="948" y="741" type="qcurve" name="ah01"/>
      <point x="948" y="856"/>
      <point x="883" y="924" type="qcurve"/>
      <point x="851" y="958"/>
      <point x="760" y="991"/>
      <point x="706" y="991" type="qcurve" name="dv04"/>
      <point x="646" y="991"/>
      <point x="530" y="949"/>
      <point x="477" y="901" type="qcurve"/>
      <point x="431" y="859"/>
      <point x="354" y="737"/>
      <point x="332" y="659" type="qcurve"/>
    </contour>
  </outline>
</glyph>
<glyph name="ecircumflex" format="1">
  <advance width="1233"/>
  <unicode hex="00EA"/>
  <outline>
    <contour>
      <point x="717" y="1673" type="line" name="av01"/>
      <point x="864" y="1673" type="line"/>
      <point x="1028" y="1297" type="line" name="ih01"/>
      <point x="895" y="1297" type="line"/>
      <point x="778" y="1538" type="line" name="ih02"/>
      <point x="553" y="1297" type="line"/>
      <point x="397" y="1297" type="line" name="ih03"/>
    </contour>
    <contour>
      <point x="558" y="-29" type="qcurve" name="dv01"/>
      <point x="438" y="-29"/>
      <point x="269" y="29"/>
      <point x="213" y="83" type="qcurve"/>
      <point x="98" y="195"/>
      <point x="98" y="410" type="qcurve" name="sh02"/>
      <point x="98" y="564"/>
      <point x="158" y="714" type="qcurve"/>
      <point x="218" y="864"/>
      <point x="324" y="973" type="qcurve"/>
      <point x="369" y="1020"/>
      <point x="459" y="1082"/>
      <point x="508" y="1104" type="qcurve"/>
      <point x="559" y="1127"/>
      <point x="662" y="1149"/>
      <point x="719" y="1149" type="qcurve" name="dv05"/>
      <point x="814" y="1149"/>
      <point x="962" y="1089"/>
      <point x="1015" y="1035" type="qcurve"/>
      <point x="1070" y="978"/>
      <point x="1126" y="821"/>
      <point x="1126" y="729" type="qcurve" name="sh01"/>
      <point x="1126" y="708"/>
      <point x="1123" y="670"/>
      <point x="1121" y="645" type="qcurve" name="sh03"/>
      <point x="1119" y="629"/>
      <point x="1112" y="564"/>
      <point x="1104" y="516" type="qcurve" name="dv03"/>
      <point x="297" y="516" type="line" name="sh05"/>
      <point x="291" y="486"/>
      <point x="288" y="458" type="qcurve" name="sh06"/>
      <point x="285" y="432"/>
      <point x="285" y="409" type="qcurve" name="sh04"/>
      <point x="285" y="274"/>
      <point x="362" y="200" type="qcurve"/>
      <point x="400" y="163"/>
      <point x="512" y="127"/>
      <point x="584" y="127" type="qcurve" name="dv02"/>
      <point x="631" y="127"/>
      <point x="726" y="142"/>
      <point x="779" y="156" type="qcurve"/>
      <point x="884" y="185"/>
      <point x="997" y="240" type="qcurve" name="ih04"/>
      <point x="961" y="57" type="line" name="sh07"/>
      <point x="904" y="34"/>
      <point x="808" y="4"/>
      <point x="756" y="-7" type="qcurve"/>
      <point x="706" y="-18"/>
      <point x="612" y="-29"/>
    </contour>
    <contour>
      <point x="938" y="659" type="line" name="sh08"/>
      <point x="941" y="673"/>
      <point x="945" y="695"/>
      <point x="946" y="704" type="qcurve" name="sh09"/>
      <point x="947" y="712"/>
      <point x="948" y="729"/>
      <point x="948" y="741" type="qcurve" name="ah01"/>
      <point x="948" y="856"/>
      <point x="883" y="924" type="qcurve"/>
      <point x="851" y="958"/>
      <point x="760" y="991"/>
      <point x="706" y="991" type="qcurve" name="dv04"/>
      <point x="646" y="991"/>
      <point x="530" y="949"/>
      <point x="477" y="901" type="qcurve"/>
      <point x="431" y="859"/>
      <point x="354" y="737"/>
      <point x="332" y="659" type="qcurve"/>
    </contour>
  </outline>
</glyph>
<glyph name="iacute" format="1">
  <advance width="1233"/>
  <unicode hex="00ED"/>
  <outline>
    <contour>
      <point x="828" y="1673" type="line" name="av01"/>
      <point x="1047" y="1673" type="line"/>
      <point x="652" y="1297" type="line"/>
      <point x="496" y="1297" type="line" name="ih01"/>
    </contour>
    <contour>
      <point x="749" y="-4" type="line" name="ab01"/>
      <point x="575" y="-4"/>
      <point x="492" y="60" type="qcurve"/>
      <point x="407" y="124"/>
      <point x="407" y="252" type="qcurve" name="dh01"/>
      <point x="407" y="269"/>
      <point x="410" y="302"/>
      <point x="412" y="322" type="qcurve" name="sh01"/>
      <point x="414" y="342"/>
      <point x="421" y="386"/>
      <point x="426" y="408" type="qcurve"/>
      <point x="559" y="976" type="line" name="sv01"/>
      <point x="313" y="976" type="line"/>
      <point x="342" y="1120" type="line" name="at01"/>
      <point x="772" y="1120" type="line"/>
      <point x="610" y="404" type="line"/>
      <point x="606" y="388"/>
      <point x="601" y="350"/>
      <point x="600" y="342" type="qcurve"/>
      <point x="598" y="326"/>
      <point x="596" y="307"/>
      <point x="596" y="297" type="qcurve" name="dh02"/>
      <point x="596" y="223"/>
      <point x="640" y="188" type="qcurve"/>
      <point x="685" y="152"/>
      <point x="776" y="152" type="qcurve" name="sv02"/>
      <point x="987" y="152" type="line"/>
      <point x="956" y="-4" type="line"/>
    </contour>
  </outline>
</glyph>
<glyph name="idieresis" format="1">
  <advance width="1233"/>
  <unicode hex="00EF"/>
  <outline>
    <contour>
      <point x="380" y="1350" type="line" name="dv01"/>
      <point x="365" y="1350"/>
      <point x="350" y="1368"/>
      <point x="353" y="1383" type="qcurve"/>
      <point x="381" y="1525" type="line"/>
      <point x="385" y="1552"/>
      <point x="413" y="1552" type="qcurve" name="dv02"/>
      <point x="556" y="1552" type="line"/>
      <point x="571" y="1552"/>
      <point x="586" y="1534"/>
      <point x="583" y="1519" type="qcurve"/>
      <point x="555" y="1377" type="line"/>
      <point x="550" y="1350"/>
      <point x="523" y="1350" type="qcurve"/>
    </contour>
    <contour>
      <point x="771" y="1350" type="line" name="sv01"/>
      <point x="756" y="1350"/>
      <point x="741" y="1368"/>
      <point x="744" y="1383" type="qcurve"/>
      <point x="772" y="1525" type="line"/>
      <point x="776" y="1552"/>
      <point x="804" y="1552" type="qcurve" name="sv02"/>
      <point x="947" y="1552" type="line"/>
      <point x="962" y="1552"/>
      <point x="977" y="1534"/>
      <point x="974" y="1519" type="qcurve"/>
      <point x="946" y="1377" type="line"/>
      <point x="941" y="1350"/>
      <point x="914" y="1350" type="qcurve"/>
    </contour>
    <contour>
      <point x="749" y="-4" type="line" name="ab01"/>
      <point x="575" y="-4"/>
      <point x="492" y="60" type="qcurve"/>
      <point x="407" y="124"/>
      <point x="407" y="252" type="qcurve" name="dh01"/>
      <point x="407" y="269"/>
      <point x="410" y="302"/>
      <point x="412" y="322" type="qcurve" name="sh01"/>
      <point x="414" y="342"/>
      <point x="421" y="386"/>
      <point x="426" y="408" type="qcurve"/>
      <point x="559" y="976" type="line" name="sv03"/>
      <point x="313" y="976" type="line"/>
      <point x="342" y="1120" type="line" name="at01"/>
      <point x="772" y="1120" type="line"/>
      <point x="610" y="404" type="line"/>
      <point x="606" y="388"/>
      <point x="601" y="350"/>
      <point x="600" y="342" type="qcurve"/>
      <point x="598" y="326"/>
      <point x="596" y="307"/>
      <point x="596" y="297" type="qcurve" name="dh02"/>
      <point x="596" y="223"/>
      <point x="640" y="188" type="qcurve"/>
      <point x="685" y="152"/>
      <point x="776" y="152" type="qcurve" name="sv04"/>
      <point x="987" y="152" type="line"/>
      <point x="956" y="-4" type="line"/>
    </contour>
  </outline>
</glyph>
<glyph name="eth" format="1">
  <advance width="1233"/>
  <unicode hex="00F0"/>
  <outline>
    <contour>
      <point x="516" y="-29" type="qcurve" name="dv01"/>
      <point x="323" y="-29"/>
      <point x="221" y="79" type="qcurve"/>
      <point x="167" y="136"/>
      <point x="119" y="291"/>
      <point x="119" y="389" type="qcurve" name="sh01"/>
      <point x="119" y="514"/>
      <point x="157" y="637" type="qcurve"/>
      <point x="177" y="703"/>
      <point x="237" y="822"/>
      <point x="266" y="864" type="qcurve"/>
      <point x="343" y="976"/>
      <point x="458" y="1037" type="qcurve"/>
      <point x="516" y="1068"/>
      <point x="641" y="1098"/>
      <point x="697" y="1098" type="qcurve" name="dv04"/>
      <point x="715" y="1098"/>
      <point x="749" y="1095"/>
      <point x="772" y="1093" type="qcurve" name="sv01"/>
      <point x="805" y="1090" type="line" name="ih01"/>
      <point x="785" y="1127"/>
      <point x="760" y="1171" type="qcurve"/>
      <point x="755" y="1178"/>
      <point x="740" y="1203"/>
      <point x="721" y="1231"/>
      <point x="701" y="1260"/>
      <point x="692" y="1272" type="qcurve"/>
      <point x="395" y="1178" type="line"/>
      <point x="365" y="1270" type="line"/>
      <point x="639" y="1356" type="line" name="ih02"/>
      <point x="498" y="1556" type="line" name="ih03"/>
      <point x="711" y="1556" type="line"/>
      <point x="815" y="1411" type="line"/>
      <point x="1102" y="1499" type="line" name="sh03"/>
      <point x="1130" y="1407" type="line"/>
      <point x="870" y="1327" type="line" name="ih04"/>
      <point x="932" y="1241"/>
      <point x="1022" y="1080"/>
      <point x="1050" y="1007" type="qcurve"/>
      <point x="1106" y="860"/>
      <point x="1106" y="701" type="qcurve" name="sh02"/>
      <point x="1106" y="637"/>
      <point x="1088" y="505"/>
      <point x="1069" y="440" type="qcurve"/>
      <point x="1032" y="311"/>
      <point x="961" y="207" type="qcurve"/>
      <point x="919" y="146"/>
      <point x="828" y="61"/>
      <point x="771" y="31" type="qcurve"/>
      <point x="657" y="-29"/>
    </contour>
    <contour>
      <point x="534" y="127" type="qcurve" name="dv02"/>
      <point x="613" y="127"/>
      <point x="753" y="208"/>
      <point x="806" y="288" type="qcurve"/>
      <point x="859" y="369"/>
      <point x="911" y="580"/>
      <point x="911" y="702" type="qcurve" name="ah01"/>
      <point x="911" y="738"/>
      <point x="907" y="794"/>
      <point x="902" y="820" type="qcurve" name="sh04"/>
      <point x="893" y="871"/>
      <point x="874" y="907" type="qcurve"/>
      <point x="837" y="926"/>
      <point x="797" y="935" type="qcurve"/>
      <point x="756" y="944"/>
      <point x="714" y="944" type="qcurve" name="dv03"/>
      <point x="620" y="944"/>
      <point x="475" y="862"/>
      <point x="424" y="789" type="qcurve"/>
      <point x="396" y="749"/>
      <point x="354" y="655"/>
      <point x="327" y="554"/>
      <point x="313" y="449"/>
      <point x="313" y="398" type="qcurve" name="sh05"/>
      <point x="313" y="331"/>
      <point x="338" y="227"/>
      <point x="370" y="192" type="qcurve"/>
      <point x="396" y="163"/>
      <point x="479" y="127"/>
    </contour>
  </outline>
</glyph>
<glyph name="ntilde" format="1">
  <advance width="1233"/>
  <unicode hex="00F1"/>
  <outline>
    <contour>
      <point x="890" y="1297" type="qcurve" name="sv01"/>
      <point x="847" y="1297"/>
      <point x="814" y="1312" type="qcurve"/>
      <point x="799" y="1319"/>
      <point x="762" y="1344"/>
      <point x="741" y="1366" type="qcurve"/>
      <point x="694" y="1415" type="line"/>
      <point x="689" y="1420"/>
      <point x="668" y="1438"/>
      <point x="658" y="1443" type="qcurve"/>
      <point x="641" y="1452"/>
      <point x="621" y="1452" type="qcurve"/>
      <point x="606" y="1452"/>
      <point x="572" y="1438"/>
      <point x="558" y="1415" type="qcurve"/>
      <point x="533" y="1377"/>
      <point x="526" y="1299" type="qcurve" name="dv01"/>
      <point x="401" y="1299" type="line"/>
      <point x="417" y="1434"/>
      <point x="475" y="1508" type="qcurve"/>
      <point x="532" y="1581"/>
      <point x="622" y="1581" type="qcurve" name="dv02"/>
      <point x="665" y="1581"/>
      <point x="698" y="1566" type="qcurve"/>
      <point x="715" y="1558"/>
      <point x="752" y="1530"/>
      <point x="770" y="1512" type="qcurve"/>
      <point x="817" y="1465" type="line"/>
      <point x="831" y="1451"/>
      <point x="843" y="1441"/>
      <point x="854" y="1435" type="qcurve"/>
      <point x="870" y="1426"/>
      <point x="888" y="1426" type="qcurve"/>
      <point x="908" y="1426"/>
      <point x="942" y="1447"/>
      <point x="953" y="1465" type="qcurve"/>
      <point x="964" y="1483"/>
      <point x="981" y="1542"/>
      <point x="985" y="1581" type="qcurve" name="sv02"/>
      <point x="1110" y="1581" type="line" name="sh01"/>
      <point x="1102" y="1518"/>
      <point x="1066" y="1409"/>
      <point x="1037" y="1371" type="qcurve"/>
      <point x="1008" y="1333"/>
      <point x="934" y="1297"/>
    </contour>
    <contour>
      <point x="303" y="1120" type="line" name="at01"/>
      <point x="467" y="1120" type="line"/>
      <point x="455" y="952" type="line" name="iv01"/>
      <point x="529" y="1048"/>
      <point x="618" y="1098" type="qcurve"/>
      <point x="661" y="1122"/>
      <point x="751" y="1147"/>
      <point x="807" y="1147" type="qcurve" name="at02"/>
      <point x="873" y="1147"/>
      <point x="981" y="1111"/>
      <point x="1019" y="1075" type="qcurve"/>
      <point x="1057" y="1040"/>
      <point x="1096" y="937"/>
      <point x="1096" y="877" type="qcurve" name="dh02"/>
      <point x="1096" y="860"/>
      <point x="1093" y="813"/>
      <point x="1091" y="793" type="qcurve" name="sh02"/>
      <point x="1089" y="773"/>
      <point x="1082" y="729"/>
      <point x="1075" y="694" type="qcurve"/>
      <point x="940" y="0" type="line" name="ab01"/>
      <point x="756" y="0" type="line"/>
      <point x="891" y="695" type="line"/>
      <point x="894" y="704"/>
      <point x="892" y="703"/>
      <point x="894" y="709" type="qcurve"/>
      <point x="898" y="730"/>
      <point x="903" y="759"/>
      <point x="907" y="783"/>
      <point x="909" y="804"/>
      <point x="909" y="817" type="qcurve" name="dh01"/>
      <point x="909" y="861"/>
      <point x="886" y="922"/>
      <point x="863" y="944" type="qcurve"/>
      <point x="817" y="987"/>
      <point x="730" y="987" type="qcurve" name="sv03"/>
      <point x="601" y="987"/>
      <point x="513" y="894" type="qcurve"/>
      <point x="424" y="800"/>
      <point x="391" y="633" type="qcurve"/>
      <point x="268" y="0" type="line" name="ab02"/>
      <point x="84" y="0" type="line"/>
    </contour>
  </outline>
</glyph>
<glyph name="ograve" format="1">
  <advance width="1233"/>
  <unicode hex="00F2"/>
  <outline>
    <contour>
      <point x="453" y="1673" type="line" name="ih01"/>
      <point x="651" y="1673" type="line"/>
      <point x="848" y="1297" type="line" name="ih02"/>
      <point x="705" y="1297" type="line"/>
    </contour>
    <contour>
      <point x="510" y="-29" type="qcurve" name="dv01"/>
      <point x="418" y="-29"/>
      <point x="270" y="23"/>
      <point x="218" y="80" type="qcurve"/>
      <point x="171" y="131"/>
      <point x="117" y="287"/>
      <point x="117" y="396" type="qcurve" name="sh01"/>
      <point x="117" y="526"/>
      <point x="158" y="663" type="qcurve"/>
      <point x="177" y="726"/>
      <point x="234" y="852"/>
      <point x="274" y="910" type="qcurve"/>
      <point x="355" y="1028"/>
      <point x="464" y="1087" type="qcurve"/>
      <point x="576" y="1147"/>
      <point x="717" y="1147" type="qcurve" name="at01"/>
      <point x="808" y="1147"/>
      <point x="959" y="1095"/>
      <point x="1012" y="1040" type="qcurve"/>
      <point x="1114" y="933"/>
      <point x="1114" y="726" type="qcurve" name="sh02"/>
      <point x="1114" y="591"/>
      <point x="1073" y="453" type="qcurve"/>
      <point x="1050" y="378"/>
      <point x="990" y="254"/>
      <point x="958" y="207" type="qcurve"/>
      <point x="916" y="146"/>
      <point x="823" y="59"/>
      <point x="766" y="30" type="qcurve"/>
      <point x="709" y="1"/>
      <point x="580" y="-29"/>
    </contour>
    <contour>
      <point x="533" y="127" type="qcurve" name="dv02"/>
      <point x="620" y="127"/>
      <point x="761" y="217"/>
      <point x="812" y="298" type="qcurve"/>
      <point x="839" y="340"/>
      <point x="879" y="439"/>
      <point x="906" y="547"/>
      <point x="920" y="661"/>
      <point x="920" y="718" type="qcurve" name="ah01"/>
      <point x="920" y="790"/>
      <point x="895" y="892"/>
      <point x="864" y="927" type="qcurve"/>
      <point x="834" y="961"/>
      <point x="751" y="991"/>
      <point x="702" y="991" type="qcurve" name="sv01"/>
      <point x="612" y="991"/>
      <point x="473" y="901"/>
      <point x="422" y="820" type="qcurve"/>
      <point x="372" y="741"/>
      <point x="313" y="523"/>
      <point x="313" y="402" type="qcurve" name="sh03"/>
      <point x="313" y="330"/>
      <point x="338" y="226"/>
      <point x="369" y="191" type="qcurve"/>
      <point x="398" y="159"/>
      <point x="483" y="127"/>
    </contour>
  </outline>
</glyph>
<glyph name="oacute" format="1">
  <advance width="1233"/>
  <unicode hex="00F3"/>
  <outline>
    <contour>
      <point x="907" y="1673" type="line" name="sh01"/>
      <point x="1126" y="1673" type="line" name="sh03"/>
      <point x="731" y="1297" type="line"/>
      <point x="575" y="1297" type="line" name="iv01"/>
    </contour>
    <contour>
      <point x="510" y="-29" type="qcurve" name="dv01"/>
      <point x="418" y="-29"/>
      <point x="270" y="23"/>
      <point x="218" y="80" type="qcurve"/>
      <point x="171" y="131"/>
      <point x="117" y="287"/>
      <point x="117" y="396" type="qcurve" name="sh04"/>
      <point x="117" y="526"/>
      <point x="158" y="663" type="qcurve"/>
      <point x="177" y="726"/>
      <point x="234" y="852"/>
      <point x="274" y="910" type="qcurve"/>
      <point x="355" y="1028"/>
      <point x="464" y="1087" type="qcurve"/>
      <point x="576" y="1147"/>
      <point x="717" y="1147" type="qcurve" name="at01"/>
      <point x="808" y="1147"/>
      <point x="959" y="1095"/>
      <point x="1012" y="1040" type="qcurve"/>
      <point x="1114" y="933"/>
      <point x="1114" y="726" type="qcurve" name="sh02"/>
      <point x="1114" y="591"/>
      <point x="1073" y="453" type="qcurve"/>
      <point x="1050" y="378"/>
      <point x="990" y="254"/>
      <point x="958" y="207" type="qcurve"/>
      <point x="916" y="146"/>
      <point x="823" y="59"/>
      <point x="766" y="30" type="qcurve"/>
      <point x="709" y="1"/>
      <point x="580" y="-29"/>
    </contour>
    <contour>
      <point x="533" y="127" type="qcurve" name="dv02"/>
      <point x="620" y="127"/>
      <point x="761" y="217"/>
      <point x="812" y="298" type="qcurve"/>
      <point x="839" y="340"/>
      <point x="879" y="439"/>
      <point x="906" y="547"/>
      <point x="920" y="661"/>
      <point x="920" y="718" type="qcurve" name="ah01"/>
      <point x="920" y="790"/>
      <point x="895" y="892"/>
      <point x="864" y="927" type="qcurve"/>
      <point x="834" y="961"/>
      <point x="751" y="991"/>
      <point x="702" y="991" type="qcurve" name="sv01"/>
      <point x="612" y="991"/>
      <point x="473" y="901"/>
      <point x="422" y="820" type="qcurve"/>
      <point x="372" y="741"/>
      <point x="313" y="523"/>
      <point x="313" y="402" type="qcurve" name="sh05"/>
      <point x="313" y="330"/>
      <point x="338" y="226"/>
      <point x="369" y="191" type="qcurve"/>
      <point x="398" y="159"/>
      <point x="483" y="127"/>
    </contour>
  </outline>
</glyph>
<glyph name="ocircumflex" format="1">
  <advance width="1233"/>
  <unicode hex="00F4"/>
  <outline>
    <contour>
      <point x="717" y="1673" type="line" name="av01"/>
      <point x="864" y="1673" type="line"/>
      <point x="1028" y="1297" type="line" name="ih01"/>
      <point x="895" y="1297" type="line"/>
      <point x="778" y="1538" type="line" name="ih02"/>
      <point x="553" y="1297" type="line"/>
      <point x="397" y="1297" type="line" name="ih03"/>
    </contour>
    <contour>
      <point x="510" y="-29" type="qcurve" name="dv01"/>
      <point x="418" y="-29"/>
      <point x="270" y="23"/>
      <point x="218" y="80" type="qcurve"/>
      <point x="171" y="131"/>
      <point x="117" y="287"/>
      <point x="117" y="396" type="qcurve" name="sh02"/>
      <point x="117" y="526"/>
      <point x="158" y="663" type="qcurve"/>
      <point x="177" y="726"/>
      <point x="234" y="852"/>
      <point x="274" y="910" type="qcurve"/>
      <point x="355" y="1028"/>
      <point x="464" y="1087" type="qcurve"/>
      <point x="576" y="1147"/>
      <point x="717" y="1147" type="qcurve" name="at01"/>
      <point x="808" y="1147"/>
      <point x="959" y="1095"/>
      <point x="1012" y="1040" type="qcurve"/>
      <point x="1114" y="933"/>
      <point x="1114" y="726" type="qcurve" name="sh01"/>
      <point x="1114" y="591"/>
      <point x="1073" y="453" type="qcurve"/>
      <point x="1050" y="378"/>
      <point x="990" y="254"/>
      <point x="958" y="207" type="qcurve"/>
      <point x="916" y="146"/>
      <point x="823" y="59"/>
      <point x="766" y="30" type="qcurve"/>
      <point x="709" y="1"/>
      <point x="580" y="-29"/>
    </contour>
    <contour>
      <point x="533" y="127" type="qcurve" name="dv02"/>
      <point x="620" y="127"/>
      <point x="761" y="217"/>
      <point x="812" y="298" type="qcurve"/>
      <point x="839" y="340"/>
      <point x="879" y="439"/>
      <point x="906" y="547"/>
      <point x="920" y="661"/>
      <point x="920" y="718" type="qcurve" name="ah01"/>
      <point x="920" y="790"/>
      <point x="895" y="892"/>
      <point x="864" y="927" type="qcurve"/>
      <point x="834" y="961"/>
      <point x="751" y="991"/>
      <point x="702" y="991" type="qcurve" name="sv01"/>
      <point x="612" y="991"/>
      <point x="473" y="901"/>
      <point x="422" y="820" type="qcurve"/>
      <point x="372" y="741"/>
      <point x="313" y="523"/>
      <point x="313" y="402" type="qcurve" name="sh03"/>
      <point x="313" y="330"/>
      <point x="338" y="226"/>
      <point x="369" y="191" type="qcurve"/>
      <point x="398" y="159"/>
      <point x="483" y="127"/>
    </contour>
  </outline>
</glyph>
